<svg width="107.16mm" height="73.308mm" version="1.1" viewBox="0 0 107.16 73.308" xmlns="http://www.w3.org/2000/svg"><defs></defs><g transform="translate(-46.514 -21.624)"><path x="96.823494" y="44.732243" width="2.0788691" height="15.591517" d="m97.731 44.941c0.43883-0.01349 0.86937-0.02138 1.2938-0.02542 0.01289 1.643-0.06973 3.3456-0.11755 5.0001v1e-6c-0.06006 2.0778-0.05081 4.1153-0.14766 6.1v1e-6c-0.06763 1.3861-0.01149 2.8778 0.06634 4.3761-0.59477 0.01875-1.1855 0.03875-1.7804 0.05201-0.06113 0.0014-0.12257 0.0026-0.18431 0.0038 0.08885-1.9827-0.10985-4.065-0.28364-6.1233-2.87e-4 -0.0034-5.73e-4 -0.0068-8.58e-4 -0.0102m0.15364 5.9273c0.09078-2.0132 0.03341-4.1237 0.11206-6.1325 0.07878-2.012-0.0524-4.2116-0.15-6.3789v-1e-6c-0.0479-1.0637-0.01747-2.098 0.05796-3.1339 0.74407-0.0091 1.5088-0.01887 2.2838-0.03898 0.04357 0.35721 0.09004 0.7115 0.13785 1.0615 0.27078 1.9817-0.11812 4.3049-0.34688 6.6578-3.66e-4 0.0038-7.3e-4 0.0075-0.0011 0.01129m-1.1192-7.7212c0.29232 9.9e-5 0.58922-4.14e-4 0.89016-0.0015 0.0016 1.7727 0.14482 3.5238 0.31682 5.2528 0.20138 2.0245 0.02037 4.2206 0.05625 6.4141v1e-6c0.02298 1.4051-0.01908 2.7636-0.0997 4.1638-0.73482 0.03411-1.48 0.07945-2.232 0.14839-0.0048-0.05031-0.0096-0.10047-0.01439-0.15046v-1e-6c-0.18044-1.8644 0.15137-4.1558 0.44766-6.2219 4.74e-4 -0.0033 9.46e-4 -0.0066 0.0014-0.0099m-0.18442 5.1619c-0.03929-1.9883 0.07554-4.0828 0.21582-5.9967 0.1405-1.917-0.02419-4.1061-0.08438-6.0719v-1e-6c-0.02183-0.71292-0.02714-1.4584-0.02508-2.2201 0.69485-0.0056 1.3959-0.02486 2.0961-0.0451 0.0067 0.61628 0.01263 1.2317 0.01249 1.8561-4.66e-4 2.049-0.0915 4.0836-0.28594 5.9945v1e-6c-3.11e-4 0.0031-6.21e-4 0.0061-9.3e-4 0.0092" fill="#e9ecef"/></g><g transform="translate(-46.514 -21.624)" stroke="#e9ecef" stroke-linecap="round"><g fill="none"><path d="m69.184 52.617c2.1675-0.06664 4.1332 0.0041 6.1529-2e-3h1e-6c2.0229-0.0062 4.1156-0.05157 6.1023-0.15s4.2273 0.01901 6.4211 0.06328h1e-6c0.93062 0.01878 1.8043 0.01754 2.6473 0.0068m-21.362-0.32134c1.9941-0.09516 4.1967 0.05208 6.3365 0.14577h1e-6c2.1433 0.09384 4.1999 0.03657 6.3625 0.10781 2.1626 0.07124 4.1139-0.04519 6.1-0.12891l1e-6 -1e-6c1.0737-0.04526 2.2421-0.05492 3.461-0.07037"/><path d="m102.3 55.542c2.4412 0.0037 4.4203 0.53789 6.0099 1.1764 0.47511 0.19085 0.92663 0.398 1.3542 0.61906 1.5241 0.78792 2.7154 1.7371 3.6082 2.7308 0.31727 0.35313 0.61671 0.72607 0.89549 1.1069 1.1602 1.5852 1.901 3.2094 2.3067 4.3652 0.0567 0.16151 0.10518 0.31335 0.14669 0.454m-14.359-10.846c2.2701-0.0039 4.5068 0.6606 6.1761 1.4058 0.41964 0.18734 0.81448 0.38019 1.1896 0.58093 1.6688 0.89298 2.9247 1.9345 3.9685 3.1183 0.29294 0.33224 0.55387 0.66056 0.78754 0.98354 1.2043 1.6646 1.7369 3.2785 2.0004 4.348 0.12749 0.51736 0.20516 0.89035 0.24842 1.1233"/><path d="m102.27 49.728c2.1675-0.06664 4.1328 0.0035 6.1529-2e-3 2.0233-0.0055 4.1158-0.05134 6.1023-0.15s4.2268 0.01931 6.4211 0.06328h1e-5c2.1943 0.04397 4.0718-0.02247 5.9758-0.06328 3e-3 -6.5e-5 6e-3 -1.31e-4 9e-3 -1.96e-4m-24.485-0.10495c2.1708 0.06677 4.1932 0.03632 6.3521 0.10749 2.1623 0.07128 4.1141-0.04505 6.1-0.12891 1.9859-0.08386 4.2965-0.04589 6.6508-0.14766 1.8591-0.08036 3.3065 0.05244 4.7464 0.24456"/></g><g fill="#e9ecef" stroke-linejoin="round" stroke-width=".3"><path d="m90.158 50.184c1.0412 0.67777 2.1579 1.3054 3.2917 1.9303-0.67758 0.40092-1.3481 0.80073-2.0272 1.212-0.69344 0.41997-1.3979 0.84634-2.1023 1.2799 0.01965-1.2293 0.0395-2.4423 0.09777-3.6361 0.01863-0.38159 0.02787-0.77118 0.02985-1.1667 1.428 0.84745 2.734 1.5949 4.065 2.3849-0.03644 0.01908-0.07287 0.03819-0.10927 0.05732-1.471 0.77308-2.7543 1.6115-4.0065 2.4533 0.03993-0.46947 0.08266-0.93864 0.12398-1.4092 2.87e-4 -0.0033 5.73e-4 -0.0065 8.58e-4 -0.0098m0.28527-3.1508c1.2087 0.69381 2.4925 1.4372 3.7496 2.1586-0.53064 0.29674-1.0658 0.58977-1.6126 0.8741-0.9352 0.48632-1.8184 1.0191-2.6796 1.5712 0.0351-1.0159 0.09259-2.012 0.14162-3.0163 0.02846-0.58278 0.02928-1.1759 0.0094-1.773 1.2273 0.7677 2.3327 1.5124 3.4164 2.3273 0.12262 0.0922 0.24949 0.1822 0.38017 0.27017-1.5541 0.86541-2.7389 1.534-3.9563 2.1586 0.03366-0.30686 0.06642-0.61493 0.09642-0.92351 3.66e-4 -0.0038 7.31e-4 -0.0075 0.0011-0.01129"/><path d="m125.68 47.492c1.0412 0.67777 2.1579 1.3054 3.2917 1.9303-0.67758 0.40092-1.3482 0.80073-2.0272 1.212-0.69344 0.41997-1.3979 0.84634-2.1023 1.2799 0.0196-1.2293 0.0395-2.4423 0.0978-3.6361 0.0186-0.38159 0.0279-0.77119 0.0298-1.1667 1.428 0.84745 2.734 1.5949 4.065 2.3849-0.0364 0.01908-0.0729 0.03819-0.10927 0.05732-1.471 0.77308-2.7543 1.6115-4.0065 2.4533 0.0399-0.46947 0.0827-0.93864 0.12398-1.4092 2.9e-4 -0.0033 5.7e-4 -0.0065 8.6e-4 -0.0098m0.28527-3.1509c1.2087 0.69381 2.4925 1.4372 3.7496 2.1586-0.53063 0.29674-1.0658 0.58977-1.6126 0.8741-0.9352 0.48632-1.8184 1.0191-2.6796 1.5712 0.0351-1.0159 0.0926-2.012 0.14163-3.0163 0.0285-0.58278 0.0293-1.1759 9e-3 -1.773 1.2273 0.7677 2.3327 1.5124 3.4164 2.3273 0.12263 0.0922 0.24949 0.1822 0.38017 0.27017-1.5542 0.86541-2.7389 1.534-3.9563 2.1586 0.0337-0.30685 0.0664-0.61492 0.0964-0.9235 3.7e-4 -0.0038 7.3e-4 -0.0075 1e-3 -0.01129"/><path d="m118.68 65.406c-0.34614 1.2451-0.76855 2.4622-1.2138 3.6989-0.5804-0.58027-1.1702-1.1525-1.7552-1.7041-0.59747-0.56328-1.1725-1.1695-1.7428-1.7947 1.2081-0.28011 2.4266-0.60332 3.5941-0.88693 0.37318-0.09065 0.75914-0.18204 1.1559-0.27497-0.48967 1.5253-0.798 3.0249-1.0641 4.4443-0.0208-0.03278-0.0416-0.06561-0.0624-0.09848-0.83912-1.3281-2.0559-2.4238-3.2239-3.5445 0.4428-0.08133 0.88996-0.16491 1.3529-0.25765 3e-3 -6.44e-4 6e-3 -0.0013 0.01-0.0019m3.1842 0.20083c-0.44386 1.4332-0.94546 2.8161-1.4792 4.1976-0.43936-0.45614-0.88417-0.91252-1.3326-1.3657-0.76704-0.77516-1.4538-1.5632-2.1108-2.3715 1.0648-0.2616 2.1599-0.5438 3.2335-0.85415 0.62302-0.1801 1.2318-0.33313 1.8334-0.47246-0.43953 1.374-0.92105 2.8289-1.3414 4.1727-0.0476 0.15205-0.0966 0.30525-0.1469 0.45947-1.091-1.2593-2.3121-2.4195-3.5852-3.6002 0.23942-0.05165 0.4774-0.10387 0.7143-0.15721 3e-3 -6.51e-4 6e-3 -0.0013 9e-3 -2e-3"/></g></g><g transform="translate(-46.514 -21.624)" fill="none" stroke-linecap="round" stroke-width=".465"><path d="m66.77 53.574c-0.15824 2.0355-1.4672 3.9842-3.3208 5.0901-1.1284 0.6732-2.3973 1.0136-3.7054 0.97693-0.82572-0.02316-1.6509-0.19618-2.4491-0.51366-2.0819-0.82808-3.4731-2.3114-4.022-4.2845v-1e-6c-0.19072-0.68562-0.30806-1.4158-0.33287-2.1601-0.04567-1.3696 0.22438-2.7322 0.85207-3.8932 0-1e-6 0.0046-0.0086 0.0046-0.0086m-0.71272 5.6759c-0.1566-0.61347-0.23687-1.2598-0.22881-1.9132 0.01746-1.414 0.44856-2.8109 1.3241-3.9319 1.3028-1.6681 3.1084-2.8608 5.1294-3.061 0.11806-0.0117 0.23744-0.01962 0.35793-0.02381 1.9357-0.06733 4.0346 0.8216 5.6067 2.2232 1.3253 1.1816 1.7347 2.9566 1.5248 4.8365-0.05188 0.46462-0.14096 0.93187-0.26054 1.3946 0-1e-6 -0.0029 0.01113-0.0029 0.01113m-0.2034-0.43551c-0.41538 2.091-1.5373 3.8692-3.1892 4.8301-0.90648 0.52723-2.0543 0.84026-3.2363 0.88365-0.94848 0.03482-1.8971-0.1047-2.738-0.4219-1.9144-0.72218-3.4866-2.4054-4.2282-4.2347-0.21479-0.52985-0.30526-1.1169-0.28324-1.7262 0.05288-1.4627 0.75046-3.0077 1.834-4.1864-2e-6 2e-6 0.0073-8e-3 0.0073-8e-3m-1.4372 4.8666c-0.07371-0.37039-0.10895-0.74965-0.10623-1.1314 0.01179-1.6542 0.73515-3.2902 1.9821-4.4255 1.4459-1.3165 3.1799-2.2424 5.0838-2.1579 0.13791 0.0061 0.27615 0.01758 0.41464 0.03454 2.0548 0.25154 4.0529 1.2134 5.26 2.9283 0.80028 1.137 1.1896 2.4884 1.1027 3.8304-0.04202 0.64961-0.19507 1.2867-0.45672 1.8841 1e-6 -2e-6 -0.0038 0.0087-0.0038 0.0087" stroke="#e9ecef"/><path d="m145 50.488c-0.158 2.036-1.4662 3.9853-3.3186 5.0917-1.1283 0.67387-2.397 1.0146-3.705 0.97797-0.82567-0.02316-1.6508-0.19633-2.4489-0.51409-2.081-0.82855-3.4715-2.3127-4.0199-4.2865v-1e-6c-0.1905-0.6857-0.30771-1.416-0.33253-2.1603-0.0457-1.3697 0.22394-2.7323 0.8509-3.8936 0-1e-6 5e-3 -0.0086 5e-3 -0.0086m-0.71182 5.6764c-0.15642-0.61353-0.2366-1.2599-0.22853-1.9134 0.0174-1.4141 0.44811-2.811 1.3228-3.9323 1.3022-1.6694 3.1072-2.8628 5.1279-3.0633 0.11812-0.01172 0.23755-0.01965 0.3581-0.02384 1.9354-0.06731 4.0338 0.82226 5.6054 2.225 1.3244 1.182 1.7334 2.9572 1.5234 4.8375-0.0519 0.46454-0.14089 0.93169-0.26034 1.3944 0-1e-6 -3e-3 0.01113-3e-3 0.01113m-0.20371-0.43523c-0.41509 2.0916-1.536 3.8704-3.187 4.8318-0.90634 0.5278-2.0541 0.84114-3.2361 0.88454-0.94843 0.03482-1.897-0.1049-2.7378-0.42246-1.9135-0.72273-3.4848-2.4066-4.226-4.2367-0.21464-0.52991-0.30503-1.117-0.283-1.7263 0.0529-1.4628 0.75003-3.0079 1.8327-4.1869-1e-5 2e-6 7e-3 -8e-3 7e-3 -8e-3m-1.4359 4.8672c-0.0737-0.37044-0.10886-0.74974-0.10614-1.1315 0.0118-1.6543 0.73458-3.2905 1.9805-4.4262 1.4456-1.3177 3.1791-2.2444 5.0828-2.1598 0.13785 0.0061 0.27603 0.01758 0.41446 0.03453 2.0544 0.25158 4.052 1.2143 5.2586 2.9303v1e-6c0.79962 1.1373 1.1885 2.4889 1.1017 3.8311-0.042 0.64954-0.19493 1.2865-0.45631 1.8839 0-2e-6 -4e-3 0.0087-4e-3 0.0087" stroke="#4caf50"/><path d="m124.6 78.883c-0.15823 2.0355-1.4672 3.9842-3.3208 5.0901-1.1284 0.6732-2.3973 1.0136-3.7054 0.97693-0.82572-0.02316-1.6509-0.19618-2.4491-0.51366-2.0819-0.82808-3.4731-2.3114-4.022-4.2845v-1e-6c-0.19073-0.68562-0.30806-1.4158-0.33287-2.1601-0.0457-1.3696 0.22438-2.7322 0.85207-3.8932 0-1e-6 5e-3 -0.0086 5e-3 -0.0086m-0.71272 5.6759c-0.1566-0.61347-0.23687-1.2598-0.2288-1.9132 0.0174-1.414 0.44856-2.8109 1.324-3.9319 1.3028-1.6681 3.1084-2.8608 5.1294-3.061 0.11807-0.0117 0.23744-0.01962 0.35793-0.02381 1.9357-0.06733 4.0346 0.8216 5.6067 2.2232 1.3252 1.1816 1.7347 2.9566 1.5248 4.8365-0.0519 0.46462-0.14097 0.93187-0.26054 1.3946 0-1e-6 -3e-3 0.01113-3e-3 0.01113m-0.2034-0.43551c-0.41538 2.091-1.5372 3.8692-3.1892 4.8301-0.90648 0.52723-2.0542 0.84026-3.2363 0.88365-0.94848 0.03482-1.8972-0.1047-2.738-0.4219-1.9144-0.72218-3.4866-2.4054-4.2282-4.2347-0.21479-0.52985-0.30527-1.1169-0.28324-1.7262 0.0529-1.4627 0.75046-3.0077 1.834-4.1864-1e-5 2e-6 7e-3 -8e-3 7e-3 -8e-3m-1.4372 4.8666c-0.0737-0.37039-0.10895-0.74965-0.10623-1.1314 0.0118-1.6542 0.73515-3.2902 1.9821-4.4255 1.4459-1.3165 3.1799-2.2424 5.0838-2.1579 0.13791 0.0061 0.27615 0.01758 0.41464 0.03454 2.0548 0.25154 4.0529 1.2134 5.26 2.9283 0.80028 1.137 1.1896 2.4884 1.1028 3.8304-0.042 0.64961-0.19507 1.2867-0.45673 1.8841 1e-5 -2e-6 -4e-3 0.0087-4e-3 0.0087" stroke="#f44336"/></g><g transform="translate(-46.514 -21.624)"><path d="m118.94 83.632s3.5221-1.9945 4.233-3.7815c0.15595-0.39203-1.7888 0.39382-3.4389 1.4387-1.6608 1.0516-3.0897 2.3954-2.4092 2.4287 0.2357 0.01154 1.787-1.2294 3.3354-2.4478 1.55-1.2197 3.1841-2.4817 3.2429-3.0787 0.0287-0.29147-2.6712 0.50945-4.9485 1.7998-2.2701 1.2862-4.1615 3.039-3.2899 3.3379 0.10758 0.03689 2.0007-1.7331 4.0059-3.3819 2.0052-1.6488 4.1268-3.1697 3.9554-3.8087-0.0613-0.22834-2.9363 0.7872-5.4297 2.3495s-4.6111 3.662-4.1672 3.9911c0.13551 0.10044 2.1951-1.8038 4.3748-3.5032s4.4782-3.1958 4.2365-3.6443c-0.11243-0.20857-2.857 0.85724-5.256 2.4407-2.399 1.5835-4.4556 3.6798-4.1428 4.0152 0.12955 0.13891 2.342-1.9196 4.6486-3.7572 2.3066-1.8376 4.7009-3.4645 4.208-4.0359-0.14932-0.17311-2.989 0.69631-5.4719 2.164-2.4829 1.4677-4.6067 3.5378-4.262 4.2694 0.0532 0.11286 2.1789-2.1145 4.3884-4.0497 2.2176-1.9425 4.4684-3.6126 3.8594-3.9425-0.23897-0.12945-2.6735 0.56673-4.8647 1.8007-2.206 1.2423-4.1322 2.9848-4.0465 4.0036 0.0133 0.1586 2.0035-1.7152 3.9313-3.3225 1.9241-1.6042 3.7667-2.9999 2.7098-3.0764-0.962-0.06965-5.3084 1.546-6.2083 3.9272-0.14539 0.3847 0.78766-0.60458 1.8184-1.6111 1.03-1.0058 2.1561-2.0059 2.1561-2.0059s-3.4309 2.1787-3.9745 3.617c0.0147-0.03896 1.3514-0.86938 2.6418-1.5843 1.2919-0.71576 2.523-1.3294 2.0784-1.3473 0.20426 0.0082-1.1926 0.97451-2.5446 2.1974-1.36 1.23-2.6513 2.6953-2.6083 3.206-0.0282-0.33534 1.8136-1.7073 3.7376-2.8018 1.924-1.0945 3.9203-1.9272 3.6444-2.0725 0.10777 0.05674-1.8155 1.3888-3.5654 3.0486-1.7499 1.6598-3.3229 3.6533-3.1531 4.0136-0.12174-0.2584 1.8438-1.8113 3.9695-3.0725 2.1256-1.2612 4.4086-2.2352 4.2242-2.4484 0.15716 0.18179-1.9516 1.5088-3.8705 3.1295-1.9189 1.6206-3.6487 3.5338-3.4459 3.7512 0.0196 0.02103 1.8859-1.5054 3.8788-2.8355 1.9929-1.3301 4.1127-2.4632 3.9862-2.6977 3e-3 0.0061-2.0566 1.2093-3.8905 2.7176-1.8339 1.5083-3.4458 3.3153-3.1869 3.5072-0.0495-0.03671 1.8371-1.5197 3.8805-2.8018 2.0434-1.2821 4.2472-2.3577 4.1722-2.6326 0.0384 0.14089-1.9203 1.4021-3.6335 2.9073-1.7068 1.4994-3.2045 3.2329-2.7835 3.3773-0.35348-0.12121 1.2189-1.177 2.968-2.1148 1.7411-0.93345 3.7232-1.7735 3.7481-2.0819-5.5e-4 0.0068-1.5718 0.99141-2.9394 2.1348-1.3636 1.14-2.5476 2.4296-2.1164 2.4507 0.01 4.88e-4 0.98409-0.55059 2.0309-1.1578 1.0366-0.60124 2.1766-1.2761 2.3332-1.7076-0.0744 0.20501-2.7489 2.7795-2.7489 2.7795z" fill="#f44336"/><path d="m143.25 52.315s-1.7362 0.6712-3.1128 1.4496c-1.4094 0.79693-2.3855 1.614-1.3516 1.4794 0.25884-0.03369 1.3988-0.88499 2.5194-1.7926 1.1207-0.90776 2.2861-1.9207 2.4272-2.5488 0.0793-0.3528-2.0811 0.46408-3.9138 1.5805-1.8409 1.1214-3.4239 2.577-2.7617 2.6792 0.2186 0.03373 1.7956-1.1279 3.4058-2.3516 1.6004-1.2162 3.2579-2.5255 3.1991-3.3712-0.0173-0.24852-2.6526 0.53422-4.9284 1.7877-2.2671 1.2487-4.219 2.9538-3.5959 3.2968 0.12582 0.06927 2.0817-1.7341 4.1481-3.3727 2.0664-1.6386 4.2441-3.111 4.0422-3.6109-0.089-0.22042-2.7948 0.84271-5.1465 2.422s-4.3537 3.6678-3.9646 4.015c0.12981 0.11583 2.259-2.0867 4.5449-4.0138 2.2859-1.9271 4.7264-3.5822 4.4821-3.9618-0.13016-0.20228-3.1087 0.79455-5.6734 2.4239-2.5647 1.6293-4.7181 3.887-4.2562 4.5177 0.0672 0.09177 2.23-2.0765 4.4779-3.9856 2.2479-1.909 4.5696-3.577 3.964-4.0654-0.18811-0.15169-2.852 0.69876-5.2122 2.091-2.3602 1.3922-4.4122 3.3333-4.2098 4.0333 0.0475 0.16424 2.1213-1.7616 4.18-3.4484 2.063-1.6902 4.0708-3.1747 3.1853-3.4573-0.28322-0.09039-2.1935 0.35411-3.9772 1.2301-1.8003 0.88415-3.4262 2.1717-3.5672 3.2604-0.0302 0.23284 1.6156-1.2094 3.1292-2.4599 1.4951-1.2351 2.8901-2.362 1.7783-2.2-0.54342 0.07922-1.6299 0.75591-2.5985 1.5011-0.95318 0.73335-1.7443 1.4985-1.7443 1.4985s0.97574-0.58963 1.8448-1.0961c0.85858-0.50034 1.6344-0.94774 1.0534-0.83855-0.0366 0.0069-3.3168 2.4675-3.4628 3.5948 0.0341-0.26339 1.6246-1.237 3.2152-2.0199 1.5955-0.78529 3.1634-1.394 2.8297-1.493 0.25834 0.07664-1.381 1.1809-2.9415 2.5457-1.5606 1.3648-3.0338 3.0038-2.9244 3.3823-0.0455-0.15722 1.8786-1.6258 3.9208-2.8389 2.0422-1.2131 4.1975-2.1786 3.968-2.3618 0.1835 0.1464-1.8268 1.5022-3.6566 3.1699-1.8297 1.6677-3.4771 3.6501-3.252 3.9574-0.16959-0.23157 1.8055-1.9369 3.9781-3.3354 2.1726-1.3985 4.5432-2.4892 4.4011-2.71-0.0281-0.04362-2.2012 1.3233-4.1209 3.0533s-3.5892 3.8177-3.3557 4.0261c-0.0258-0.02298 1.7667-1.5197 3.6932-2.8293 1.9264-1.3097 3.9887-2.4293 3.8866-2.6811 0.0121 0.02986-1.9608 1.2183-3.7064 2.6838-1.7456 1.4655-3.27 3.1984-2.9524 3.3733-0.16176-0.08906 1.4904-1.1422 3.2884-2.0747 1.798-0.93249 3.7486-1.7335 3.723-2.0537 0.0252 0.31489-1.535 1.3306-2.9094 2.433-1.3711 1.0998-2.5799 2.2723-2.1826 2.3336-0.0412-0.0064 1.159-0.73082 2.4445-1.457 1.2755-0.72055 2.665-1.4612 2.7364-1.8174 9e-3 -0.04484-1.2068 0.74363-2.2176 1.6179-1.0149 0.87785-1.8223 1.8147-1.2345 1.7382-0.21679 0.02822 0.862-0.79816 2.021-1.5338 1.1668-0.74059 2.4433-1.3952 2.4433-1.3952z" fill="#4caf50"/><path d="m64.156 56.566s-1.4587 0.55728-2.4759 1.0706c-1.2163 0.61384-1.4256 0.8459-0.096 0.41177 0.6921-0.22598 3.354-2.3285 3.8386-3.6632 0.14197-0.39103-1.8689 0.41097-3.559 1.4802-1.7029 1.0773-3.1469 2.4525-2.412 2.4881 0.22362 0.01083 1.7976-1.1671 3.3665-2.3993 1.5699-1.2329 3.2177-2.5787 3.2448-3.4648 8e-3 -0.26101-2.7262 0.57325-5.0779 1.8997-2.3412 1.3205-4.3512 3.1193-3.6815 3.4187 0.13514 0.06043 2.1231-1.8 4.2373-3.4857 2.1142-1.6857 4.3569-3.1935 4.1952-3.714-0.07126-0.22951-2.9321 0.83815-5.413 2.4538s-4.5873 3.7706-4.1695 4.0882c0.13939 0.10597 2.1964-1.8166 4.381-3.5211 2.1846-1.7045 4.4954-3.1929 4.2829-3.5904-0.11329-0.21183-2.9617 0.71567-5.4141 2.228-2.4524 1.5123-4.513 3.6028-4.0085 4.1881 0.07341 0.08518 2.2183-2.0946 4.46-4.025 2.2417-1.9304 4.5716-3.6253 4.0257-4.1487-0.16953-0.16257-2.9339 0.72854-5.3692 2.1795-2.4353 1.451-4.5386 3.4664-4.2869 4.1147 0.05906 0.15212 2.2433-1.9767 4.4658-3.8279 2.2298-1.8573 4.4478-3.4645 3.6613-3.8138-0.2541-0.11286-2.503 0.58212-4.549 1.7644-2.0626 1.1919-3.8786 2.832-3.8849 3.8043-0.0013 0.20572 1.8479-1.5587 3.6589-3.0945 1.8108-1.5356 3.56-2.8817 2.6865-2.9087-0.94769-0.02927-4.7167 0.73292-5.9439 3.5665-0.16067 0.37098 0.65304-0.45928 1.5494-1.3192 0.89702-0.8605 1.8794-1.7359 1.8794-1.7359s-2.7417 1.4684-3.4288 3.0551c0.10532-0.24318 1.3734-0.94583 2.5961-1.5328 1.2059-0.57887 2.3255-1.0318 1.8645-1.0304-0.01475 4.5e-5 -1.2988 0.88915-2.5112 2.0125-1.2202 1.1306-2.3476 2.4699-2.351 2.9875 0.0015-0.23271 1.7546-1.529 3.5611-2.5913s3.657-1.9061 3.3501-2.0368c0.23218 0.09888-1.6381 1.3578-3.3831 2.9178-1.745 1.56-3.3575 3.4327-3.2214 3.7833-0.05654-0.14562 1.9048-1.6656 4.0013-2.9227s4.3247-2.2569 4.1173-2.4546c0.16571 0.158-1.8694 1.5501-3.7094 3.2535-1.84 1.7034-3.4848 3.7181-3.2389 4.0033-0.18524-0.21493 1.6839-1.7358 3.7329-2.9983s4.28-2.2632 4.1558-2.4953c-0.02453-0.04585-2.0942 1.1479-3.9323 2.6604-1.8381 1.5125-3.4484 3.3378-3.1977 3.5285-0.02765-0.02102 1.8551-1.5668 3.891-2.9066 2.036-1.3398 4.228-2.4692 4.1454-2.7322 0.0098 0.03119-2.0441 1.2709-3.8516 2.8021-1.8075 1.5312-3.376 3.3418-3.0349 3.4943-0.17375-0.07769 1.5099-1.1994 3.3579-2.1955 1.8479-0.99606 3.8686-1.8529 3.8739-2.1902-0.0049 0.3063-1.6012 1.412-2.9662 2.5533-1.3734 1.1483-2.5603 2.3566-2.1175 2.3781-0.04615-0.0022 0.96447-0.60057 2.0606-1.2406 1.0855-0.63386 2.2887-1.3273 2.4224-1.7319 0.0167-0.05054-1.0373 0.69334-1.8382 1.4498-0.8203 0.77486-1.3411 1.4882-0.5124 1.2176-0.29308 0.0957 0.32239-0.30173 1.0427-0.7005 0.71611-0.39646 1.5292-0.78192 1.5292-0.78192z" fill="#e9ecef"/></g><g transform="translate(-46.514 -21.624)" fill="#e9ecef" stroke="#e9ecef" stroke-width=".165"><g aria-label="source"><path d="m55.964 62.803q0 0.23989-0.19756 0.39158-0.19403 0.15169-0.4692 0.15169-0.27164 0-0.47272-0.12347-0.20108-0.127-0.20108-0.25047 0-0.05292 0.03175-0.08467 0.03175-0.03528 0.07056-0.03528 0.04233 0 0.06703 0.01764 0.02469 0.01411 0.06703 0.05997 0.04233 0.04586 0.07408 0.07761 0.03528 0.03175 0.13758 0.07056 0.10583 0.03881 0.19403 0.03881 0.19403 0 0.3175-0.07761 0.127-0.08114 0.127-0.23283 0-0.18344-0.35278-0.30692-0.14464-0.04939-0.29281-0.10583-0.14464-0.05997-0.24694-0.16228-0.1023-0.10231-0.1023-0.24342 0-0.1905 0.17286-0.33161 0.17286-0.14464 0.42333-0.14464 0.25047 0 0.39511 0.08819 0.14817 0.08467 0.14817 0.17992 0 0.11642-0.12347 0.11642-0.05292 0-0.10583-0.03881-0.16581-0.11642-0.3175-0.11642-0.1517 0-0.24694 0.07056-0.09525 0.06703-0.09525 0.15875 0 0.08819 0.10231 0.1517 0.1023 0.0635 0.24694 0.11642 0.14817 0.05292 0.29633 0.11994 0.14817 0.0635 0.25047 0.17992 0.10231 0.11289 0.10231 0.26458z"/><path d="m57.499 62.926q0.17286-0.20814 0.17286-0.50094 0-0.29281-0.16581-0.49742-0.16228-0.20461-0.40569-0.20461-0.24342 0-0.41628 0.20814-0.16933 0.20814-0.16933 0.50094t0.16228 0.49742q0.16581 0.20461 0.40922 0.20461 0.24342 0 0.41275-0.20814zm-0.4057-1.4323q0.36336 0 0.5962 0.27164 0.23283 0.26811 0.23283 0.6597 0 0.39158-0.23636 0.66675-0.23636 0.27164-0.5962 0.27164-0.35983 0-0.59267-0.26811-0.23283-0.27164-0.23283-0.66322 0-0.39158 0.23283-0.66322 0.23636-0.27517 0.5962-0.27517z"/><path d="m58.617 61.801-0.02822 0.77611q0 0.23989 0.10231 0.39158 0.1023 0.14817 0.28222 0.14817 0.18344 0 0.35278-0.20108 0.16933-0.20461 0.23636-0.45861l-0.01058-0.76553q0-0.17992 0.13406-0.17992 0.16228 0 0.16228 0.25047 0 0.24694-0.07056 0.69497 0 0.26458 0.03881 0.43392 0.03881 0.1658 0.09172 0.18697 0.02117 0.01058 0.04939 0.01411 0.03175 0.0035 0.04233 0.01058 0.01411 0.0071 0.01411 0.02822 0 0.09525-0.05997 0.15522-0.05644 0.05997-0.14464 0.05997-0.22225 0-0.22225-0.45156-0.26106 0.45156-0.65617 0.45156-0.28222 0-0.43744-0.20814-0.15522-0.21167-0.15522-0.51506l0.02117-0.53269q0-0.14111-0.02822-0.26106-0.02822-0.12347-0.02822-0.17639 0-0.05292 0.04233-0.09525 0.04233-0.04586 0.10936-0.04586 0.16228 0 0.16228 0.28928z"/><path d="m60.67 62.503 0.01058 0.66322q0 0.17992-0.13406 0.17992-0.16228 0-0.16228-0.24694 0-0.25047 0.07055-0.6985 0-0.14817-0.03175-0.4057-0.02822-0.25753-0.02822-0.32103t0.03528-0.11289q0.0388-0.04939 0.1023-0.04939 0.0635 0 0.09878 0.04939 0.03881 0.04939 0.03881 0.10936 0 0.05644-0.0035 0.14817 0 0.08819 0 0.14817 0.07056-0.17992 0.21872-0.3175 0.1517-0.13758 0.31044-0.13758t0.24342 0.06703q0.08819 0.0635 0.08819 0.13758 0 0.07408-0.0388 0.11642-0.03881 0.04233-0.10231 0.04233-0.05997 0-0.13406-0.0635-0.07056-0.06703-0.11289-0.06703-0.11642 0-0.27164 0.25047-0.15522 0.25047-0.19756 0.508z"/><path d="m63.125 62.948q0.08819 0 0.08819 0.09525 0 0.09172-0.20461 0.20814-0.20461 0.11289-0.43039 0.11289-0.37042 0-0.61736-0.27164-0.24694-0.27517-0.24694-0.66322 0-0.38806 0.24694-0.65969 0.25047-0.27517 0.65617-0.27517 0.22225 0 0.39158 0.1023 0.17286 0.09878 0.17286 0.20461 0 0.05644-0.03528 0.09525-0.03528 0.03528-0.08114 0.03528t-0.10583-0.05292q-0.18344-0.15522-0.37394-0.15522-0.24342 0-0.42686 0.20461-0.17992 0.20461-0.17992 0.49742 0 0.2928 0.18344 0.50094 0.18344 0.20814 0.45508 0.20814 0.20814 0 0.40569-0.14111 0.06703-0.04586 0.10231-0.04586z"/><path d="m64.237 62.362q0.23989 0 0.381-0.08114 0.14464-0.08114 0.14464-0.21872t-0.09525-0.23636q-0.09172-0.10231-0.26458-0.10231-0.23283 0-0.39158 0.17639-0.15875 0.17286-0.20461 0.4057 0.19403 0.05645 0.43039 0.05645zm0.13406-0.86783q0.28575 0 0.46214 0.15875 0.17992 0.15875 0.17992 0.41275t-0.22225 0.38806q-0.21872 0.13053-0.53975 0.13053-0.18344 0-0.44803-0.05292 0.02117 0.24694 0.18344 0.42686 0.16581 0.17639 0.36689 0.17639 0.11994 0 0.22225-0.03175 0.1023-0.03528 0.15522-0.07408 0.14111-0.10936 0.18344-0.10936 0.04586 0 0.07056 0.02822 0.02822 0.02469 0.02822 0.0635 0 0.09878-0.20461 0.22578-0.20108 0.127-0.43744 0.127-0.36689 0-0.58208-0.25753-0.2152-0.25753-0.23283-0.62089-0.18697-0.05645-0.18697-0.18344 0-0.05292 0.02822-0.08114 0.03175-0.03175 0.07408-0.03175t0.10583 0.03175q0.07761-0.3175 0.29281-0.52211 0.21872-0.20461 0.50094-0.20461z"/></g><g aria-label="legit target"><path d="m129.83 58.997 0.0176 1.1818q0 0.17639-0.13406 0.17639-0.13405 0-0.13405-0.17639l0.0176-1.1818-0.0176-1.1818q0-0.17639 0.13405-0.17639 0.13406 0 0.13406 0.17639z"/><path d="m131.07 59.371q0.23989 0 0.381-0.08114 0.14464-0.08114 0.14464-0.21872 0-0.13758-0.0952-0.23636-0.0917-0.1023-0.26458-0.1023-0.23284 0-0.39159 0.17639-0.15875 0.17286-0.20461 0.4057 0.19403 0.05644 0.43039 0.05644zm0.13406-0.86783q0.28575 0 0.46213 0.15875 0.17992 0.15875 0.17992 0.41275 0 0.254-0.22225 0.38806-0.21872 0.13053-0.53975 0.13053-0.18344 0-0.44803-0.05292 0.0212 0.24694 0.18345 0.42686 0.1658 0.17639 0.36689 0.17639 0.11994 0 0.22225-0.03175 0.1023-0.03528 0.15522-0.07408 0.14111-0.10936 0.18344-0.10936 0.0459 0 0.0706 0.02822 0.0282 0.02469 0.0282 0.0635 0 0.09878-0.20461 0.22578-0.20108 0.127-0.43744 0.127-0.36689 0-0.58209-0.25753-0.21519-0.25753-0.23283-0.62089-0.18697-0.05644-0.18697-0.18344 0-0.05292 0.0282-0.08114 0.0318-0.03175 0.0741-0.03175t0.10584 0.03175q0.0776-0.3175 0.2928-0.52211 0.21872-0.20461 0.50095-0.20461z"/><path d="m133.45 59.494v-0.53975q-0.19403-0.20461-0.43039-0.20461-0.23284 0-0.40923 0.21167-0.17286 0.20814-0.17286 0.49742 0 0.28575 0.10936 0.47625t0.29987 0.1905q0.19402 0 0.3563-0.17992t0.24695-0.45156zm-7e-3 -0.80786q7e-3 -0.16581 0.13406-0.16581 0.16227 0 0.16227 0.25047 0 0.24694-0.0705 0.69497 0.0423 0.43039 0.0423 0.64206 0 0.46214-0.21872 0.74083-0.2152 0.28222-0.60678 0.28222-0.21872 0-0.41275-0.09172-0.19403-0.08819-0.19403-0.17992 0-0.08819 0.0811-0.08819 0.0317 0 0.17992 0.0635 0.15169 0.06703 0.34572 0.06703 0.28222 0 0.4445-0.21167t0.16228-0.54681q0-0.13758-0.0176-0.254-0.0776 0.1905-0.254 0.32808-0.17286 0.13758-0.35983 0.13758-0.18345 0-0.31398-0.08114-0.13052-0.08114-0.21166-0.21167-0.15875-0.26458-0.15875-0.61383 0-0.35278 0.23636-0.63853 0.23989-0.28928 0.58914-0.28928 0.24341 0 0.44097 0.16581z"/><path d="m134.4 57.762q0.0741 0 0.10936 0.04939 0.0353 0.04586 0.0353 0.11994 0 0.07055-0.0494 0.14464-0.0494 0.07055-0.12347 0.07055-0.0741 0-0.11289-0.04939-0.0353-0.04939-0.0353-0.13053 0-0.08114 0.0494-0.14111 0.0529-0.0635 0.127-0.0635zm0.0988 1.6757 0.0176 0.74083q0 0.17639-0.13405 0.17639-0.13406 0-0.13406-0.17639l0.0176-0.74083-0.0176-0.74083q0-0.17639 0.13406-0.17639 0.13405 0 0.13405 0.17639z"/><path d="m135.42 58.771-7e-3 0.83608q0 0.32103 0.0247 0.41981 0.0282 0.09878 0.14111 0.09878 0.0529 0 0.127-0.03528 0.0776-0.0388 0.10231-0.0388 0.0741 0 0.0741 0.07408 0 0.07056-0.13053 0.15169-0.13053 0.07761-0.25753 0.07761-0.30691 0-0.30691-0.45156l-4e-3 -1.1324q-0.11642 0.01058-0.16228 0.01058-0.17639 0-0.17639-0.11642t0.17639-0.11642q0.0141 0 0.15522 0.0071l-7e-3 -0.39511q0-0.17639 0.13405-0.17639 0.13406 0 0.13406 0.17639l-0.0106 0.39864 0.28575-0.01411q0.17639 0 0.17639 0.11994 0 0.11289-0.17639 0.11289-0.0317 0-0.29281-0.0071z"/><path d="m137.45 58.771-7e-3 0.83608q0 0.32103 0.0247 0.41981 0.0282 0.09878 0.14111 0.09878 0.0529 0 0.127-0.03528 0.0776-0.0388 0.10231-0.0388 0.0741 0 0.0741 0.07408 0 0.07056-0.13053 0.15169-0.13053 0.07761-0.25753 0.07761-0.30691 0-0.30691-0.45156l-4e-3 -1.1324q-0.11642 0.01058-0.16228 0.01058-0.17639 0-0.17639-0.11642t0.17639-0.11642q0.0141 0 0.15522 0.0071l-7e-3 -0.39511q0-0.17639 0.13405-0.17639 0.13406 0 0.13406 0.17639l-0.0106 0.39864 0.28575-0.01411q0.17639 0 0.17639 0.11994 0 0.11289-0.17639 0.11289-0.0317 0-0.29281-0.0071z"/><path d="m139.64 59.466q0 0.26458 0.0388 0.43392 0.0388 0.16581 0.0917 0.18697 0.0212 0.01058 0.0494 0.01411 0.0317 0.0035 0.0423 0.01058 0.0141 0.0071 0.0141 0.02822 0 0.09525-0.0529 0.15522-0.0494 0.05997-0.1517 0.05997t-0.15875-0.13053q-0.0564-0.13053-0.0564-0.33514-0.0882 0.19756-0.26106 0.33161-0.16933 0.13406-0.38453 0.13406-0.21166 0-0.36689-0.14111-0.28222-0.25753-0.28222-0.73731 0-0.38453 0.22225-0.67028t0.5715-0.28575q0.26459 0 0.45861 0.17992 0-0.17992 0.13406-0.17992 0.16228 0 0.16228 0.25047 0 0.24694-0.0706 0.69497zm-0.20461 0.03175-0.0176-0.54328q-0.21167-0.20461-0.4445-0.20461-0.2293 0-0.39511 0.20814t-0.16581 0.50094q0 0.28928 0.10584 0.47978 0.10936 0.18697 0.30691 0.18697 0.19756 0 0.35984-0.17639t0.25047-0.45156z"/><path d="m140.53 59.512 0.0106 0.66322q0 0.17992-0.13406 0.17992-0.16227 0-0.16227-0.24694 0-0.25047 0.0705-0.6985 0-0.14817-0.0317-0.4057-0.0282-0.25753-0.0282-0.32103t0.0353-0.11289q0.0388-0.04939 0.1023-0.04939t0.0988 0.04939q0.0388 0.04939 0.0388 0.10936 0 0.05644-4e-3 0.14817 0 0.08819 0 0.14817 0.0705-0.17992 0.21872-0.3175 0.1517-0.13758 0.31045-0.13758t0.24341 0.06703q0.0882 0.0635 0.0882 0.13758 0 0.07408-0.0388 0.11642-0.0388 0.04233-0.1023 0.04233-0.06 0-0.13406-0.0635-0.0706-0.06703-0.11289-0.06703-0.11642 0-0.27164 0.25047t-0.19755 0.508z"/><path d="m142.85 59.494v-0.53975q-0.19403-0.20461-0.43039-0.20461-0.23283 0-0.40922 0.21167-0.17286 0.20814-0.17286 0.49742 0 0.28575 0.10936 0.47625t0.29986 0.1905q0.19403 0 0.35631-0.17992 0.16227-0.17992 0.24694-0.45156zm-7e-3 -0.80786q7e-3 -0.16581 0.13405-0.16581 0.16228 0 0.16228 0.25047 0 0.24694-0.0706 0.69497 0.0423 0.43039 0.0423 0.64206 0 0.46214-0.21873 0.74083-0.21519 0.28222-0.60677 0.28222-0.21873 0-0.41275-0.09172-0.19403-0.08819-0.19403-0.17992 0-0.08819 0.0811-0.08819 0.0317 0 0.17991 0.0635 0.1517 0.06703 0.34573 0.06703 0.28222 0 0.4445-0.21167 0.16227-0.21167 0.16227-0.54681 0-0.13758-0.0176-0.254-0.0776 0.1905-0.254 0.32808-0.17287 0.13758-0.35984 0.13758-0.18344 0-0.31397-0.08114t-0.21167-0.21167q-0.15875-0.26458-0.15875-0.61383 0-0.35278 0.23636-0.63853 0.23989-0.28928 0.58914-0.28928 0.24342 0 0.44098 0.16581z"/><path d="m144.33 59.371q0.23989 0 0.381-0.08114 0.14464-0.08114 0.14464-0.21872 0-0.13758-0.0952-0.23636-0.0917-0.1023-0.26458-0.1023-0.23283 0-0.39158 0.17639-0.15875 0.17286-0.20461 0.4057 0.19402 0.05644 0.43038 0.05644zm0.13406-0.86783q0.28575 0 0.46214 0.15875 0.17992 0.15875 0.17992 0.41275 0 0.254-0.22225 0.38806-0.21873 0.13053-0.53975 0.13053-0.18345 0-0.44803-0.05292 0.0212 0.24694 0.18344 0.42686 0.16581 0.17639 0.36689 0.17639 0.11995 0 0.22225-0.03175 0.10231-0.03528 0.15522-0.07408 0.14112-0.10936 0.18345-0.10936 0.0459 0 0.0705 0.02822 0.0282 0.02469 0.0282 0.0635 0 0.09878-0.20461 0.22578-0.20109 0.127-0.43745 0.127-0.36689 0-0.58208-0.25753-0.2152-0.25753-0.23284-0.62089-0.18697-0.05644-0.18697-0.18344 0-0.05292 0.0282-0.08114 0.0317-0.03175 0.0741-0.03175 0.0423 0 0.10583 0.03175 0.0776-0.3175 0.29281-0.52211 0.21872-0.20461 0.50094-0.20461z"/><path d="m145.92 58.771-7e-3 0.83608q0 0.32103 0.0247 0.41981 0.0282 0.09878 0.14111 0.09878 0.0529 0 0.127-0.03528 0.0776-0.0388 0.1023-0.0388 0.0741 0 0.0741 0.07408 0 0.07056-0.13053 0.15169-0.13053 0.07761-0.25753 0.07761-0.30691 0-0.30691-0.45156l-4e-3 -1.1324q-0.11642 0.01058-0.16228 0.01058-0.17639 0-0.17639-0.11642t0.17639-0.11642q0.0141 0 0.15522 0.0071l-7e-3 -0.39511q0-0.17639 0.13405-0.17639 0.13406 0 0.13406 0.17639l-0.0106 0.39864 0.28575-0.01411q0.17639 0 0.17639 0.11994 0 0.11289-0.17639 0.11289-0.0318 0-0.2928-0.0071z"/></g><g aria-label="attacker's target"><path d="m106.36 87.971q0 0.26458 0.0388 0.43392 0.0388 0.1658 0.0917 0.18697 0.0212 0.01058 0.0494 0.01411 0.0318 0.0035 0.0423 0.01058 0.0141 0.0071 0.0141 0.02822 0 0.09525-0.0529 0.15522-0.0494 0.05997-0.1517 0.05997t-0.15875-0.13053q-0.0564-0.13053-0.0564-0.33514-0.0882 0.19756-0.26106 0.33161-0.16933 0.13406-0.38453 0.13406-0.21166 0-0.36689-0.14111-0.28222-0.25753-0.28222-0.73731 0-0.38453 0.22225-0.67028t0.5715-0.28575q0.26459 0 0.45861 0.17992 0-0.17992 0.13406-0.17992 0.16228 0 0.16228 0.25047 0 0.24694-0.0706 0.69497zm-0.20461 0.03175-0.0176-0.54328q-0.21167-0.20461-0.4445-0.20461-0.2293 0-0.39511 0.20814t-0.16581 0.50094q0 0.28928 0.10584 0.47978 0.10936 0.18697 0.30691 0.18697 0.19756 0 0.35984-0.17639t0.25047-0.45156z"/><path d="m107.37 87.276-7e-3 0.83608q0 0.32103 0.0247 0.41981 0.0282 0.09878 0.14111 0.09878 0.0529 0 0.127-0.03528 0.0776-0.03881 0.10231-0.03881 0.0741 0 0.0741 0.07408 0 0.07055-0.13053 0.15169-0.13053 0.07761-0.25753 0.07761-0.30691 0-0.30691-0.45156l-4e-3 -1.1324q-0.11642 0.01058-0.16228 0.01058-0.17639 0-0.17639-0.11642 0-0.11642 0.17639-0.11642 0.0141 0 0.15522 0.0071l-7e-3 -0.39511q0-0.17639 0.13405-0.17639 0.13406 0 0.13406 0.17639l-0.0106 0.39864 0.28575-0.01411q0.17639 0 0.17639 0.11994 0 0.11289-0.17639 0.11289-0.0318 0-0.29281-0.0071z"/><path d="m108.56 87.276-7e-3 0.83608q0 0.32103 0.0247 0.41981 0.0282 0.09878 0.14111 0.09878 0.0529 0 0.127-0.03528 0.0776-0.03881 0.10231-0.03881 0.0741 0 0.0741 0.07408 0 0.07055-0.13053 0.15169-0.13052 0.07761-0.25752 0.07761-0.30692 0-0.30692-0.45156l-4e-3 -1.1324q-0.11642 0.01058-0.16228 0.01058-0.17639 0-0.17639-0.11642 0-0.11642 0.17639-0.11642 0.0141 0 0.15523 0.0071l-7e-3 -0.39511q0-0.17639 0.13406-0.17639 0.13405 0 0.13405 0.17639l-0.0106 0.39864 0.28575-0.01411q0.17639 0 0.17639 0.11994 0 0.11289-0.17639 0.11289-0.0318 0-0.29281-0.0071z"/><path d="m110.75 87.971q0 0.26458 0.0388 0.43392 0.0388 0.1658 0.0917 0.18697 0.0212 0.01058 0.0494 0.01411 0.0318 0.0035 0.0423 0.01058 0.0141 0.0071 0.0141 0.02822 0 0.09525-0.0529 0.15522-0.0494 0.05997-0.1517 0.05997t-0.15875-0.13053q-0.0564-0.13053-0.0564-0.33514-0.0882 0.19756-0.26106 0.33161-0.16933 0.13406-0.38452 0.13406-0.21167 0-0.36689-0.14111-0.28223-0.25753-0.28223-0.73731 0-0.38453 0.22225-0.67028t0.5715-0.28575q0.26459 0 0.45862 0.17992 0-0.17992 0.13405-0.17992 0.16228 0 0.16228 0.25047 0 0.24694-0.0706 0.69497zm-0.20461 0.03175-0.0176-0.54328q-0.21166-0.20461-0.4445-0.20461-0.2293 0-0.39511 0.20814-0.1658 0.20814-0.1658 0.50094 0 0.28928 0.10583 0.47978 0.10936 0.18697 0.30692 0.18697 0.19755 0 0.35983-0.17639t0.25047-0.45156z"/><path d="m112.67 88.461q0.0882 0 0.0882 0.09525 0 0.09172-0.20461 0.20814-0.20461 0.11289-0.43039 0.11289-0.37042 0-0.61736-0.27164-0.24694-0.27517-0.24694-0.66322 0-0.38806 0.24694-0.65969 0.25047-0.27517 0.65617-0.27517 0.22225 0 0.39158 0.1023 0.17286 0.09878 0.17286 0.20461 0 0.05644-0.0353 0.09525-0.0353 0.03528-0.0811 0.03528-0.0459 0-0.10583-0.05292-0.18344-0.15522-0.37394-0.15522-0.24342 0-0.42686 0.20461-0.17992 0.20461-0.17992 0.49742 0 0.2928 0.18344 0.50094 0.18345 0.20814 0.45509 0.20814 0.20814 0 0.40569-0.14111 0.067-0.04586 0.10231-0.04586z"/><path d="m113.41 87.914 0.0106 0.76553q0 0.17992-0.13406 0.17992-0.16227 0-0.16227-0.24694 0-0.25047 0.0705-0.6985 0-0.23989-0.0318-0.90311-0.0318-0.66675-0.0318-0.71967 0-0.05292 0.0353-0.09878 0.0388-0.04939 0.10231-0.04939 0.0635 0 0.0988 0.04939 0.0388 0.04586 0.0388 0.127v1.1536q0.25753-0.44803 0.635-0.44803 0.20461 0 0.32808 0.11994 0.12348 0.11994 0.12348 0.29281 0 0.28928-0.29987 0.49389-0.067 0.04586-0.17286 0.11289l0.26106 0.40217q0.067 0.10231 0.14111 0.13406 0.0741 0.03175 0.10936 0.03175 0.0388 0 0.0388 0.03175 0 0.08467-0.0529 0.15169-0.0529 0.0635-0.127 0.0635t-0.11642-0.02469q-0.0388-0.02117-0.0882-0.08467-0.0459-0.06703-0.0882-0.13758-0.20461-0.33514-0.31397-0.49036-0.0917 0-0.15169-0.04939-0.06-0.05292-0.06-0.12347 0-0.07056 0.0459-0.11642 0.0494-0.04586 0.127-0.04586t0.15875 0.08819q0.13405-0.05997 0.23636-0.18344 0.10583-0.12347 0.10583-0.22225 0-0.09878-0.0564-0.15522-0.0529-0.05644-0.16228-0.05644-0.19756 0-0.37395 0.20108-0.17639 0.19756-0.24341 0.45508z"/><path d="m115.62 87.875q0.23989 0 0.381-0.08114 0.14464-0.08114 0.14464-0.21872t-0.0953-0.23636q-0.0917-0.10231-0.26459-0.10231-0.23283 0-0.39158 0.17639-0.15875 0.17286-0.20461 0.4057 0.19403 0.05645 0.43039 0.05645zm0.13405-0.86783q0.28575 0 0.46214 0.15875 0.17992 0.15875 0.17992 0.41275t-0.22225 0.38806q-0.21872 0.13053-0.53975 0.13053-0.18344 0-0.44803-0.05292 0.0212 0.24694 0.18345 0.42686 0.1658 0.17639 0.36689 0.17639 0.11994 0 0.22225-0.03175 0.1023-0.03528 0.15522-0.07408 0.14111-0.10936 0.18344-0.10936 0.0459 0 0.0706 0.02822 0.0282 0.02469 0.0282 0.0635 0 0.09878-0.20461 0.22578-0.20108 0.127-0.43745 0.127-0.36688 0-0.58208-0.25753-0.21519-0.25753-0.23283-0.62089-0.18698-0.05644-0.18698-0.18344 0-0.05292 0.0282-0.08114 0.0318-0.03175 0.0741-0.03175t0.10583 0.03175q0.0776-0.3175 0.29281-0.52211 0.21872-0.20461 0.50094-0.20461z"/><path d="m117.09 88.017 0.0106 0.66322q0 0.17992-0.13405 0.17992-0.16228 0-0.16228-0.24694 0-0.25047 0.0705-0.6985 0-0.14817-0.0317-0.40569-0.0282-0.25753-0.0282-0.32103t0.0353-0.11289q0.0388-0.04939 0.10231-0.04939 0.0635 0 0.0988 0.04939 0.0388 0.04939 0.0388 0.10936 0 0.05644-4e-3 0.14817 0 0.08819 0 0.14817 0.0706-0.17992 0.21872-0.3175 0.1517-0.13758 0.31045-0.13758t0.24342 0.06703q0.0882 0.0635 0.0882 0.13758 0 0.07408-0.0388 0.11642-0.0388 0.04233-0.1023 0.04233-0.06 0-0.13406-0.0635-0.0705-0.06703-0.11289-0.06703-0.11641 0-0.27163 0.25047-0.15523 0.25047-0.19756 0.508z"/><path d="m118.34 86.267q0.067 0 0.10231 0.04939 0.0388 0.04586 0.0388 0.09525t-0.0212 0.20461q-0.0212 0.15522-0.0282 0.26458-4e-3 0.10583-0.0212 0.16228-0.0176 0.05292-0.0706 0.05292-0.0494 0-0.0706-0.05644-0.0176-0.05645-0.0247-0.16228-4e-3 -0.10583-0.0247-0.25753-0.0212-0.15522-0.0212-0.20461 0-0.05292 0.0353-0.09878 0.0388-0.04939 0.10583-0.04939z"/><path d="m120.14 88.316q0 0.23989-0.19756 0.39158-0.19402 0.15169-0.46919 0.15169-0.27164 0-0.47272-0.12347-0.20109-0.127-0.20109-0.25047 0-0.05292 0.0318-0.08467 0.0317-0.03528 0.0706-0.03528 0.0423 0 0.067 0.01764 0.0247 0.01411 0.067 0.05997t0.0741 0.07761q0.0353 0.03175 0.13758 0.07056 0.10584 0.03881 0.19403 0.03881 0.19403 0 0.3175-0.07761 0.127-0.08114 0.127-0.23283 0-0.18344-0.35278-0.30692-0.14464-0.04939-0.2928-0.10583-0.14464-0.05997-0.24695-0.16228-0.1023-0.10231-0.1023-0.24342 0-0.1905 0.17286-0.33161 0.17286-0.14464 0.42333-0.14464t0.39511 0.08819q0.14817 0.08467 0.14817 0.17992 0 0.11642-0.12347 0.11642-0.0529 0-0.10584-0.03881-0.1658-0.11642-0.3175-0.11642-0.15169 0-0.24694 0.07056-0.0953 0.06703-0.0953 0.15875 0 0.08819 0.1023 0.1517 0.10231 0.0635 0.24695 0.11642 0.14817 0.05292 0.29633 0.11994 0.14817 0.0635 0.25047 0.17992 0.10231 0.11289 0.10231 0.26458z"/><path d="m121.77 87.276-7e-3 0.83608q0 0.32103 0.0247 0.41981 0.0282 0.09878 0.14112 0.09878 0.0529 0 0.127-0.03528 0.0776-0.03881 0.1023-0.03881 0.0741 0 0.0741 0.07408 0 0.07055-0.13052 0.15169-0.13053 0.07761-0.25753 0.07761-0.30692 0-0.30692-0.45156l-4e-3 -1.1324q-0.11641 0.01058-0.16227 0.01058-0.17639 0-0.17639-0.11642 0-0.11642 0.17639-0.11642 0.0141 0 0.15522 0.0071l-7e-3 -0.39511q0-0.17639 0.13406-0.17639 0.13405 0 0.13405 0.17639l-0.0106 0.39864 0.28575-0.01411q0.17639 0 0.17639 0.11994 0 0.11289-0.17639 0.11289-0.0318 0-0.2928-0.0071z"/><path d="m123.96 87.971q0 0.26458 0.0388 0.43392 0.0388 0.1658 0.0917 0.18697 0.0212 0.01058 0.0494 0.01411 0.0318 0.0035 0.0423 0.01058 0.0141 0.0071 0.0141 0.02822 0 0.09525-0.0529 0.15522-0.0494 0.05997-0.15169 0.05997-0.10231 0-0.15875-0.13053-0.0565-0.13053-0.0565-0.33514-0.0882 0.19756-0.26105 0.33161-0.16934 0.13406-0.38453 0.13406-0.21167 0-0.36689-0.14111-0.28222-0.25753-0.28222-0.73731 0-0.38453 0.22225-0.67028t0.5715-0.28575q0.26458 0 0.45861 0.17992 0-0.17992 0.13405-0.17992 0.16228 0 0.16228 0.25047 0 0.24694-0.0705 0.69497zm-0.20461 0.03175-0.0176-0.54328q-0.21167-0.20461-0.4445-0.20461-0.22931 0-0.39511 0.20814-0.16581 0.20814-0.16581 0.50094 0 0.28928 0.10583 0.47978 0.10936 0.18697 0.30692 0.18697t0.35983-0.17639q0.16228-0.17639 0.25048-0.45156z"/><path d="m124.85 88.017 0.0106 0.66322q0 0.17992-0.13405 0.17992-0.16228 0-0.16228-0.24694 0-0.25047 0.0706-0.6985 0-0.14817-0.0318-0.40569-0.0282-0.25753-0.0282-0.32103t0.0353-0.11289q0.0388-0.04939 0.10231-0.04939 0.0635 0 0.0988 0.04939 0.0388 0.04939 0.0388 0.10936 0 0.05644-4e-3 0.14817 0 0.08819 0 0.14817 0.0706-0.17992 0.21873-0.3175 0.15169-0.13758 0.31044-0.13758t0.24342 0.06703q0.0882 0.0635 0.0882 0.13758 0 0.07408-0.0388 0.11642-0.0388 0.04233-0.10231 0.04233-0.06 0-0.13405-0.0635-0.0706-0.06703-0.11289-0.06703-0.11642 0-0.27164 0.25047-0.15523 0.25047-0.19756 0.508z"/><path d="m127.16 87.999v-0.53975q-0.19403-0.20461-0.43039-0.20461-0.23284 0-0.40922 0.21167-0.17287 0.20814-0.17287 0.49742 0 0.28575 0.10937 0.47625 0.10936 0.1905 0.29986 0.1905 0.19402 0 0.3563-0.17992t0.24695-0.45156zm-7e-3 -0.80786q7e-3 -0.1658 0.13406-0.1658 0.16227 0 0.16227 0.25047 0 0.24694-0.0705 0.69497 0.0423 0.43039 0.0423 0.64206 0 0.46214-0.21872 0.74083-0.21519 0.28222-0.60678 0.28222-0.21872 0-0.41275-0.09172-0.19403-0.08819-0.19403-0.17992 0-0.08819 0.0811-0.08819 0.0318 0 0.17992 0.0635 0.15169 0.06703 0.34572 0.06703 0.28222 0 0.4445-0.21167 0.16228-0.21167 0.16228-0.54681 0-0.13758-0.0176-0.254-0.0776 0.1905-0.254 0.32808-0.17286 0.13758-0.35983 0.13758-0.18345 0-0.31397-0.08114-0.13053-0.08114-0.21167-0.21167-0.15875-0.26458-0.15875-0.61383 0-0.35278 0.23636-0.63853 0.23989-0.28928 0.58914-0.28928 0.24342 0 0.44097 0.1658z"/><path d="m128.64 87.875q0.23989 0 0.381-0.08114 0.14464-0.08114 0.14464-0.21872t-0.0952-0.23636q-0.0917-0.10231-0.26458-0.10231-0.23284 0-0.39159 0.17639-0.15875 0.17286-0.20461 0.4057 0.19403 0.05645 0.43039 0.05645zm0.13406-0.86783q0.28575 0 0.46213 0.15875 0.17992 0.15875 0.17992 0.41275t-0.22225 0.38806q-0.21872 0.13053-0.53975 0.13053-0.18344 0-0.44803-0.05292 0.0212 0.24694 0.18345 0.42686 0.1658 0.17639 0.36689 0.17639 0.11994 0 0.22225-0.03175 0.1023-0.03528 0.15522-0.07408 0.14111-0.10936 0.18344-0.10936 0.0459 0 0.0706 0.02822 0.0282 0.02469 0.0282 0.0635 0 0.09878-0.20461 0.22578-0.20108 0.127-0.43744 0.127-0.36689 0-0.58209-0.25753-0.21519-0.25753-0.23283-0.62089-0.18697-0.05644-0.18697-0.18344 0-0.05292 0.0282-0.08114 0.0318-0.03175 0.0741-0.03175t0.10583 0.03175q0.0776-0.3175 0.29281-0.52211 0.21872-0.20461 0.50095-0.20461z"/><path d="m130.24 87.276-7e-3 0.83608q0 0.32103 0.0247 0.41981 0.0282 0.09878 0.14111 0.09878 0.0529 0 0.127-0.03528 0.0776-0.03881 0.10231-0.03881 0.0741 0 0.0741 0.07408 0 0.07055-0.13052 0.15169-0.13053 0.07761-0.25753 0.07761-0.30692 0-0.30692-0.45156l-4e-3 -1.1324q-0.11641 0.01058-0.16227 0.01058-0.17639 0-0.17639-0.11642 0-0.11642 0.17639-0.11642 0.0141 0 0.15522 0.0071l-7e-3 -0.39511q0-0.17639 0.13406-0.17639 0.13405 0 0.13405 0.17639l-0.0106 0.39864 0.28575-0.01411q0.17639 0 0.17639 0.11994 0 0.11289-0.17639 0.11289-0.0317 0-0.29281-0.0071z"/></g></g><g transform="translate(-46.514 -21.624)" stroke-linecap="round" stroke-linejoin="round"><path x="47.592098" y="22.671764" width="105.07738" height="71.27549" d="m48.499 22.88c2.1675-0.06664 4.1328 0.0035 6.1529-2e-3 2.0233-0.0055 4.1159-0.05134 6.1023-0.15 1.9865-0.09866 4.2268 0.01931 6.4211 0.06328h1e-6c2.1943 0.04397 4.0718-0.02247 5.9758-0.06328 3e-3 -6.5e-5 0.0061-1.3e-4 0.0091-1.96e-4m-5.8786-0.10495c2.1708 0.06677 4.1934 0.03629 6.3521 0.10749 2.1621 0.07131 4.1143-0.04494 6.1-0.12891 1.9857-0.08397 4.2967-0.04606 6.6508-0.14766h1e-6c2.3541-0.10159 4.0485 0.13818 5.9031 0.40781 3e-3 4.32e-4 0.0059 8.61e-4 0.0089 0.0013m-5.599-0.35754c2.0222 6.86e-4 4.2639-0.02794 6.545-0.08672 2.2847-0.05887 4.187 0.05391 6.3062 0.16406 2.1192 0.11016 4.0799 0.10684 5.9828 0.32578 1.9029 0.21894 4.318 0.01087 6.6977 0.02812 4e-3 2.8e-5 8e-3 5.5e-5 0.0114 8.2e-5m-5.7772-0.43089c2.0407 0.0917 4.2355 0.07723 6.4558 0.24331 2.2238 0.16634 4.1425 0.06053 6.1656 0.17812s4.1718-0.0125 6.2547-0.04687 4.0752-0.08306 5.9641-0.25547c3e-3 -2.75e-4 6e-3 -5.51e-4 9e-3 -8.25e-4m-7.3147-0.23815c2.1554 0.01921 4.2347 0.19269 6.467 0.5835 2.2359 0.39144 4.2042-0.17578 6.3719-0.53906 2.1676-0.36328 4.0816 0.16422 5.9992 0.4875 1.9176 0.32328 4.2257-0.03187 6.4258-0.08906 4e-3 -9.2e-5 7e-3 -1.83e-4 0.0105-2.74e-4m-6.5011-0.17055c2.0469 0.056 4.2394 0.06321 6.4816 0.18489 1.2637 0.06858 2.4377 0.07164 3.6079 0.07343-2e-3 0.9124-6e-3 1.824 0.0286 2.7651v1e-6c0.0781 2.152 1e-3 4.0391 9e-3 5.8586s-0.0521 4.1873-0.15703 6.3062c-1.7e-4 0.0034-3.3e-4 0.0068-5e-4 0.01017m-0.3721-5.7024c0.0112 2.0977 0.11474 4.1057 0.35385 6.0805 0.2395 1.978-0.10978 4.1977-0.3375 6.3484v2e-6c-0.22771 2.1507 0.11907 4.1257 0.36094 6.1258 0.24187 2.0001-0.0536 4.3251-0.16406 6.7281-1.8e-4 0.0038-3.6e-4 0.0077-5.3e-4 0.01153m-0.10522-6.0793c-0.0572 1.9825 0.0509 4.2091 0.162 6.3764 0.11124 2.1708-0.0849 4.2739-0.25547 6.5758-0.17053 2.3019 5e-3 3.9848 7e-3 5.7086s0.0532 4.3533 0.16406 6.8125c1.8e-4 0.0039 3.6e-4 0.0079 5.3e-4 0.0118m0.2435-5.7916c0.0581 2.1657-0.0197 4.3053-0.0683 6.6849v1e-6c-0.0487 2.3835 0.0375 4.1251 0.11719 6.1258 0.0797 2.0006-0.0523 4.2164-0.15 6.393v2e-6c-0.061 1.3595-0.0353 2.6411 5e-3 3.9146-0.75792-0.01669-1.5106-0.03628-2.2738-0.04359-3e-3 -3.1e-5 -7e-3 -6.2e-5 -0.01-9.3e-5m2.5126-4.4984c-0.0539 1.546-0.0525 3.0404-0.0826 4.5245-0.57282-0.01265-1.1499-0.02671-1.7358-0.04009-2.1728-0.04962-4.273 0.03206-6.5688 0.09141-2.2958 0.05934-4.0946-0.13032-6.032-0.39844-1.9374-0.26812-4.2544-0.03775-6.5078-0.10547-4e-3 -1.08e-4 -7e-3 -2.16e-4 -0.0108-3.23e-4m7.0536 0.44138c-2.1054 0.08843-4.0939 0.02442-6.0454 0.06754-1.9546 0.04319-4.1424-0.07431-6.1797-0.225-2.0373-0.15069-4.1768 0.018-6.2711 0.05391-2.0943 0.03591-4.2315-0.04381-6.4492-0.13125-4e-3 -1.39e-4 -7e-3 -2.79e-4 -0.0106-4.17e-4m5.9536-0.21766c-2.1118-0.02163-4.1518 0.02106-6.2211 0.07276-2.0726 0.05178-4.0327 0.0061-5.8586 0.01641-1.8259 0.01028-4.1759 0.111-6.2875 0.34219-2.1116 0.23118-4.3175 0.03578-6.7 0.10312-0.0038 1.07e-4 -0.0076 2.15e-4 -0.01143 3.22e-4m6.8149-0.58436c-2.1645-0.0922-4.1578 0.0084-6.2232 0.03326-2.0687 0.0249-4.03 0.07581-5.8469 0.22969h-1e-6c-1.8169 0.15387-4.3379-0.04865-6.775-0.13828-2.4371-0.08963-4.049 0.11703-5.9055 0.34688-3e-3 3.67e-4 -0.0059 7.34e-4 -0.0089 0.0011m5.9989-0.4135c-2.0797 0.02049-4.0635 0.10682-5.9588 0.32803-1.8983 0.22156-4.2402 0.04444-6.4609 0.12891h-1e-6c-2.2207 0.08447-4.0399-0.06347-5.8633-0.19688s-4.3258-0.02509-6.7211-0.06563c-0.0038-6.5e-5 -0.0077-1.29e-4 -0.01149-1.93e-4m5.9815 0.20174c-2.1048-0.0039-4.1588 0.0036-6.2352 1.8e-5h-1e-6c-2.0798-0.0036-4.2114-0.07441-6.3742-0.23203-1.2685-0.09245-2.4923-0.07969-3.7209-0.05474-0.0047-0.84384-0.01177-1.6816-0.03856-2.5459-0.06478-2.0903 0.03244-4.1981 0.10781-6.3414v-1e-6c1.21e-4 -0.0034 2.41e-4 -0.0069 3.61e-4 -0.01029m-0.16446 6.3844c-0.0075-2.0159 0.08326-4.2219 0.24379-6.4325 0.16078-2.2141-0.04353-4.1995-0.13125-6.3484l-1e-6 -1e-6c-0.08772-2.1489 0.02581-4.1448 0.07734-6.1727v-1e-6c0.05153-2.0279-0.07738-4.2011-0.23906-6.3484-2.59e-4 -0.0034-5.17e-4 -0.0069-7.73e-4 -0.01031m0.33827 6.6887c-0.0013-2.0963-0.17687-4.1798-0.52968-6.3032-0.35338-2.1268 0.17784-4.0554 0.52266-5.9102 0.34482-1.8547-0.0885-4.2752-0.26016-6.5828v-1e-6c-0.17166-2.3076 0.01172-4.1688 0.03984-6.2477 4.5e-5 -0.0033 9e-5 -0.0067 1.34e-4 -0.01m0.06328 7.6941c0.02723-2.0346 0.0323-4.2637 0.08659-6.5402 0.05438-2.2802-0.11506-4.1656-0.33516-6.2359v-1e-6c-0.2201-2.0703 0.01413-4.0223 0.05156-5.8188 0.03744-1.7964-0.05913-4.236-0.17812-6.4609-1.9e-4 -0.0036-3.8e-4 -0.0071-5.68e-4 -0.01068m0.29357 7.3043c6e-3 -2.0972-0.05242-4.1953-0.1594-6.3384-0.10716-2.1465-0.03219-4.1306-0.08672-6.1469v-1e-6c-0.02087-0.77178-0.02096-1.5509-0.0092-2.3266 1.3049 0.03517 2.6406 0.07937 3.9699 0.17791h1e-6c2.1536 0.15966 4.1529-0.10525 6.2148-0.30469h1e-6c0.0033-3.19e-4 0.0066-6.37e-4 0.0099-9.54e-4m-8.5117 0.0031c2.0841-0.03688 3.9809 0.10135 5.7033 0.30721 1.7251 0.20619 4.185-0.0015 6.2969-7e-3h1e-6c2.1119-0.0055 4.2997-0.05791 6.6602-0.17344h1e-6c2.3605-0.11553 4.0929-0.069 6.0391-0.20156 0.0031-2.12e-4 0.0062-4.24e-4 0.0093-6.34e-4m-6.7538 0.33345c2.128 5.49e-4 4.1523-0.0712 6.2163-0.21328 2.0673-0.14231 4.1864-0.04387 6.3133-0.12188 2.1269-0.078 4.2253 0.01565 6.4375 0.04219h1e-6c2.2122 0.02653 4.027-0.06441 5.8375-0.19219 0.0029-2.05e-4 0.0058-4.08e-4 0.0087-6.11e-4m-6.9923 0.38284c1.9926 0.04121 4.2071 0.04239 6.3904 0.1334 2.1868 0.09115 4.0744-0.11762 5.9758-0.35391 1.9013-0.23628 4.3133 0.0851 6.6977 0.2625 2.3844 0.1774 4.1543 0.02422 6.2148 0.08203 3e-3 9.2e-5 7e-3 1.85e-4 0.01 2.77e-4m-7.3174-0.08271c2.1455-0.0836 4.0454 0.03204 5.9092 0.09884 1.8668 0.06691 4.2082-0.0156 6.3672-0.05625s4.2461-0.05928 6.4914-0.17344c2.2453-0.11416 3.9964-0.05472 5.7344-0.16641 3e-3 -1.78e-4 6e-3 -3.56e-4 8e-3 -5.34e-4m-6.6836 0.09438c2.0161 0.02004 4.0624-0.03451 5.938-0.1126 1.8785-0.07822 4.2122-0.0057 6.3976-0.01172 2.1855-0.0061 4.2705-0.02663 6.5594-0.08672 2.2889-0.06009 4.1175 0.15706 6.1023 0.47812 3e-3 5.14e-4 6e-3 1e-3 0.01 0.0015m-7.4113-0.19327c2.0355 0.09451 4.0516-0.01344 5.9262-0.0403 1.8776-0.02691 4.2973-0.069 6.6344-0.19688 0.81153-0.04441 1.5429-0.04734 2.2261-0.02476-0.0756 1.4024-0.32144 2.8949-0.52452 4.3717-0.31113 2.2624 0.0443 4.21 0.14296 6.3859 1.6e-4 0.0035 3.2e-4 7e-3 4.8e-4 0.01044m0.0608-6.994c0.0642 2.1257-0.0332 4.1571-0.0894 6.2351-0.0563 2.0813-0.0401 4.183-0.12188 6.2945-0.0818 2.1115 0.13888 4.1744 0.41954 6.2688 0.28065 2.0943-0.11138 4.1575-0.32344 6.2148-3.4e-4 0.0033-6.8e-4 0.0066-1e-3 0.0099m0.30329-5.2715c-0.0158 2.0821-0.0998 4.0842-0.3093 6.0173-0.20984 1.9363-0.0544 4.174-0.16407 6.2828-0.10962 2.1089 0.12878 4.2821 0.37969 6.5852s-0.0285 4.0886-0.0797 6.0203l-2.4e-4 0.0093m0.0359-6.5498c0.0981 2.0036-0.0888 4.254-0.27469 6.5146-0.18615 2.2642 0.0983 4.1617 0.30469 6.2266 0.20643 2.0649-0.0323 4.0498-0.0984 5.8891s-1e-3 4.2293-2e-3 6.4398c0 0.0035-1e-5 0.0071-1e-5 0.01061m-0.0725-5.6129c0.0414 2.0426 0.11118 4.1115 0.34433 6.0972 0.14751 1.2563 0.0596 2.5769-0.0858 3.8889-0.85218-0.0023-1.7239-0.0075-2.5798-0.03024-2.3236-0.06162-4.0827 0.07675-5.9992 0.23438-1.9166 0.15762-4.2538-0.02037-6.5102-0.05391h-1e-5c-4e-3 -5.4e-5 -7e-3 -1.07e-4 -0.0108-1.61e-4m6.4855-0.03491c-2.1759 0.01704-4.1054-0.0045-6.0708-0.0118-1.9686-0.0073-4.1544-0.03116-6.2148-0.10078-2.0605-0.06962-4.2833 0.03012-6.5969 0.08437-2.3136 0.05425-4.1334 0.11366-6.1492 0.34453-3e-3 3.69e-4 -6e-3 7.37e-4 -0.01 0.0011m7.2717-0.24026c-2.0804-0.0187-4.0534-0.03024-5.9119-0.096-1.8614-0.06587-4.2693-0.06366-6.5477-0.20156-2.2784-0.1379-4.152 0.12238-6.2031 0.37734-2.0511 0.25497-4.2009 0.06634-6.3438 0.18984-3e-3 1.98e-4 -7e-3 3.95e-4 -0.0103 5.91e-4m6.5635-0.57994c-2.0477-0.09129-4.228 0.04997-6.4323 0.14341-2.2079 0.09359-4.1157 0.03369-6.1023 0.09375h-2e-6c-1.9866 0.06006-4.1513-0.06931-6.1984-0.19688-2.0471-0.12757-4.2194-6e-3 -6.4117-0.01641-0.0035-1.7e-5 -7e-3 -3.3e-5 -0.01052-4.9e-5m6.0084 0.26987c-2.1497 0.05962-4.1433-0.01903-6.1998-0.05185-2.0598-0.03288-4.2104-0.04265-6.3742-0.12422h-2e-6c-2.1638-0.08156-4.1479-0.03987-6.1914-0.11719-2.0435-0.07731-4.1468 0.187-6.1984 0.55078-0.0033 5.82e-4 -0.0066 0.0012-0.0098 0.0017m6.9869-0.24354c-2.0131-0.08268-4.0927 0.07703-6.0434 0.21837-1.9539 0.14156-4.1675-0.11238-6.2641-0.34219-2.0966-0.22981-4.154 0.01153-6.2008 0.04453-1.4762 0.0238-3.0186 0.04599-4.5857 0.10589-0.02497-0.55767-0.05363-1.1097-0.08357-1.6538-1.71e-4 -0.0031-3.43e-4 -0.0062-5.14e-4 -0.0094m5.4029 1.8905c-1.7784 0.06532-3.5798-0.11216-5.4331-0.38845-0.01542-0.36262-0.03247-0.72835-0.05132-1.0964-0.12525-2.4452-0.03456-4.1074-0.09844-6.0789s-0.05084-4.1059-0.14531-6.0625c-0.09447-1.9566 0.13172-4.1182 0.40312-6.093 4.34e-4 -0.0032 8.67e-4 -0.0063 0.0013-0.0095m-0.19103 6.5536c0.02419-2.1266 0.05322-4.1797 0.14988-6.3007 0.09682-2.1245-0.13875-4.1022-0.42656-6.0625-0.28781-1.9603 0.14247-4.1667 0.43828-6.2523 0.29581-2.0856-0.081-4.2645-0.24375-6.543-2.6e-4 -0.0036-5.2e-4 -0.0073-7.79e-4 -0.01093m0.26288 7.2204c-0.08331-2.0552-0.11991-4.1621-0.35585-6.2565-0.23631-2.0977 0.14563-4.2229 0.44531-6.4094 0.29968-2.1865-0.10959-4.1605-0.33047-6.2406v-1e-6c-0.22087-2.0801 0.04812-4.1694 0.14297-6.2547 1.51e-4 -0.0033 3.03e-4 -0.0067 4.53e-4 -0.01001m-0.17644 4.9986c-0.04153-2.0837 0.10183-4.093 0.3002-6.0478v-1e-6c0.19869-1.9579-0.02303-4.2214-0.06797-6.4094-0.04494-2.188 0.0015-4.0842 0.0094-6.0133v-1e-6c0.0022-0.54522-0.0078-1.1211-0.02934-1.7174 1.4398-0.01883 2.8048-0.16846 4.1051-0.27874 0.0029-2.46e-4 0.0058-4.91e-4 0.0087-7.35e-4" fill="none" stroke="#e9ecef" stroke-width="1.365"/><path d="m99.884 28.123c-0.76583 1.8276-1.732 3.794-2.6466 5.6805 0.0025-1e-5 5e-3 -1.9e-5 0.0074-2.9e-5 0.90336-0.0035 1.8209-0.01434 2.7369-0.03392-0.45105 1.044-0.90448 2.0744-1.3902 3.0885-0.41304 0.86234-0.76994 1.772-1.1022 2.6993m1.956-11.364c-0.90231 1.787-1.6335 3.5547-2.4082 5.2282 0.08583-0.0062 0.17158-0.01248 0.25724-0.01898 0.86692-0.06575 1.7258-0.06914 2.5844-0.0438-0.45008 1.1804-0.90104 2.4215-1.3297 3.62-0.42472 1.1875-0.87877 2.3239-1.3232 3.4647" fill="none" stroke="#f3f300"/><path d="m98.296 40.457c-0.57361 0.5535-1.1205 1.0886-1.6528 1.616-0.27504-1.0997-0.51753-2.2167-0.76849-3.3153 0.18828 0.04998 0.37632 0.10046 0.56394 0.15162 0.94535 0.25777 1.8757 0.52275 2.8079 0.79679-0.79115 0.8156-1.5796 1.644-2.337 2.4884-9.89e-4 0.0011-2e-3 0.0022-3e-3 0.0033-0.06236-0.2747-0.12994-0.55378-0.20182-0.83638m2.3729-1.1858c-0.64976 0.68962-1.339 1.3842-2.0438 2.0918-0.30224-1.0403-0.62551-2.0633-0.93303-3.0566-0.0049-0.01591-0.0098-0.03185-0.01477-0.04781 1.0756 0.38832 2.1654 0.66585 3.2514 0.91388-0.67207 0.60143-1.3467 1.1834-2.0337 1.7894-0.15459 0.13636-0.30833 0.27419-0.46143 0.41322-0.07888-0.2863-0.15652-0.57033-0.23344-0.8528" fill="#f3f300" stroke="#f3f300" stroke-width=".3"/></g></svg>
