<svg version="1.1" viewBox="0 0 818.56 154.56" xml:space="preserve" xmlns="http://www.w3.org/2000/svg"><defs><clipPath id="h"><path d="m0 0h2558.3v479.87h-2558.3z" clip-rule="evenodd"/></clipPath><clipPath id="c"><path d="m578.85 125.97h50.987v53.986h-50.987z" clip-rule="evenodd"/></clipPath><clipPath id="b"><path d="m0 0h2558.3v479.87h-2558.3z" clip-rule="evenodd"/></clipPath><clipPath id="a"><path d="m995.74 116.97h116.97v74.98h-116.97z" clip-rule="evenodd"/></clipPath><clipPath id="l"><path d="m0 0h2558.3v479.87h-2558.3z" clip-rule="evenodd"/></clipPath><clipPath id="k"><path d="m1445.6 116.97h116.97v74.98h-116.97z" clip-rule="evenodd"/></clipPath><clipPath id="j"><path d="m0 0h2558.3v479.87h-2558.3z" clip-rule="evenodd"/></clipPath><clipPath id="i"><path d="m1871.5 116.97h164.96v74.98h-164.96z" clip-rule="evenodd"/></clipPath><clipPath id="g"><path d="m0 0h2558.3v479.87h-2558.3z" clip-rule="evenodd"/></clipPath><clipPath id="f"><path d="m2282.4 116.97h242.94v74.98h-242.94z" clip-rule="evenodd"/></clipPath><clipPath id="e"><path d="m0 0h2558.3v479.87h-2558.3z" clip-rule="evenodd"/></clipPath><clipPath id="d"><path d="m95.975 116.97h116.97v74.98h-116.97z" clip-rule="evenodd"/></clipPath></defs><g transform="matrix(.32 0 0 .32 0 6.5307e-6)"><g clip-path="url(#h)"><g transform="scale(2.9992)"><path d="m256 51h30.76" fill="none" stroke="#e6e6e6" stroke-miterlimit="10"/><path d="m293.76 51-7 3.5v-7z" fill="#e6e6e6"/><path d="m293.76 51-7 3.5v-7z" fill="none" stroke="#e6e6e6" stroke-miterlimit="10"/></g><g transform="matrix(2.9992 0 0 2.9992 1.4996 1.4996)"><path d="m251 51c0 1.6376-0.0803 3.2712-0.24077 4.9009-0.16051 1.6297-0.40051 3.2476-0.72 4.8537-0.31947 1.6061-0.71689 3.1927-1.1922 4.7597-0.47535 1.567-1.0264 3.107-1.653 4.6199-0.62666 1.5129-1.326 2.9915-2.0979 4.4357-0.77194 1.4442-1.6128 2.8471-2.5226 4.2087-0.90977 1.3616-1.8841 2.6753-2.9229 3.9412-1.0389 1.2659-2.1373 2.4777-3.2952 3.6357-1.1579 1.1579-2.3698 2.2563-3.6356 3.2952-1.2659 1.0389-2.5796 2.0132-3.9412 2.923-1.3616 0.90979-2.7645 1.7507-4.2087 2.5226-1.4442 0.77194-2.9228 1.4712-4.4357 2.0979-1.5129 0.62667-3.0529 1.1777-4.6199 1.653s-3.1536 0.87277-4.7597 1.1922c-1.6061 0.31948-3.224 0.55947-4.8536 0.71999-1.6297 0.1605-3.2633 0.24075-4.9009 0.24075-1.6376 0-3.2712-0.0803-4.9008-0.24075-1.6297-0.16052-3.2476-0.40051-4.8537-0.71999-1.6061-0.31947-3.1926-0.71689-4.7597-1.1922-1.5671-0.47536-3.107-1.0264-4.62-1.653-1.5129-0.62666-2.9914-1.326-4.4356-2.0979-1.4442-0.77194-2.8471-1.6128-4.2087-2.5226-1.3616-0.90977-2.6753-1.8841-3.9412-2.923-1.2658-1.0389-2.4778-2.1373-3.6357-3.2952-1.1579-1.1579-2.2563-2.3698-3.2952-3.6357-1.0389-1.2658-2.0132-2.5796-2.923-3.9412-0.90978-1.3616-1.7506-2.7645-2.5226-4.2087s-1.4712-2.9228-2.0979-4.4357c-0.62666-1.5129-1.1777-3.0529-1.653-4.6199-0.47536-1.5671-0.87276-3.1536-1.1922-4.7597-0.31947-1.6061-0.55946-3.224-0.71997-4.8537s-0.24077-3.2633-0.24077-4.9009 0.0803-3.2712 0.24077-4.9009c0.16051-1.6297 0.4005-3.2476 0.71997-4.8537 0.31947-1.6061 0.71689-3.1927 1.1922-4.7597 0.47536-1.5671 1.0264-3.107 1.653-4.6199 0.62668-1.5129 1.326-2.9915 2.0979-4.4357 0.77194-1.4442 1.6128-2.8471 2.5226-4.2087 0.90979-1.3616 1.8841-2.6753 2.923-3.9412 1.0389-1.2659 2.1372-2.4777 3.2952-3.6357 1.1579-1.1579 2.3698-2.2563 3.6357-3.2952 1.2659-1.0389 2.5796-2.0132 3.9412-2.923 1.3616-0.90978 2.7645-1.7506 4.2087-2.5226 1.4442-0.77194 2.9228-1.4712 4.4356-2.0979 1.5129-0.62667 3.0529-1.1777 4.62-1.653 1.567-0.47536 3.1536-0.87277 4.7597-1.1922 1.6061-0.31947 3.224-0.55946 4.8537-0.71997 1.6297-0.16051 3.2633-0.24076 4.9008-0.24076 1.6376 0 3.2712 0.080254 4.9009 0.24076 1.6297 0.16051 3.2476 0.4005 4.8536 0.71997 1.6061 0.31947 3.1927 0.71689 4.7597 1.1922s3.107 1.0264 4.6199 1.653c1.5129 0.62667 2.9915 1.326 4.4357 2.0979 1.4442 0.77194 2.8471 1.6128 4.2087 2.5226 1.3616 0.90978 2.6753 1.8841 3.9412 2.923 1.2658 1.0389 2.4778 2.1373 3.6357 3.2952 1.1579 1.1579 2.2563 2.3698 3.2952 3.6357 1.0389 1.2659 2.0132 2.5796 2.9229 3.9412 0.90978 1.3616 1.7506 2.7645 2.5226 4.2087 0.77194 1.4442 1.4712 2.9228 2.0979 4.4357 0.62668 1.5129 1.1777 3.0529 1.6531 4.6199 0.47536 1.567 0.87276 3.1536 1.1922 4.7597 0.31949 1.6061 0.55949 3.224 0.72 4.8537s0.24077 3.2633 0.24077 4.9009z" fill="#a9d0fc"/><path d="m251 51c0 1.6376-0.0803 3.2712-0.24077 4.9009-0.16051 1.6297-0.40051 3.2476-0.72 4.8537-0.31947 1.6061-0.71689 3.1927-1.1922 4.7597-0.47535 1.567-1.0264 3.107-1.653 4.6199-0.62666 1.5129-1.326 2.9915-2.0979 4.4357-0.77194 1.4442-1.6128 2.8471-2.5226 4.2087-0.90977 1.3616-1.8841 2.6753-2.9229 3.9412-1.0389 1.2659-2.1373 2.4777-3.2952 3.6357-1.1579 1.1579-2.3698 2.2563-3.6356 3.2952-1.2659 1.0389-2.5796 2.0132-3.9412 2.923-1.3616 0.90979-2.7645 1.7507-4.2087 2.5226-1.4442 0.77194-2.9228 1.4712-4.4357 2.0979-1.5129 0.62667-3.0529 1.1777-4.6199 1.653s-3.1536 0.87277-4.7597 1.1922c-1.6061 0.31948-3.224 0.55947-4.8536 0.71999-1.6297 0.1605-3.2633 0.24075-4.9009 0.24075-1.6376 0-3.2712-0.0803-4.9008-0.24075-1.6297-0.16052-3.2476-0.40051-4.8537-0.71999-1.6061-0.31947-3.1926-0.71689-4.7597-1.1922-1.5671-0.47536-3.107-1.0264-4.62-1.653-1.5129-0.62666-2.9914-1.326-4.4356-2.0979-1.4442-0.77194-2.8471-1.6128-4.2087-2.5226-1.3616-0.90977-2.6753-1.8841-3.9412-2.923-1.2658-1.0389-2.4778-2.1373-3.6357-3.2952-1.1579-1.1579-2.2563-2.3698-3.2952-3.6357-1.0389-1.2658-2.0132-2.5796-2.923-3.9412-0.90978-1.3616-1.7506-2.7645-2.5226-4.2087s-1.4712-2.9228-2.0979-4.4357c-0.62666-1.5129-1.1777-3.0529-1.653-4.6199-0.47536-1.5671-0.87276-3.1536-1.1922-4.7597-0.31947-1.6061-0.55946-3.224-0.71997-4.8537s-0.24077-3.2633-0.24077-4.9009 0.0803-3.2712 0.24077-4.9009c0.16051-1.6297 0.4005-3.2476 0.71997-4.8537 0.31947-1.6061 0.71689-3.1927 1.1922-4.7597 0.47536-1.5671 1.0264-3.107 1.653-4.6199 0.62668-1.5129 1.326-2.9915 2.0979-4.4357 0.77194-1.4442 1.6128-2.8471 2.5226-4.2087 0.90979-1.3616 1.8841-2.6753 2.923-3.9412 1.0389-1.2659 2.1372-2.4777 3.2952-3.6357 1.1579-1.1579 2.3698-2.2563 3.6357-3.2952 1.2659-1.0389 2.5796-2.0132 3.9412-2.923 1.3616-0.90978 2.7645-1.7506 4.2087-2.5226 1.4442-0.77194 2.9228-1.4712 4.4356-2.0979 1.5129-0.62667 3.0529-1.1777 4.62-1.653 1.567-0.47536 3.1536-0.87277 4.7597-1.1922 1.6061-0.31947 3.224-0.55946 4.8537-0.71997 1.6297-0.16051 3.2633-0.24076 4.9008-0.24076 1.6376 0 3.2712 0.080254 4.9009 0.24076 1.6297 0.16051 3.2476 0.4005 4.8536 0.71997 1.6061 0.31947 3.1927 0.71689 4.7597 1.1922s3.107 1.0264 4.6199 1.653c1.5129 0.62667 2.9915 1.326 4.4357 2.0979 1.4442 0.77194 2.8471 1.6128 4.2087 2.5226 1.3616 0.90978 2.6753 1.8841 3.9412 2.923 1.2658 1.0389 2.4778 2.1373 3.6357 3.2952 1.1579 1.1579 2.2563 2.3698 3.2952 3.6357 1.0389 1.2659 2.0132 2.5796 2.9229 3.9412 0.90978 1.3616 1.7506 2.7645 2.5226 4.2087 0.77194 1.4442 1.4712 2.9228 2.0979 4.4357 0.62668 1.5129 1.1777 3.0529 1.6531 4.6199 0.47536 1.567 0.87276 3.1536 1.1922 4.7597 0.31949 1.6061 0.55949 3.224 0.72 4.8537s0.24077 3.2633 0.24077 4.9009z" fill="none" stroke="#87a6c9" stroke-miterlimit="10"/></g></g><g clip-path="url(#c)"><g transform="matrix(.067132 0 0 -.065245 578.85 173.84)"><path d="m231 637c-18 0-28.667 0.33331-32 1s-5 4.3333-5 11c0 18 3.6667 29 11 33 0.66667 0.66669 44 1 130 1 172.67 0 263.67-0.66669 273-2 42-6.6667 77-21.667 105-45s42.333-54 43-92c0-42.667-19.333-81-58-115s-83-57-133-69l-10-3c42.667-6 77.667-21.333 105-46s41.333-55.333 42-92c0-48.667-24-95.667-72-141-48-45.333-107-71-177-77-4.6667-0.66667-75-1-211-1-133.33 0-201 0.66667-203 2-2.6667 2-4 4.6667-4 8 0 4.6667 0.66667 9.3333 2 14 3.3333 12.667 6.6667 19.667 10 21 2.6667 0.66667 7.6667 1 15 1h6c18 0 38 1 60 3 9.3333 2 15.667 6 19 12 2 2.6667 26 95.333 72 278 46 182.67 69 279 69 289 0 4.6667-19 7.6667-57 9zm418-93c0 20-5 38.667-15 56s-26.333 28.667-49 34c-4.6667 1.3333-35.333 2.3333-92 3h-42c-14.667 0-26.333-0.33331-35-1h-13c-10-0.66669-16.333-4-19-10-1.3333-2.6667-12-42.667-32-120 0-2-0.33334-4-1-6l-31-126h81c54 0 85 0.66666 93 2 40 6.6667 75.667 26 107 58s47.333 68.667 48 110zm-54-315c0 29.333-7.6667 53.667-23 73s-35.333 30.667-60 34c-4 0.66666-31.667 1-83 1-78.667 0-118.33-0.33334-119-1 0-1.3333-5.6667-25.667-17-73s-23-94.333-35-141l-18-70c0-2.6667 4-4 12-4s35-0.66667 81-2c59.333 0 91.333 0.33333 96 1 41.333 4.6667 79.333 24 114 58 34.667 34 52 75.333 52 124z" fill="#68809c"/><path d="m231 637c-18 0-28.667 0.33331-32 1s-5 4.3333-5 11c0 18 3.6667 29 11 33 0.66667 0.66669 44 1 130 1 172.67 0 263.67-0.66669 273-2 42-6.6667 77-21.667 105-45s42.333-54 43-92c0-42.667-19.333-81-58-115s-83-57-133-69l-10-3c42.667-6 77.667-21.333 105-46s41.333-55.333 42-92c0-48.667-24-95.667-72-141-48-45.333-107-71-177-77-4.6667-0.66667-75-1-211-1-133.33 0-201 0.66667-203 2-2.6667 2-4 4.6667-4 8 0 4.6667 0.66667 9.3333 2 14 3.3333 12.667 6.6667 19.667 10 21 2.6667 0.66667 7.6667 1 15 1h6c18 0 38 1 60 3 9.3333 2 15.667 6 19 12 2 2.6667 26 95.333 72 278 46 182.67 69 279 69 289 0 4.6667-19 7.6667-57 9zm418-93c0 20-5 38.667-15 56s-26.333 28.667-49 34c-4.6667 1.3333-35.333 2.3333-92 3h-42c-14.667 0-26.333-0.33331-35-1h-13c-10-0.66669-16.333-4-19-10-1.3333-2.6667-12-42.667-32-120 0-2-0.33334-4-1-6l-31-126h81c54 0 85 0.66666 93 2 40 6.6667 75.667 26 107 58s47.333 68.667 48 110zm-54-315c0 29.333-7.6667 53.667-23 73s-35.333 30.667-60 34c-4 0.66666-31.667 1-83 1-78.667 0-118.33-0.33334-119-1 0-1.3333-5.6667-25.667-17-73s-23-94.333-35-141l-18-70c0-2.6667 4-4 12-4s35-0.66667 81-2c59.333 0 91.333 0.33333 96 1 41.333 4.6667 79.333 24 114 58 34.667 34 52 75.333 52 124z" fill="none" stroke="#68809c" stroke-miterlimit="10" stroke-opacity=".0667"/></g></g><g clip-path="url(#b)"><g transform="scale(2.9992)"><path d="m406 51h30.76" fill="none" stroke="#e6e6e6" stroke-miterlimit="10"/><path d="m443.76 51-7 3.5v-7z" fill="#e6e6e6"/><path d="m443.76 51-7 3.5v-7z" fill="none" stroke="#e6e6e6" stroke-miterlimit="10"/></g><g transform="matrix(2.9992 0 0 2.9992 1.4996 1.4996)"><path d="m401 51c3e-5 1.6376-0.0802 3.2712-0.24072 4.9009-0.16053 1.6297-0.40052 3.2476-0.72 4.8537-0.31946 1.6061-0.71689 3.1927-1.1923 4.7597-0.47538 1.567-1.0264 3.107-1.6531 4.6199-0.62665 1.5129-1.326 2.9915-2.0979 4.4357s-1.6128 2.8471-2.5226 4.2087c-0.90976 1.3616-1.884 2.6753-2.9229 3.9412-1.0388 1.2659-2.1373 2.4777-3.2952 3.6357-1.1579 1.1579-2.3698 2.2563-3.6356 3.2952-1.2658 1.0389-2.5796 2.0132-3.9412 2.923-1.3616 0.90979-2.7645 1.7507-4.2086 2.5226-1.4442 0.77194-2.9228 1.4712-4.4357 2.0979-1.5129 0.62667-3.0528 1.1777-4.6199 1.653s-3.1536 0.87277-4.7597 1.1922c-1.606 0.31948-3.2239 0.55947-4.8536 0.71999-1.6297 0.1605-3.2633 0.24075-4.9009 0.24075-1.6375 0-3.2712-0.0803-4.9008-0.24075-1.6297-0.16052-3.2476-0.40051-4.8537-0.71999-1.6061-0.31947-3.1926-0.71689-4.7597-1.1922s-3.107-1.0264-4.62-1.653c-1.5129-0.62666-2.9914-1.326-4.4357-2.0979-1.4442-0.77194-2.8471-1.6128-4.2087-2.5226-1.3616-0.90977-2.6753-1.8841-3.9411-2.923-1.2658-1.0389-2.4778-2.1373-3.6357-3.2952-1.1579-1.1579-2.2563-2.3698-3.2952-3.6357-1.0389-1.2658-2.0132-2.5796-2.923-3.9412-0.90976-1.3616-1.7506-2.7645-2.5226-4.2087s-1.4712-2.9228-2.0979-4.4357c-0.62662-1.5129-1.1776-3.0529-1.653-4.6199-0.47537-1.5671-0.87277-3.1536-1.1923-4.7597-0.31945-1.6061-0.55944-3.224-0.71994-4.8537-0.16049-1.6297-0.24075-3.2633-0.24075-4.9009s0.0803-3.2712 0.24075-4.9009c0.1605-1.6297 0.40049-3.2476 0.71994-4.8537 0.31949-1.6061 0.71689-3.1927 1.1923-4.7597 0.47538-1.5671 1.0264-3.107 1.653-4.6199 0.62668-1.5129 1.326-2.9915 2.0979-4.4357 0.77194-1.4442 1.6128-2.8471 2.5226-4.2087 0.90979-1.3616 1.8841-2.6753 2.923-3.9412s2.1372-2.4777 3.2952-3.6357c1.1579-1.1579 2.3698-2.2563 3.6357-3.2952 1.2658-1.0389 2.5796-2.0132 3.9411-2.923 1.3616-0.90978 2.7645-1.7506 4.2087-2.5226 1.4442-0.77194 2.9227-1.4712 4.4356-2.0979 1.5129-0.62667 3.0529-1.1777 4.62-1.653 1.567-0.47536 3.1536-0.87277 4.7597-1.1922 1.6061-0.31947 3.224-0.55946 4.8537-0.71997 1.6297-0.16051 3.2633-0.24076 4.9008-0.24076 1.6376 0 3.2712 0.080254 4.9009 0.24076 1.6297 0.16051 3.2476 0.4005 4.8536 0.71997 1.6061 0.31947 3.1927 0.71689 4.7597 1.1922s3.107 1.0264 4.6199 1.653c1.5129 0.62667 2.9915 1.326 4.4357 2.0979 1.4442 0.77194 2.8471 1.6128 4.2087 2.5226 1.3616 0.90978 2.6753 1.8841 3.9412 2.923 1.2658 1.0389 2.4777 2.1373 3.6356 3.2952 1.158 1.1579 2.2563 2.3698 3.2952 3.6357s2.0131 2.5796 2.9229 3.9412c0.90983 1.3616 1.7507 2.7645 2.5226 4.2087 0.77197 1.4442 1.4713 2.9228 2.0979 4.4357 0.62668 1.5129 1.1777 3.0529 1.6531 4.6199 0.47534 1.567 0.87274 3.1536 1.1922 4.7597 0.31948 1.6061 0.55947 3.224 0.72 4.8537 0.16052 1.6297 0.24078 3.2633 0.24075 4.9009z" fill="none" stroke="#e6e6e6" stroke-miterlimit="10"/></g></g><g clip-path="url(#a)"><g transform="matrix(.064343 0 0 -.065365 995.77 170.9)"><path d="m118-250v1e3h137v-40h-97v-920h97v-40z" fill="#e6e6e6"/><path d="m118-250v1e3h137v-40h-97v-920h97v-40z" fill="none" stroke="#e6e6e6" stroke-miterlimit="10" stroke-opacity=".0667"/></g><g transform="matrix(.064343 0 0 -.065365 1013.7 170.9)"><path d="m109 429c-18 0-32.333 6-43 18-10.667 12-16 26.667-16 44 0 47.333 17.667 88.333 53 123 35.333 34.667 79.333 52 132 52 60.667 0 111.33-18.667 152-56s61.333-85.667 62-145c0-28.667-6.6667-56-20-82s-29.333-48.667-48-68-45.333-44-80-74c-24-20.667-57.333-51.333-100-92l-59-56 76-1c104.67 0 160.33 1.6667 167 5 4.6667 1.3333 12.667 31 24 89v3h40v-3c-0.66666-2-5-32.333-13-91-8-58.667-13-89.333-15-92v-3h-371v31c0 4.6667 2 9.6667 6 15s14 17 30 35c19.333 21.333 36 40 50 56 6 6.6667 17.333 19 34 37s28 30.333 34 37 15.667 17.667 29 33c13.333 15.333 22.667 26.667 28 34 5.3333 7.3333 13 17.333 23 30s17 23.333 21 32 9 18.333 15 29 10.333 21.333 13 32 5 20.667 7 30 3 20.333 3 33c0 42-11.333 78.333-34 109s-55 46-97 46c-22 0-41.333-5.6667-58-17s-28.333-22.333-35-33-10-17-10-19c0-0.66669 1.6667-1 5-1 12 0 24.333-4.6667 37-14s19-24.667 19-46c0-16.667-5.3333-30.667-16-42s-25.667-17.333-45-18z" fill="#e6e6e6"/><path d="m109 429c-18 0-32.333 6-43 18-10.667 12-16 26.667-16 44 0 47.333 17.667 88.333 53 123 35.333 34.667 79.333 52 132 52 60.667 0 111.33-18.667 152-56s61.333-85.667 62-145c0-28.667-6.6667-56-20-82s-29.333-48.667-48-68-45.333-44-80-74c-24-20.667-57.333-51.333-100-92l-59-56 76-1c104.67 0 160.33 1.6667 167 5 4.6667 1.3333 12.667 31 24 89v3h40v-3c-0.66666-2-5-32.333-13-91-8-58.667-13-89.333-15-92v-3h-371v31c0 4.6667 2 9.6667 6 15s14 17 30 35c19.333 21.333 36 40 50 56 6 6.6667 17.333 19 34 37s28 30.333 34 37 15.667 17.667 29 33c13.333 15.333 22.667 26.667 28 34 5.3333 7.3333 13 17.333 23 30s17 23.333 21 32 9 18.333 15 29 10.333 21.333 13 32 5 20.667 7 30 3 20.333 3 33c0 42-11.333 78.333-34 109s-55 46-97 46c-22 0-41.333-5.6667-58-17s-28.333-22.333-35-33-10-17-10-19c0-0.66669 1.6667-1 5-1 12 0 24.333-4.6667 37-14s19-24.667 19-46c0-16.667-5.3333-30.667-16-42s-25.667-17.333-45-18z" fill="none" stroke="#e6e6e6" stroke-miterlimit="10" stroke-opacity=".0667"/></g><g transform="matrix(.064343 0 0 -.065365 1045.9 170.9)"><path d="m22 710v40h137v-1e3h-137v40h97v920z" fill="#e6e6e6"/><path d="m22 710v40h137v-1e3h-137v40h97v920z" fill="none" stroke="#e6e6e6" stroke-miterlimit="10" stroke-opacity=".0667"/></g><g transform="matrix(.064343 0 0 -.065365 1063.8 170.9)"><path d="m231 637c-18 0-28.667 0.33331-32 1s-5 4.3333-5 11c0 18 3.6667 29 11 33 0.66667 0.66669 44 1 130 1 172.67 0 263.67-0.66669 273-2 42-6.6667 77-21.667 105-45s42.333-54 43-92c0-42.667-19.333-81-58-115s-83-57-133-69l-10-3c42.667-6 77.667-21.333 105-46s41.333-55.333 42-92c0-48.667-24-95.667-72-141-48-45.333-107-71-177-77-4.6667-0.66667-75-1-211-1-133.33 0-201 0.66667-203 2-2.6667 2-4 4.6667-4 8 0 4.6667 0.66667 9.3333 2 14 3.3333 12.667 6.6667 19.667 10 21 2.6667 0.66667 7.6667 1 15 1h6c18 0 38 1 60 3 9.3333 2 15.667 6 19 12 2 2.6667 26 95.333 72 278 46 182.67 69 279 69 289 0 4.6667-19 7.6667-57 9zm418-93c0 20-5 38.667-15 56s-26.333 28.667-49 34c-4.6667 1.3333-35.333 2.3333-92 3h-42c-14.667 0-26.333-0.33331-35-1h-13c-10-0.66669-16.333-4-19-10-1.3333-2.6667-12-42.667-32-120 0-2-0.33334-4-1-6l-31-126h81c54 0 85 0.66666 93 2 40 6.6667 75.667 26 107 58s47.333 68.667 48 110zm-54-315c0 29.333-7.6667 53.667-23 73s-35.333 30.667-60 34c-4 0.66666-31.667 1-83 1-78.667 0-118.33-0.33334-119-1 0-1.3333-5.6667-25.667-17-73s-23-94.333-35-141l-18-70c0-2.6667 4-4 12-4s35-0.66667 81-2c59.333 0 91.333 0.33333 96 1 41.333 4.6667 79.333 24 114 58 34.667 34 52 75.333 52 124z" fill="#e6e6e6"/><path d="m231 637c-18 0-28.667 0.33331-32 1s-5 4.3333-5 11c0 18 3.6667 29 11 33 0.66667 0.66669 44 1 130 1 172.67 0 263.67-0.66669 273-2 42-6.6667 77-21.667 105-45s42.333-54 43-92c0-42.667-19.333-81-58-115s-83-57-133-69l-10-3c42.667-6 77.667-21.333 105-46s41.333-55.333 42-92c0-48.667-24-95.667-72-141-48-45.333-107-71-177-77-4.6667-0.66667-75-1-211-1-133.33 0-201 0.66667-203 2-2.6667 2-4 4.6667-4 8 0 4.6667 0.66667 9.3333 2 14 3.3333 12.667 6.6667 19.667 10 21 2.6667 0.66667 7.6667 1 15 1h6c18 0 38 1 60 3 9.3333 2 15.667 6 19 12 2 2.6667 26 95.333 72 278 46 182.67 69 279 69 289 0 4.6667-19 7.6667-57 9zm418-93c0 20-5 38.667-15 56s-26.333 28.667-49 34c-4.6667 1.3333-35.333 2.3333-92 3h-42c-14.667 0-26.333-0.33331-35-1h-13c-10-0.66669-16.333-4-19-10-1.3333-2.6667-12-42.667-32-120 0-2-0.33334-4-1-6l-31-126h81c54 0 85 0.66666 93 2 40 6.6667 75.667 26 107 58s47.333 68.667 48 110zm-54-315c0 29.333-7.6667 53.667-23 73s-35.333 30.667-60 34c-4 0.66666-31.667 1-83 1-78.667 0-118.33-0.33334-119-1 0-1.3333-5.6667-25.667-17-73s-23-94.333-35-141l-18-70c0-2.6667 4-4 12-4s35-0.66667 81-2c59.333 0 91.333 0.33333 96 1 41.333 4.6667 79.333 24 114 58 34.667 34 52 75.333 52 124z" fill="none" stroke="#e6e6e6" stroke-miterlimit="10" stroke-opacity=".0667"/></g></g><g clip-path="url(#l)"><g transform="scale(2.9992)"><path d="m556 51h30.76" fill="none" stroke="#e6e6e6" stroke-miterlimit="10"/><path d="m593.76 51-7 3.5v-7z" fill="#e6e6e6"/><path d="m593.76 51-7 3.5v-7z" fill="none" stroke="#e6e6e6" stroke-miterlimit="10"/></g><g transform="matrix(2.9992 0 0 2.9992 1.4996 1.4996)"><path d="m551 51c0 1.6376-0.0803 3.2712-0.24078 4.9009-0.16047 1.6297-0.40046 3.2476-0.71997 4.8537-0.31946 1.6061-0.71686 3.1927-1.1923 4.7597-0.47534 1.567-1.0264 3.107-1.6531 4.6199-0.62665 1.5129-1.3259 2.9915-2.0978 4.4357-0.77197 1.4442-1.6128 2.8471-2.5226 4.2087-0.90979 1.3616-1.8841 2.6753-2.923 3.9412-1.0388 1.2659-2.1372 2.4777-3.2952 3.6357-1.158 1.1579-2.3699 2.2563-3.6357 3.2952-1.2659 1.0389-2.5796 2.0132-3.9412 2.923-1.3615 0.90979-2.7644 1.7507-4.2086 2.5226-1.4442 0.77194-2.9227 1.4712-4.4357 2.0979-1.5129 0.62667-3.0528 1.1777-4.6199 1.653-1.567 0.47536-3.1536 0.87277-4.7597 1.1922-1.606 0.31948-3.2239 0.55947-4.8536 0.71999-1.6297 0.1605-3.2633 0.24075-4.9008 0.24075-1.6375 0-3.2712-0.0803-4.9008-0.24075-1.6297-0.16052-3.2476-0.40051-4.8537-0.71999-1.6061-0.31947-3.1926-0.71689-4.7597-1.1922s-3.1071-1.0264-4.62-1.653c-1.5129-0.62666-2.9914-1.326-4.4356-2.0979-1.4442-0.77194-2.8471-1.6128-4.2087-2.5226-1.3616-0.90977-2.6753-1.8841-3.9411-2.923-1.2658-1.0389-2.4778-2.1373-3.6357-3.2952-1.1579-1.1579-2.2563-2.3698-3.2952-3.6357-1.0389-1.2658-2.0132-2.5796-2.923-3.9412-0.90976-1.3616-1.7506-2.7645-2.5226-4.2087s-1.4712-2.9228-2.0979-4.4357c-0.62662-1.5129-1.1776-3.0529-1.653-4.6199-0.47537-1.5671-0.8728-3.1536-1.1923-4.7597-0.31945-1.6061-0.55944-3.224-0.71994-4.8537-0.16049-1.6297-0.24075-3.2633-0.24075-4.9009s0.0803-3.2712 0.24075-4.9009c0.1605-1.6297 0.40049-3.2476 0.71994-4.8537 0.31949-1.6061 0.71692-3.1927 1.1923-4.7597 0.47538-1.5671 1.0264-3.107 1.653-4.6199 0.62668-1.5129 1.326-2.9915 2.0979-4.4357 0.77194-1.4442 1.6128-2.8471 2.5226-4.2087 0.90979-1.3616 1.8841-2.6753 2.923-3.9412s2.1372-2.4777 3.2952-3.6357c1.1579-1.1579 2.3698-2.2563 3.6357-3.2952 1.2658-1.0389 2.5796-2.0132 3.9411-2.923 1.3616-0.90978 2.7645-1.7506 4.2087-2.5226 1.4442-0.77194 2.9228-1.4712 4.4356-2.0979 1.5129-0.62667 3.0529-1.1777 4.62-1.653 1.567-0.47536 3.1536-0.87277 4.7597-1.1922 1.6061-0.31947 3.224-0.55946 4.8537-0.71997 1.6297-0.16051 3.2633-0.24076 4.9008-0.24076 1.6376 0 3.2712 0.080254 4.9008 0.24076 1.6297 0.16051 3.2476 0.4005 4.8536 0.71997 1.6061 0.31947 3.1927 0.71689 4.7597 1.1922 1.5671 0.47536 3.1071 1.0264 4.6199 1.653 1.5129 0.62667 2.9915 1.326 4.4357 2.0979 1.4442 0.77194 2.8471 1.6128 4.2086 2.5226 1.3616 0.90978 2.6754 1.8841 3.9412 2.923 1.2658 1.0389 2.4777 2.1373 3.6357 3.2952 1.158 1.1579 2.2563 2.3698 3.2952 3.6357 1.0388 1.2659 2.0131 2.5796 2.9229 3.9412 0.90985 1.3616 1.7507 2.7645 2.5227 4.2087 0.77191 1.4442 1.4712 2.9228 2.0978 4.4357 0.62671 1.5129 1.1777 3.0529 1.6531 4.6199 0.4754 1.567 0.8728 3.1536 1.1922 4.7597 0.31951 1.6061 0.5595 3.224 0.71997 4.8537 0.16052 1.6297 0.24078 3.2633 0.24078 4.9009z" fill="none" stroke="#e6e6e6" stroke-miterlimit="10"/></g></g><g clip-path="url(#k)"><g transform="matrix(.064343 0 0 -.065365 1445.7 170.9)"><path d="m118-250v1e3h137v-40h-97v-920h97v-40z" fill="#e6e6e6"/><path d="m118-250v1e3h137v-40h-97v-920h97v-40z" fill="none" stroke="#e6e6e6" stroke-miterlimit="10" stroke-opacity=".0667"/></g><g transform="matrix(.064343 0 0 -.065365 1463.5 170.9)"><path d="m127 463c-18 0-32 5.6667-42 17s-15.333 26-16 44c0 36.667 16 69.333 48 98s70.667 43 116 43c23.333 0 38-0.33331 44-1 49.333-8 87-25.667 113-53s39.333-57 40-89c0-34.667-11.333-68.333-34-101s-54-56.333-94-71l-3-2c0-0.66666 3-1.6667 9-3s15.667-4.3333 29-9 26-11.667 38-21c54.667-35.333 82-82 82-140 0-52.667-20.667-98.667-62-138-41.333-39.333-93.667-59-157-59-53.333 0-99.333 14.333-138 43-38.667 28.667-58 65-58 109 0 18.667 6 33.667 18 45s27 17.333 45 18c18.667 0 34-6 46-18s18-27 18-45c0-7.3333-1-14-3-20s-4.3333-11.333-7-16-6.3333-8.6667-11-12-8.6667-6-12-8-6.6667-3.3333-10-4c-3.3333-0.66666-6-1.6667-8-3l-4-1c34-30 75.333-45 124-45 36.667 0 64.333 17.667 83 53 11.333 22 17 55.667 17 101v20c0 63.333-21.333 105.67-64 127-10 4-30.333 6.3333-61 7l-42 1-3 2c-1.3333 2-2 7.3333-2 16 0 12 2.6667 18 8 18 18.667 0 38 1.6667 58 5 22.667 3.3333 43.333 17.333 62 42s28 62 28 112v8c0 38-11.667 64.333-35 79-14.667 9.3333-30.333 14-47 14-21.333 0-41-3.6667-59-11s-30.667-15-38-23-11-12-11-12h3c2-0.66669 4.6667-1.3333 8-2s6.6667-2.3333 10-5 7.3333-5 12-7 8-5.6667 10-11 4.6667-10.333 8-15 4.3333-11.333 3-20c0-14.667-4.6667-27.667-14-39s-24.333-17.333-45-18z" fill="#e6e6e6"/><path d="m127 463c-18 0-32 5.6667-42 17s-15.333 26-16 44c0 36.667 16 69.333 48 98s70.667 43 116 43c23.333 0 38-0.33331 44-1 49.333-8 87-25.667 113-53s39.333-57 40-89c0-34.667-11.333-68.333-34-101s-54-56.333-94-71l-3-2c0-0.66666 3-1.6667 9-3s15.667-4.3333 29-9 26-11.667 38-21c54.667-35.333 82-82 82-140 0-52.667-20.667-98.667-62-138-41.333-39.333-93.667-59-157-59-53.333 0-99.333 14.333-138 43-38.667 28.667-58 65-58 109 0 18.667 6 33.667 18 45s27 17.333 45 18c18.667 0 34-6 46-18s18-27 18-45c0-7.3333-1-14-3-20s-4.3333-11.333-7-16-6.3333-8.6667-11-12-8.6667-6-12-8-6.6667-3.3333-10-4c-3.3333-0.66666-6-1.6667-8-3l-4-1c34-30 75.333-45 124-45 36.667 0 64.333 17.667 83 53 11.333 22 17 55.667 17 101v20c0 63.333-21.333 105.67-64 127-10 4-30.333 6.3333-61 7l-42 1-3 2c-1.3333 2-2 7.3333-2 16 0 12 2.6667 18 8 18 18.667 0 38 1.6667 58 5 22.667 3.3333 43.333 17.333 62 42s28 62 28 112v8c0 38-11.667 64.333-35 79-14.667 9.3333-30.333 14-47 14-21.333 0-41-3.6667-59-11s-30.667-15-38-23-11-12-11-12h3c2-0.66669 4.6667-1.3333 8-2s6.6667-2.3333 10-5 7.3333-5 12-7 8-5.6667 10-11 4.6667-10.333 8-15 4.3333-11.333 3-20c0-14.667-4.6667-27.667-14-39s-24.333-17.333-45-18z" fill="none" stroke="#e6e6e6" stroke-miterlimit="10" stroke-opacity=".0667"/></g><g transform="matrix(.064343 0 0 -.065365 1495.8 170.9)"><path d="m22 710v40h137v-1e3h-137v40h97v920z" fill="#e6e6e6"/><path d="m22 710v40h137v-1e3h-137v40h97v920z" fill="none" stroke="#e6e6e6" stroke-miterlimit="10" stroke-opacity=".0667"/></g><g transform="matrix(.064343 0 0 -.065365 1513.7 170.9)"><path d="m231 637c-18 0-28.667 0.33331-32 1s-5 4.3333-5 11c0 18 3.6667 29 11 33 0.66667 0.66669 44 1 130 1 172.67 0 263.67-0.66669 273-2 42-6.6667 77-21.667 105-45s42.333-54 43-92c0-42.667-19.333-81-58-115s-83-57-133-69l-10-3c42.667-6 77.667-21.333 105-46s41.333-55.333 42-92c0-48.667-24-95.667-72-141-48-45.333-107-71-177-77-4.6667-0.66667-75-1-211-1-133.33 0-201 0.66667-203 2-2.6667 2-4 4.6667-4 8 0 4.6667 0.66667 9.3333 2 14 3.3333 12.667 6.6667 19.667 10 21 2.6667 0.66667 7.6667 1 15 1h6c18 0 38 1 60 3 9.3333 2 15.667 6 19 12 2 2.6667 26 95.333 72 278 46 182.67 69 279 69 289 0 4.6667-19 7.6667-57 9zm418-93c0 20-5 38.667-15 56s-26.333 28.667-49 34c-4.6667 1.3333-35.333 2.3333-92 3h-42c-14.667 0-26.333-0.33331-35-1h-13c-10-0.66669-16.333-4-19-10-1.3333-2.6667-12-42.667-32-120 0-2-0.33334-4-1-6l-31-126h81c54 0 85 0.66666 93 2 40 6.6667 75.667 26 107 58s47.333 68.667 48 110zm-54-315c0 29.333-7.6667 53.667-23 73s-35.333 30.667-60 34c-4 0.66666-31.667 1-83 1-78.667 0-118.33-0.33334-119-1 0-1.3333-5.6667-25.667-17-73s-23-94.333-35-141l-18-70c0-2.6667 4-4 12-4s35-0.66667 81-2c59.333 0 91.333 0.33333 96 1 41.333 4.6667 79.333 24 114 58 34.667 34 52 75.333 52 124z" fill="#e6e6e6"/><path d="m231 637c-18 0-28.667 0.33331-32 1s-5 4.3333-5 11c0 18 3.6667 29 11 33 0.66667 0.66669 44 1 130 1 172.67 0 263.67-0.66669 273-2 42-6.6667 77-21.667 105-45s42.333-54 43-92c0-42.667-19.333-81-58-115s-83-57-133-69l-10-3c42.667-6 77.667-21.333 105-46s41.333-55.333 42-92c0-48.667-24-95.667-72-141-48-45.333-107-71-177-77-4.6667-0.66667-75-1-211-1-133.33 0-201 0.66667-203 2-2.6667 2-4 4.6667-4 8 0 4.6667 0.66667 9.3333 2 14 3.3333 12.667 6.6667 19.667 10 21 2.6667 0.66667 7.6667 1 15 1h6c18 0 38 1 60 3 9.3333 2 15.667 6 19 12 2 2.6667 26 95.333 72 278 46 182.67 69 279 69 289 0 4.6667-19 7.6667-57 9zm418-93c0 20-5 38.667-15 56s-26.333 28.667-49 34c-4.6667 1.3333-35.333 2.3333-92 3h-42c-14.667 0-26.333-0.33331-35-1h-13c-10-0.66669-16.333-4-19-10-1.3333-2.6667-12-42.667-32-120 0-2-0.33334-4-1-6l-31-126h81c54 0 85 0.66666 93 2 40 6.6667 75.667 26 107 58s47.333 68.667 48 110zm-54-315c0 29.333-7.6667 53.667-23 73s-35.333 30.667-60 34c-4 0.66666-31.667 1-83 1-78.667 0-118.33-0.33334-119-1 0-1.3333-5.6667-25.667-17-73s-23-94.333-35-141l-18-70c0-2.6667 4-4 12-4s35-0.66667 81-2c59.333 0 91.333 0.33333 96 1 41.333 4.6667 79.333 24 114 58 34.667 34 52 75.333 52 124z" fill="none" stroke="#e6e6e6" stroke-miterlimit="10" stroke-opacity=".0667"/></g></g><g clip-path="url(#j)"><g transform="scale(2.9992)"><path d="m706 51h30.76" fill="none" stroke="#e6e6e6" stroke-miterlimit="10"/><path d="m743.76 51-7 3.5v-7z" fill="#e6e6e6"/><path d="m743.76 51-7 3.5v-7z" fill="none" stroke="#e6e6e6" stroke-miterlimit="10"/></g><g transform="matrix(2.9992 0 0 2.9992 1.4996 1.4996)"><path d="m701 51c6e-5 1.6376-0.0802 3.2712-0.24072 4.9009-0.16046 1.6297-0.40052 3.2476-0.72003 4.8537-0.31946 1.6061-0.71686 3.1927-1.1923 4.7597-0.47534 1.567-1.0264 3.107-1.6531 4.6199-0.62665 1.5129-1.3259 2.9915-2.0978 4.4357-0.77197 1.4442-1.6128 2.8471-2.5226 4.2087-0.90973 1.3616-1.8841 2.6753-2.923 3.9412-1.0388 1.2659-2.1372 2.4777-3.2952 3.6357-1.1579 1.1579-2.3698 2.2563-3.6356 3.2952-1.2659 1.0389-2.5797 2.0132-3.9413 2.923-1.3615 0.90979-2.7644 1.7507-4.2086 2.5226-1.4442 0.77194-2.9227 1.4712-4.4357 2.0979-1.5129 0.62667-3.0528 1.1777-4.6199 1.653s-3.1536 0.87277-4.7597 1.1922c-1.6061 0.31948-3.2239 0.55947-4.8536 0.71999-1.6297 0.1605-3.2633 0.24075-4.9009 0.24075-1.6375 0-3.2712-0.0803-4.9009-0.24075-1.6297-0.16052-3.2476-0.40051-4.8537-0.71999-1.606-0.31947-3.1926-0.71689-4.7597-1.1922-1.567-0.47536-3.107-1.0264-4.6199-1.653-1.5129-0.62666-2.9914-1.326-4.4356-2.0979-1.4442-0.77194-2.8471-1.6128-4.2087-2.5226-1.3615-0.90977-2.6752-1.8841-3.9412-2.923-1.2658-1.0389-2.4777-2.1373-3.6357-3.2952-1.1579-1.1579-2.2563-2.3698-3.2952-3.6357-1.0389-1.2658-2.0132-2.5796-2.923-3.9412-0.90979-1.3616-1.7507-2.7645-2.5226-4.2087-0.77197-1.4442-1.4713-2.9228-2.098-4.4357s-1.1776-3.0529-1.653-4.6199c-0.47528-1.5671-0.87268-3.1536-1.1922-4.7597-0.31951-1.6061-0.5595-3.224-0.71997-4.8537-0.16052-1.6297-0.24078-3.2633-0.24078-4.9009s0.0803-3.2712 0.24078-4.9009c0.16047-1.6297 0.40046-3.2476 0.71997-4.8537 0.31952-1.6061 0.71692-3.1927 1.1922-4.7597 0.47541-1.5671 1.0264-3.107 1.653-4.6199 0.62665-1.5129 1.326-2.9915 2.098-4.4357 0.77191-1.4442 1.6128-2.8471 2.5226-4.2087 0.90973-1.3616 1.8841-2.6753 2.923-3.9412s2.1373-2.4777 3.2952-3.6357c1.158-1.1579 2.3699-2.2563 3.6357-3.2952 1.2659-1.0389 2.5796-2.0132 3.9411-2.923 1.3616-0.90978 2.7645-1.7506 4.2087-2.5226 1.4442-0.77194 2.9227-1.4712 4.4356-2.0979 1.5129-0.62667 3.0529-1.1777 4.6199-1.653 1.5671-0.47536 3.1537-0.87277 4.7597-1.1922 1.6061-0.31947 3.224-0.55946 4.8537-0.71997 1.6297-0.16051 3.2634-0.24076 4.9009-0.24076 1.6376 0 3.2712 0.080254 4.9009 0.24076 1.6296 0.16051 3.2475 0.4005 4.8536 0.71997 1.6061 0.31947 3.1926 0.71689 4.7597 1.1922s3.1071 1.0264 4.6199 1.653c1.5129 0.62667 2.9915 1.326 4.4357 2.0979 1.4442 0.77194 2.8471 1.6128 4.2086 2.5226 1.3616 0.90978 2.6754 1.8841 3.9413 2.923 1.2659 1.0389 2.4777 2.1373 3.6356 3.2952 1.158 1.1579 2.2563 2.3698 3.2952 3.6357s2.0132 2.5796 2.9229 3.9412c0.90979 1.3616 1.7507 2.7645 2.5226 4.2087 0.77197 1.4442 1.4712 2.9228 2.0979 4.4357 0.62671 1.5129 1.1777 3.0529 1.6531 4.6199 0.47534 1.567 0.87274 3.1536 1.1922 4.7597 0.31951 1.6061 0.55957 3.224 0.72003 4.8537 0.16052 1.6297 0.24078 3.2633 0.24072 4.9009z" fill="none" stroke="#e6e6e6" stroke-miterlimit="10"/></g></g><g clip-path="url(#i)"><g transform="matrix(.066244 0 0 -.065365 1871.6 170.9)"><path d="m118-250v1e3h137v-40h-97v-920h97v-40z" fill="#e6e6e6"/><path d="m118-250v1e3h137v-40h-97v-920h97v-40z" fill="none" stroke="#e6e6e6" stroke-miterlimit="10" stroke-opacity=".0667"/></g><g transform="matrix(.066244 0 0 -.065365 1890 170.9)"><path d="m78 60c0 16 5.6667 30 17 42 11.333 12 25.667 18 43 18 16 0 30-5.3333 42-16 12-10.667 18.333-25 19-43 0-16.667-5.6667-31-17-43s-25.667-18-43-18c-17.333 0-31.667 5.6667-43 17-11.333 11.333-17.333 25.667-18 43zm447 0c0 16 5.6667 30 17 42s25.667 18 43 18c16 0 30-5.3333 42-16 12-10.667 18.333-25 19-43 0-16.667-5.6667-31-17-43s-25.667-18-43-18-31.667 5.6667-43 17-17.333 25.667-18 43zm447 0c0 16 5.6667 30 17 42 11.333 12 25.667 18 43 18 16 0 30-5.3333 42-16 12-10.667 18.333-25 19-43 0-16.667-5.6666-31-17-43s-25.667-18-43-18c-17.333 0-31.667 5.6667-43 17-11.333 11.333-17.333 25.667-18 43z" fill="#e6e6e6"/><path d="m78 60c0 16 5.6667 30 17 42 11.333 12 25.667 18 43 18 16 0 30-5.3333 42-16 12-10.667 18.333-25 19-43 0-16.667-5.6667-31-17-43s-25.667-18-43-18c-17.333 0-31.667 5.6667-43 17-11.333 11.333-17.333 25.667-18 43zm447 0c0 16 5.6667 30 17 42s25.667 18 43 18c16 0 30-5.3333 42-16 12-10.667 18.333-25 19-43 0-16.667-5.6667-31-17-43s-25.667-18-43-18-31.667 5.6667-43 17-17.333 25.667-18 43zm447 0c0 16 5.6667 30 17 42 11.333 12 25.667 18 43 18 16 0 30-5.3333 42-16 12-10.667 18.333-25 19-43 0-16.667-5.6666-31-17-43s-25.667-18-43-18c-17.333 0-31.667 5.6667-43 17-11.333 11.333-17.333 25.667-18 43z" fill="none" stroke="#e6e6e6" stroke-miterlimit="10" stroke-opacity=".0667"/></g><g transform="matrix(.066244 0 0 -.065365 1967.7 170.9)"><path d="m22 710v40h137v-1e3h-137v40h97v920z" fill="#e6e6e6"/><path d="m22 710v40h137v-1e3h-137v40h97v920z" fill="none" stroke="#e6e6e6" stroke-miterlimit="10" stroke-opacity=".0667"/></g><g transform="matrix(.066244 0 0 -.065365 1986.1 170.9)"><path d="m231 637c-18 0-28.667 0.33331-32 1s-5 4.3333-5 11c0 18 3.6667 29 11 33 0.66667 0.66669 44 1 130 1 172.67 0 263.67-0.66669 273-2 42-6.6667 77-21.667 105-45s42.333-54 43-92c0-42.667-19.333-81-58-115s-83-57-133-69l-10-3c42.667-6 77.667-21.333 105-46s41.333-55.333 42-92c0-48.667-24-95.667-72-141-48-45.333-107-71-177-77-4.6667-0.66667-75-1-211-1-133.33 0-201 0.66667-203 2-2.6667 2-4 4.6667-4 8 0 4.6667 0.66667 9.3333 2 14 3.3333 12.667 6.6667 19.667 10 21 2.6667 0.66667 7.6667 1 15 1h6c18 0 38 1 60 3 9.3333 2 15.667 6 19 12 2 2.6667 26 95.333 72 278 46 182.67 69 279 69 289 0 4.6667-19 7.6667-57 9zm418-93c0 20-5 38.667-15 56s-26.333 28.667-49 34c-4.6667 1.3333-35.333 2.3333-92 3h-42c-14.667 0-26.333-0.33331-35-1h-13c-10-0.66669-16.333-4-19-10-1.3333-2.6667-12-42.667-32-120 0-2-0.33334-4-1-6l-31-126h81c54 0 85 0.66666 93 2 40 6.6667 75.667 26 107 58s47.333 68.667 48 110zm-54-315c0 29.333-7.6667 53.667-23 73s-35.333 30.667-60 34c-4 0.66666-31.667 1-83 1-78.667 0-118.33-0.33334-119-1 0-1.3333-5.6667-25.667-17-73s-23-94.333-35-141l-18-70c0-2.6667 4-4 12-4s35-0.66667 81-2c59.333 0 91.333 0.33333 96 1 41.333 4.6667 79.333 24 114 58 34.667 34 52 75.333 52 124z" fill="#e6e6e6"/><path d="m231 637c-18 0-28.667 0.33331-32 1s-5 4.3333-5 11c0 18 3.6667 29 11 33 0.66667 0.66669 44 1 130 1 172.67 0 263.67-0.66669 273-2 42-6.6667 77-21.667 105-45s42.333-54 43-92c0-42.667-19.333-81-58-115s-83-57-133-69l-10-3c42.667-6 77.667-21.333 105-46s41.333-55.333 42-92c0-48.667-24-95.667-72-141-48-45.333-107-71-177-77-4.6667-0.66667-75-1-211-1-133.33 0-201 0.66667-203 2-2.6667 2-4 4.6667-4 8 0 4.6667 0.66667 9.3333 2 14 3.3333 12.667 6.6667 19.667 10 21 2.6667 0.66667 7.6667 1 15 1h6c18 0 38 1 60 3 9.3333 2 15.667 6 19 12 2 2.6667 26 95.333 72 278 46 182.67 69 279 69 289 0 4.6667-19 7.6667-57 9zm418-93c0 20-5 38.667-15 56s-26.333 28.667-49 34c-4.6667 1.3333-35.333 2.3333-92 3h-42c-14.667 0-26.333-0.33331-35-1h-13c-10-0.66669-16.333-4-19-10-1.3333-2.6667-12-42.667-32-120 0-2-0.33334-4-1-6l-31-126h81c54 0 85 0.66666 93 2 40 6.6667 75.667 26 107 58s47.333 68.667 48 110zm-54-315c0 29.333-7.6667 53.667-23 73s-35.333 30.667-60 34c-4 0.66666-31.667 1-83 1-78.667 0-118.33-0.33334-119-1 0-1.3333-5.6667-25.667-17-73s-23-94.333-35-141l-18-70c0-2.6667 4-4 12-4s35-0.66667 81-2c59.333 0 91.333 0.33333 96 1 41.333 4.6667 79.333 24 114 58 34.667 34 52 75.333 52 124z" fill="none" stroke="#e6e6e6" stroke-miterlimit="10" stroke-opacity=".0667"/></g></g><g clip-path="url(#g)"><g transform="scale(2.9992)"><path d="m801 106v45h-750v-35.76" fill="none" stroke="#e6e6e6" stroke-miterlimit="10"/><path d="m51 108.24 3.5 7h-7z" fill="#e6e6e6"/><path d="m51 108.24 3.5 7h-7z" fill="none" stroke="#e6e6e6" stroke-miterlimit="10"/></g><g transform="matrix(2.9992 0 0 2.9992 1.4996 1.4996)"><path d="m851 51c0 1.6376-0.0803 3.2712-0.24078 4.9009-0.16047 1.6297-0.40052 3.2476-0.72004 4.8537-0.31945 1.6061-0.71685 3.1927-1.1922 4.7597-0.4754 1.567-1.0264 3.107-1.6531 4.6199-0.62665 1.5129-1.3259 2.9915-2.0978 4.4357-0.77197 1.4442-1.6129 2.8471-2.5226 4.2087-0.90972 1.3616-1.884 2.6753-2.9229 3.9412-1.0389 1.2659-2.1373 2.4777-3.2952 3.6357-1.1579 1.1579-2.3698 2.2563-3.6356 3.2952-1.2659 1.0389-2.5796 2.0132-3.9413 2.923-1.3615 0.90979-2.7644 1.7507-4.2086 2.5226-1.4442 0.77194-2.9227 1.4712-4.4357 2.0979-1.5129 0.62667-3.0528 1.1777-4.6199 1.653-1.5671 0.47536-3.1537 0.87277-4.7598 1.1922-1.6061 0.31948-3.2239 0.55947-4.8536 0.71999-1.6296 0.1605-3.2632 0.24075-4.9008 0.24075-1.6375 0-3.2711-0.0803-4.9008-0.24075-1.6297-0.16052-3.2476-0.40051-4.8538-0.71999-1.6061-0.31947-3.1926-0.71689-4.7597-1.1922s-3.1071-1.0264-4.62-1.653c-1.5129-0.62666-2.9914-1.326-4.4357-2.0979-1.4442-0.77194-2.8471-1.6128-4.2087-2.5226-1.3615-0.90977-2.6752-1.8841-3.941-2.923-1.2658-1.0389-2.4777-2.1373-3.6357-3.2952-1.158-1.1579-2.2564-2.3698-3.2952-3.6357-1.0389-1.2658-2.0132-2.5796-2.923-3.9412-0.90973-1.3616-1.7506-2.7645-2.5225-4.2087-0.77197-1.4442-1.4713-2.9228-2.098-4.4357s-1.1776-3.0529-1.653-4.6199c-0.47528-1.5671-0.87268-3.1536-1.1922-4.7597-0.31945-1.6061-0.55944-3.224-0.71991-4.8537-0.16052-1.6297-0.24078-3.2633-0.24078-4.9009s0.0803-3.2712 0.24078-4.9009c0.16047-1.6297 0.40046-3.2476 0.71991-4.8537 0.31952-1.6061 0.71692-3.1927 1.1922-4.7597 0.47541-1.5671 1.0264-3.107 1.653-4.6199 0.62665-1.5129 1.326-2.9915 2.0979-4.4357 0.77197-1.4442 1.6128-2.8471 2.5226-4.2087 0.90985-1.3616 1.8842-2.6753 2.923-3.9412 1.0389-1.2659 2.1373-2.4777 3.2952-3.6357 1.158-1.1579 2.3699-2.2563 3.6357-3.2952 1.2658-1.0389 2.5795-2.0132 3.9411-2.923 1.3616-0.90978 2.7645-1.7506 4.2087-2.5226 1.4442-0.77194 2.9227-1.4712 4.4356-2.0979 1.5129-0.62667 3.0529-1.1777 4.62-1.653 1.5671-0.47536 3.1536-0.87277 4.7597-1.1922 1.6061-0.31947 3.2241-0.55946 4.8538-0.71997 1.6297-0.16051 3.2633-0.24076 4.9008-0.24076 1.6376 0 3.2712 0.080254 4.9008 0.24076 1.6296 0.16051 3.2475 0.4005 4.8536 0.71997 1.6061 0.31947 3.1926 0.71689 4.7597 1.1922s3.107 1.0264 4.6199 1.653c1.5129 0.62667 2.9915 1.326 4.4357 2.0979 1.4442 0.77194 2.847 1.6128 4.2086 2.5226 1.3616 0.90978 2.6754 1.8841 3.9413 2.923 1.2659 1.0389 2.4777 2.1373 3.6356 3.2952 1.158 1.1579 2.2564 2.3698 3.2952 3.6357 1.0389 1.2659 2.0132 2.5796 2.923 3.9412 0.90979 1.3616 1.7507 2.7645 2.5226 4.2087 0.77191 1.4442 1.4712 2.9228 2.0978 4.4357 0.62671 1.5129 1.1777 3.0529 1.6531 4.6199 0.47535 1.567 0.87275 3.1536 1.1922 4.7597 0.31952 1.6061 0.55957 3.224 0.7201 4.8537 0.16046 1.6297 0.24072 3.2633 0.24072 4.9009z" fill="none" stroke="#e6e6e6" stroke-miterlimit="10"/></g></g><g clip-path="url(#f)"><g transform="matrix(.065252 0 0 -.065365 2282.5 170.9)"><path d="m118-250v1e3h137v-40h-97v-920h97v-40z" fill="#e6e6e6"/><path d="m118-250v1e3h137v-40h-97v-920h97v-40z" fill="none" stroke="#e6e6e6" stroke-miterlimit="10" stroke-opacity=".0667"/></g><g transform="matrix(.065252 0 0 -.065365 2300.6 170.9)"><path d="m228 637c-22.667 0-34.667 1.3333-36 4-0.66667 1.3333-1 4-1 8 0 16 3.6667 27 11 33 1.3333 0.66669 6.3333 1 15 1 36-2 78.333-3 127-3 94 0 148 1 162 3h12c4-4 6-7 6-9s-0.66669-8-2-18c-3.3333-10-6.3333-16.333-9-19h-38c-46-0.66669-73-3.6667-81-9-4.6667-2.6667-9.3333-12-14-28s-27-104-67-264c-10.667-43.333-22-89.333-34-138s-21-85.333-27-110l-9-36c0-2.6667 3-4 9-4s25.667-0.66667 59-2h17c21.333 0 38.333 0.33333 51 1s29 3 49 7 36.667 10 50 18 28 19.333 44 34c16 14.667 30 33 42 55 10.667 20 20.667 42.333 30 67s15 38.667 17 42c3.3333 2 9 3 17 3h13c4-6 6-9.6667 6-11s-6.6667-21-20-59-28-78-44-120-24.667-66.667-26-74c-1.3333-3.3333-2.6667-5.3333-4-6s-6.6667-1.6667-16-3-23.667-1.6667-43-1h-76c-43.333 0-84.667 0.33333-124 1h-178c-56 0-84 3.3333-84 10 0 4.6667 0.66667 9.3333 2 14 3.3333 12.667 6.6667 19.667 10 21 2.6667 0.66667 7.6667 1 15 1h6c18 0 38 1 60 3 9.3333 2 15.667 6 19 12 2 2.6667 26 95.333 72 278 46 182.67 69 279 69 289 0 4.6667-19 7.6667-57 9z" fill="#e6e6e6"/><path d="m228 637c-22.667 0-34.667 1.3333-36 4-0.66667 1.3333-1 4-1 8 0 16 3.6667 27 11 33 1.3333 0.66669 6.3333 1 15 1 36-2 78.333-3 127-3 94 0 148 1 162 3h12c4-4 6-7 6-9s-0.66669-8-2-18c-3.3333-10-6.3333-16.333-9-19h-38c-46-0.66669-73-3.6667-81-9-4.6667-2.6667-9.3333-12-14-28s-27-104-67-264c-10.667-43.333-22-89.333-34-138s-21-85.333-27-110l-9-36c0-2.6667 3-4 9-4s25.667-0.66667 59-2h17c21.333 0 38.333 0.33333 51 1s29 3 49 7 36.667 10 50 18 28 19.333 44 34c16 14.667 30 33 42 55 10.667 20 20.667 42.333 30 67s15 38.667 17 42c3.3333 2 9 3 17 3h13c4-6 6-9.6667 6-11s-6.6667-21-20-59-28-78-44-120-24.667-66.667-26-74c-1.3333-3.3333-2.6667-5.3333-4-6s-6.6667-1.6667-16-3-23.667-1.6667-43-1h-76c-43.333 0-84.667 0.33333-124 1h-178c-56 0-84 3.3333-84 10 0 4.6667 0.66667 9.3333 2 14 3.3333 12.667 6.6667 19.667 10 21 2.6667 0.66667 7.6667 1 15 1h6c18 0 38 1 60 3 9.3333 2 15.667 6 19 12 2 2.6667 26 95.333 72 278 46 182.67 69 279 69 289 0 4.6667-19 7.6667-57 9z" fill="none" stroke="#e6e6e6" stroke-miterlimit="10" stroke-opacity=".0667"/></g><g transform="matrix(.065252 0 0 -.065365 2359.6 170.9)"><path d="m84 237v13c0 8.6667 4.6667 15.333 14 20h581c10-5.3333 15-12 15-20s-5-14.667-15-20h-581c-9.3333 4.6667-14 11.333-14 20z" fill="#e6e6e6"/><path d="m84 237v13c0 8.6667 4.6667 15.333 14 20h581c10-5.3333 15-12 15-20s-5-14.667-15-20h-581c-9.3333 4.6667-14 11.333-14 20z" fill="none" stroke="#e6e6e6" stroke-miterlimit="10" stroke-opacity=".0667"/></g><g transform="matrix(.065252 0 0 -.065365 2424.8 170.9)"><path d="m213 578-13-5c-9.3333-3.3333-22.667-6.6667-40-10s-36.667-5.6667-58-7h-19v46h19c31.333 1.3333 60.333 6.3333 87 15s45.333 16.667 56 24 20 14.667 28 22c1.3333 2 5.3333 3 12 3 6 0 11.667-2 17-6v-299l1-300c4.6667-4.6667 8.6667-7.6667 12-9s11.333-2.6667 24-4 33.333-2 62-2h26v-46h-11c-14 2-67 3-159 3-90.667 0-143-1-157-3h-12v46h26 38c10.667 0 19 0.33333 25 1s11.333 1.6667 16 3 7.3333 2 8 2 2.6667 1.6667 6 5 5.3333 4.6667 6 4z" fill="#e6e6e6"/><path d="m213 578-13-5c-9.3333-3.3333-22.667-6.6667-40-10s-36.667-5.6667-58-7h-19v46h19c31.333 1.3333 60.333 6.3333 87 15s45.333 16.667 56 24 20 14.667 28 22c1.3333 2 5.3333 3 12 3 6 0 11.667-2 17-6v-299l1-300c4.6667-4.6667 8.6667-7.6667 12-9s11.333-2.6667 24-4 33.333-2 62-2h26v-46h-11c-14 2-67 3-159 3-90.667 0-143-1-157-3h-12v46h26 38c10.667 0 19 0.33333 25 1s11.333 1.6667 16 3 7.3333 2 8 2 2.6667 1.6667 6 5 5.3333 4.6667 6 4z" fill="none" stroke="#e6e6e6" stroke-miterlimit="10" stroke-opacity=".0667"/></g><g transform="matrix(.065252 0 0 -.065365 2457.5 170.9)"><path d="m22 710v40h137v-1e3h-137v40h97v920z" fill="#e6e6e6"/><path d="m22 710v40h137v-1e3h-137v40h97v920z" fill="none" stroke="#e6e6e6" stroke-miterlimit="10" stroke-opacity=".0667"/></g><g transform="matrix(.065252 0 0 -.065365 2475.7 170.9)"><path d="m231 637c-18 0-28.667 0.33331-32 1s-5 4.3333-5 11c0 18 3.6667 29 11 33 0.66667 0.66669 44 1 130 1 172.67 0 263.67-0.66669 273-2 42-6.6667 77-21.667 105-45s42.333-54 43-92c0-42.667-19.333-81-58-115s-83-57-133-69l-10-3c42.667-6 77.667-21.333 105-46s41.333-55.333 42-92c0-48.667-24-95.667-72-141-48-45.333-107-71-177-77-4.6667-0.66667-75-1-211-1-133.33 0-201 0.66667-203 2-2.6667 2-4 4.6667-4 8 0 4.6667 0.66667 9.3333 2 14 3.3333 12.667 6.6667 19.667 10 21 2.6667 0.66667 7.6667 1 15 1h6c18 0 38 1 60 3 9.3333 2 15.667 6 19 12 2 2.6667 26 95.333 72 278 46 182.67 69 279 69 289 0 4.6667-19 7.6667-57 9zm418-93c0 20-5 38.667-15 56s-26.333 28.667-49 34c-4.6667 1.3333-35.333 2.3333-92 3h-42c-14.667 0-26.333-0.33331-35-1h-13c-10-0.66669-16.333-4-19-10-1.3333-2.6667-12-42.667-32-120 0-2-0.33334-4-1-6l-31-126h81c54 0 85 0.66666 93 2 40 6.6667 75.667 26 107 58s47.333 68.667 48 110zm-54-315c0 29.333-7.6667 53.667-23 73s-35.333 30.667-60 34c-4 0.66666-31.667 1-83 1-78.667 0-118.33-0.33334-119-1 0-1.3333-5.6667-25.667-17-73s-23-94.333-35-141l-18-70c0-2.6667 4-4 12-4s35-0.66667 81-2c59.333 0 91.333 0.33333 96 1 41.333 4.6667 79.333 24 114 58 34.667 34 52 75.333 52 124z" fill="#e6e6e6"/><path d="m231 637c-18 0-28.667 0.33331-32 1s-5 4.3333-5 11c0 18 3.6667 29 11 33 0.66667 0.66669 44 1 130 1 172.67 0 263.67-0.66669 273-2 42-6.6667 77-21.667 105-45s42.333-54 43-92c0-42.667-19.333-81-58-115s-83-57-133-69l-10-3c42.667-6 77.667-21.333 105-46s41.333-55.333 42-92c0-48.667-24-95.667-72-141-48-45.333-107-71-177-77-4.6667-0.66667-75-1-211-1-133.33 0-201 0.66667-203 2-2.6667 2-4 4.6667-4 8 0 4.6667 0.66667 9.3333 2 14 3.3333 12.667 6.6667 19.667 10 21 2.6667 0.66667 7.6667 1 15 1h6c18 0 38 1 60 3 9.3333 2 15.667 6 19 12 2 2.6667 26 95.333 72 278 46 182.67 69 279 69 289 0 4.6667-19 7.6667-57 9zm418-93c0 20-5 38.667-15 56s-26.333 28.667-49 34c-4.6667 1.3333-35.333 2.3333-92 3h-42c-14.667 0-26.333-0.33331-35-1h-13c-10-0.66669-16.333-4-19-10-1.3333-2.6667-12-42.667-32-120 0-2-0.33334-4-1-6l-31-126h81c54 0 85 0.66666 93 2 40 6.6667 75.667 26 107 58s47.333 68.667 48 110zm-54-315c0 29.333-7.6667 53.667-23 73s-35.333 30.667-60 34c-4 0.66666-31.667 1-83 1-78.667 0-118.33-0.33334-119-1 0-1.3333-5.6667-25.667-17-73s-23-94.333-35-141l-18-70c0-2.6667 4-4 12-4s35-0.66667 81-2c59.333 0 91.333 0.33333 96 1 41.333 4.6667 79.333 24 114 58 34.667 34 52 75.333 52 124z" fill="none" stroke="#e6e6e6" stroke-miterlimit="10" stroke-opacity=".0667"/></g></g><g clip-path="url(#e)"><g transform="scale(2.9992)"><path d="m106 51h30.76" fill="none" stroke="#e6e6e6" stroke-miterlimit="10"/><path d="m143.76 51-7 3.5v-7z" fill="#e6e6e6"/><path d="m143.76 51-7 3.5v-7z" fill="none" stroke="#e6e6e6" stroke-miterlimit="10"/></g><g transform="matrix(2.9992 0 0 2.9992 1.4996 1.4996)"><path d="m101 51c1e-5 1.6376-0.0803 3.2712-0.24075 4.9009-0.16052 1.6297-0.40051 3.2476-0.71999 4.8537-0.31947 1.6061-0.71689 3.1927-1.1922 4.7597-0.47536 1.567-1.0264 3.107-1.653 4.6199-0.62666 1.5129-1.326 2.9915-2.0979 4.4357s-1.6128 2.8471-2.5226 4.2087c-0.90977 1.3616-1.8841 2.6753-2.923 3.9412-1.0389 1.2659-2.1373 2.4777-3.2952 3.6357-1.1579 1.1579-2.3698 2.2563-3.6357 3.2952-1.2658 1.0389-2.5796 2.0132-3.9412 2.923-1.3616 0.90979-2.7645 1.7507-4.2087 2.5226s-2.9228 1.4712-4.4357 2.0979c-1.5129 0.62667-3.0529 1.1777-4.6199 1.653-1.5671 0.47536-3.1536 0.87277-4.7597 1.1922-1.6061 0.31948-3.224 0.55947-4.8537 0.71999-1.6297 0.1605-3.2633 0.24075-4.9009 0.24075s-3.2712-0.0803-4.9009-0.24075c-1.6297-0.16052-3.2476-0.40051-4.8537-0.71999-1.6061-0.31947-3.1927-0.71689-4.7597-1.1922s-3.107-1.0264-4.6199-1.653c-1.5129-0.62666-2.9915-1.326-4.4357-2.0979-1.4442-0.77194-2.8471-1.6128-4.2087-2.5226-1.3616-0.90977-2.6753-1.8841-3.9412-2.923-1.2659-1.0389-2.4777-2.1373-3.6357-3.2952-1.1579-1.1579-2.2563-2.3698-3.2952-3.6357-1.0389-1.2658-2.0132-2.5796-2.923-3.9412-0.90978-1.3616-1.7506-2.7645-2.5226-4.2087-0.77194-1.4442-1.4712-2.9228-2.0979-4.4357s-1.1777-3.0529-1.653-4.6199c-0.47536-1.5671-0.87277-3.1536-1.1922-4.7597-0.31947-1.6061-0.55946-3.224-0.71997-4.8537-0.16051-1.6297-0.24076-3.2633-0.24076-4.9009s0.080254-3.2712 0.24076-4.9009c0.16051-1.6297 0.4005-3.2476 0.71997-4.8537 0.31947-1.6061 0.71689-3.1927 1.1922-4.7597 0.47536-1.5671 1.0264-3.107 1.653-4.6199 0.62667-1.5129 1.326-2.9915 2.0979-4.4357 0.77194-1.4442 1.6128-2.8471 2.5226-4.2087 0.90978-1.3616 1.8841-2.6753 2.923-3.9412 1.0389-1.2659 2.1373-2.4777 3.2952-3.6357 1.1579-1.1579 2.3698-2.2563 3.6357-3.2952 1.2659-1.0389 2.5796-2.0132 3.9412-2.923 1.3616-0.90978 2.7645-1.7506 4.2087-2.5226 1.4442-0.77194 2.9228-1.4712 4.4357-2.0979 1.5129-0.62667 3.0529-1.1777 4.6199-1.653 1.567-0.47536 3.1536-0.87277 4.7597-1.1922 1.6061-0.31947 3.224-0.55946 4.8537-0.71997 1.6297-0.16051 3.2633-0.24076 4.9009-0.24076s3.2712 0.080254 4.9009 0.24076c1.6297 0.16051 3.2476 0.4005 4.8537 0.71997 1.6061 0.31947 3.1927 0.71689 4.7597 1.1922 1.567 0.47536 3.107 1.0264 4.6199 1.653s2.9915 1.326 4.4357 2.0979c1.4442 0.77194 2.8471 1.6128 4.2087 2.5226 1.3616 0.90978 2.6753 1.8841 3.9412 2.923 1.2659 1.0389 2.4777 2.1373 3.6357 3.2952 1.1579 1.1579 2.2563 2.3698 3.2952 3.6357 1.0389 1.2659 2.0132 2.5796 2.923 3.9412 0.90979 1.3616 1.7507 2.7645 2.5226 4.2087 0.77194 1.4442 1.4712 2.9228 2.0979 4.4357 0.62667 1.5129 1.1777 3.0529 1.653 4.6199 0.47536 1.567 0.87277 3.1536 1.1922 4.7597 0.31948 1.6061 0.55947 3.224 0.71999 4.8537 0.1605 1.6297 0.24076 3.2633 0.24075 4.9009z" fill="none" stroke="#e6e6e6" stroke-miterlimit="10"/></g></g><g clip-path="url(#d)"><g transform="matrix(.064343 0 0 -.065365 96.004 170.9)"><path d="m118-250v1e3h137v-40h-97v-920h97v-40z" fill="#e6e6e6"/><path d="m118-250v1e3h137v-40h-97v-920h97v-40z" fill="none" stroke="#e6e6e6" stroke-miterlimit="10" stroke-opacity=".0667"/></g><g transform="matrix(.064343 0 0 -.065365 113.89 170.9)"><path d="m96 585c37.333 54 88.333 81 153 81 32 0 64-8.6667 96-26s58-48 78-92c24.667-55.333 37-131.33 37-228 0-103.33-14.333-182.33-43-237-13.333-28-31.667-50.333-55-67-23.333-16.667-43.667-27-61-31s-34.333-6.3333-51-7c-17.333 0-34.667 2-52 6s-37.667 14.667-61 32c-23.333 17.333-41.667 39.667-55 67-28.667 54.667-43 133.67-43 237 0 116 19 204.33 57 265zm225 12c-20 21.333-43.667 32-71 32-28 0-52-10.667-72-32-16.667-17.333-27.667-41.333-33-72-5.3333-30.667-8-94.667-8-192 0-105.33 2.6667-174.67 8-208 5.3333-33.333 17.333-59.667 36-79 18.667-20 41.667-30 69-30 26.667 0 49.333 10 68 30 19.333 20 31.333 48 36 84s7.3333 103.67 8 203c0 96.667-2.6667 160.33-8 191-5.3333 30.667-16.333 55-33 73z" fill="#e6e6e6"/><path d="m96 585c37.333 54 88.333 81 153 81 32 0 64-8.6667 96-26s58-48 78-92c24.667-55.333 37-131.33 37-228 0-103.33-14.333-182.33-43-237-13.333-28-31.667-50.333-55-67-23.333-16.667-43.667-27-61-31s-34.333-6.3333-51-7c-17.333 0-34.667 2-52 6s-37.667 14.667-61 32c-23.333 17.333-41.667 39.667-55 67-28.667 54.667-43 133.67-43 237 0 116 19 204.33 57 265zm225 12c-20 21.333-43.667 32-71 32-28 0-52-10.667-72-32-16.667-17.333-27.667-41.333-33-72-5.3333-30.667-8-94.667-8-192 0-105.33 2.6667-174.67 8-208 5.3333-33.333 17.333-59.667 36-79 18.667-20 41.667-30 69-30 26.667 0 49.333 10 68 30 19.333 20 31.333 48 36 84s7.3333 103.67 8 203c0 96.667-2.6667 160.33-8 191-5.3333 30.667-16.333 55-33 73z" fill="none" stroke="#e6e6e6" stroke-miterlimit="10" stroke-opacity=".0667"/></g><g transform="matrix(.064343 0 0 -.065365 146.13 170.9)"><path d="m22 710v40h137v-1e3h-137v40h97v920z" fill="#e6e6e6"/><path d="m22 710v40h137v-1e3h-137v40h97v920z" fill="none" stroke="#e6e6e6" stroke-miterlimit="10" stroke-opacity=".0667"/></g><g transform="matrix(.064343 0 0 -.065365 164.01 170.9)"><path d="m231 637c-18 0-28.667 0.33331-32 1s-5 4.3333-5 11c0 18 3.6667 29 11 33 0.66667 0.66669 44 1 130 1 172.67 0 263.67-0.66669 273-2 42-6.6667 77-21.667 105-45s42.333-54 43-92c0-42.667-19.333-81-58-115s-83-57-133-69l-10-3c42.667-6 77.667-21.333 105-46s41.333-55.333 42-92c0-48.667-24-95.667-72-141-48-45.333-107-71-177-77-4.6667-0.66667-75-1-211-1-133.33 0-201 0.66667-203 2-2.6667 2-4 4.6667-4 8 0 4.6667 0.66667 9.3333 2 14 3.3333 12.667 6.6667 19.667 10 21 2.6667 0.66667 7.6667 1 15 1h6c18 0 38 1 60 3 9.3333 2 15.667 6 19 12 2 2.6667 26 95.333 72 278 46 182.67 69 279 69 289 0 4.6667-19 7.6667-57 9zm418-93c0 20-5 38.667-15 56s-26.333 28.667-49 34c-4.6667 1.3333-35.333 2.3333-92 3h-42c-14.667 0-26.333-0.33331-35-1h-13c-10-0.66669-16.333-4-19-10-1.3333-2.6667-12-42.667-32-120 0-2-0.33334-4-1-6l-31-126h81c54 0 85 0.66666 93 2 40 6.6667 75.667 26 107 58s47.333 68.667 48 110zm-54-315c0 29.333-7.6667 53.667-23 73s-35.333 30.667-60 34c-4 0.66666-31.667 1-83 1-78.667 0-118.33-0.33334-119-1 0-1.3333-5.6667-25.667-17-73s-23-94.333-35-141l-18-70c0-2.6667 4-4 12-4s35-0.66667 81-2c59.333 0 91.333 0.33333 96 1 41.333 4.6667 79.333 24 114 58 34.667 34 52 75.333 52 124z" fill="#e6e6e6"/><path d="m231 637c-18 0-28.667 0.33331-32 1s-5 4.3333-5 11c0 18 3.6667 29 11 33 0.66667 0.66669 44 1 130 1 172.67 0 263.67-0.66669 273-2 42-6.6667 77-21.667 105-45s42.333-54 43-92c0-42.667-19.333-81-58-115s-83-57-133-69l-10-3c42.667-6 77.667-21.333 105-46s41.333-55.333 42-92c0-48.667-24-95.667-72-141-48-45.333-107-71-177-77-4.6667-0.66667-75-1-211-1-133.33 0-201 0.66667-203 2-2.6667 2-4 4.6667-4 8 0 4.6667 0.66667 9.3333 2 14 3.3333 12.667 6.6667 19.667 10 21 2.6667 0.66667 7.6667 1 15 1h6c18 0 38 1 60 3 9.3333 2 15.667 6 19 12 2 2.6667 26 95.333 72 278 46 182.67 69 279 69 289 0 4.6667-19 7.6667-57 9zm418-93c0 20-5 38.667-15 56s-26.333 28.667-49 34c-4.6667 1.3333-35.333 2.3333-92 3h-42c-14.667 0-26.333-0.33331-35-1h-13c-10-0.66669-16.333-4-19-10-1.3333-2.6667-12-42.667-32-120 0-2-0.33334-4-1-6l-31-126h81c54 0 85 0.66666 93 2 40 6.6667 75.667 26 107 58s47.333 68.667 48 110zm-54-315c0 29.333-7.6667 53.667-23 73s-35.333 30.667-60 34c-4 0.66666-31.667 1-83 1-78.667 0-118.33-0.33334-119-1 0-1.3333-5.6667-25.667-17-73s-23-94.333-35-141l-18-70c0-2.6667 4-4 12-4s35-0.66667 81-2c59.333 0 91.333 0.33333 96 1 41.333 4.6667 79.333 24 114 58 34.667 34 52 75.333 52 124z" fill="none" stroke="#e6e6e6" stroke-miterlimit="10" stroke-opacity=".0667"/></g></g></g></svg>
