<svg version="1.1" viewBox="0 0 698.56 356.16" xml:space="preserve" xmlns="http://www.w3.org/2000/svg"><defs><clipPath id="k"><path d="m0 0h2183.3v1109.7h-2183.3z" clip-rule="evenodd"/></clipPath><clipPath id="m"><path d="m2003.4 119.96h50.984v53.984h-50.984z" clip-rule="evenodd"/></clipPath><clipPath id="l"><path d="m0 0h2183.3v1109.7h-2183.3z" clip-rule="evenodd"/></clipPath><clipPath id="j"><path d="m2003.4 989.7h47.985v53.983h-47.985z" clip-rule="evenodd"/></clipPath><clipPath id="i"><path d="m0 0h2183.3v1109.7h-2183.3z" clip-rule="evenodd"/></clipPath><clipPath id="h"><path d="m131.96 986.7h41.987v56.983h-41.987z" clip-rule="evenodd"/></clipPath><clipPath id="g"><path d="m0 0h2183.3v1109.7h-2183.3z" clip-rule="evenodd"/></clipPath><clipPath id="f"><path d="m902.72 719.78h29.991v38.988h-29.991z" clip-rule="evenodd"/></clipPath><clipPath id="e"><path d="m0 0h2183.3v1109.7h-2183.3z" clip-rule="evenodd"/></clipPath><clipPath id="d"><path d="m899.73 986.7h35.989v56.983h-35.989z" clip-rule="evenodd"/></clipPath><clipPath id="c"><path d="m0 0h2183.3v1109.7h-2183.3z" clip-rule="evenodd"/></clipPath><clipPath id="b"><path d="m137.96 671.79h29.991v35.989h-29.991z" clip-rule="evenodd"/></clipPath><clipPath id="a"><path d="m0 0h2183.3v1109.7h-2183.3z" clip-rule="evenodd"/></clipPath></defs><g transform="matrix(.32 0 0 .32 0 8.904e-6)"><g clip-path="url(#k)"><g transform="scale(2.9991)"><path d="m101 64v30.76" fill="none" stroke="#e6e6e6" stroke-miterlimit="10"/><path d="m101 101.76-3.5-7h7z" fill="#e6e6e6"/><path d="m101 101.76-3.5-7h7z" fill="none" stroke="#e6e6e6" stroke-miterlimit="10"/></g><g transform="matrix(2.9991 0 0 2.9991 1.4995 1.4995)"><path d="m77.36 19c-11.49 0-20.8 8.95-20.8 20s9.31 20 20.8 20c7.88-0.01 15.08-4.31 18.59-11.1h7.86l6.61-5.62 5.13 4.36 4.97-4.36 4.85 4.36 5.18-4.36 5.14 4.36 8.61-7.34c1.1-1.02 1.15-1.82 0-2.93l-7.3-6.14h-40.97c-3.48-6.87-10.73-11.22-18.67-11.23zm-9.13 14.93c2.91 0 5.28 2.27 5.28 5.07 0 2.81-2.37 5.08-5.28 5.08-2.92 0-5.28-2.27-5.28-5.08 0-2.8 2.36-5.07 5.28-5.07z" fill="#a9d0fc"/></g><g transform="scale(2.9991)"><text transform="translate(63.359 14)" fill="#e6e6e6" font-family="Helvetica" font-size="14px" font-weight="bold"><tspan x="0 9.3378906 14.786133 18.675781 26.461914 34.248047 38.910156 46.696289 50.585938 60.696289 68.482422" y="0">Private Key</tspan></text><path d="m434.89 109h-64.65" fill="none" stroke="#e6e6e6" stroke-miterlimit="10"/><path d="m363.24 109 7-3.5v7z" fill="#e6e6e6"/><path d="m363.24 109 7-3.5v7z" fill="none" stroke="#e6e6e6" stroke-miterlimit="10"/><path d="m474.89 164v130.76" fill="none" stroke="#e6e6e6" stroke-miterlimit="10"/><path d="m474.89 301.76-3.5-7h7z" fill="#e6e6e6"/><path d="m474.89 301.76-3.5-7h7z" fill="none" stroke="#e6e6e6" stroke-miterlimit="10"/></g><g transform="matrix(2.9991 0 0 2.9991 1.4995 1.4995)"><path d="m439.89 59h40l30 30v70h-70z" fill="#a9d0fc"/><path d="m439.89 59h40l30 30v70h-70z" fill="none" stroke="#87a6c9" stroke-miterlimit="10"/><path d="m479.89 59v30h30z" fill-opacity=".051"/><path d="m479.89 59v30h30" fill="none" stroke="#87a6c9" stroke-miterlimit="10"/></g><g transform="scale(2.9991)"><text transform="translate(445.42 54)" fill="#e6e6e6" font-family="Helvetica" font-size="14px" font-weight="bold"><tspan x="0 11.662109 19.448242 27.234375 35.020508 42.806641 51.358398" y="0">Message</tspan></text><path d="m101 174v30.76" fill="none" stroke="#e6e6e6" stroke-miterlimit="10"/><path d="m101 211.76-3.5-7h7z" fill="#e6e6e6"/><path d="m101 211.76-3.5-7h7z" fill="none" stroke="#e6e6e6" stroke-miterlimit="10"/></g><g transform="matrix(2.9991 0 0 2.9991 1.4995 1.4995)"><path d="m76 109h50l25 30-25 30h-50l-25-30z" fill="none" stroke="#e6e6e6" stroke-miterlimit="10"/></g><g transform="scale(2.9991)"><text transform="translate(72.203 145)" fill="#e6e6e6" font-family="Helvetica" font-size="14px" font-weight="bold"><tspan x="0 9.3378906 19.448242 29.558594 34.220703 42.006836 49.792969" y="0">SHA-512</tspan></text><path d="m170.38 214 94.12-72.87" fill="none" stroke="#e6e6e6" stroke-miterlimit="10"/><path d="m270.03 136.84-3.39 7.06-4.28-5.54z" fill="#e6e6e6"/><path d="m270.03 136.84-3.39 7.06-4.28-5.54z" fill="none" stroke="#e6e6e6" stroke-miterlimit="10"/><path d="m51 244v55.76" fill="none" stroke="#e6e6e6" stroke-miterlimit="10"/><path d="m51 306.76-3.5-7h7z" fill="#e6e6e6"/><path d="m51 306.76-3.5-7h7z" fill="none" stroke="#e6e6e6" stroke-miterlimit="10"/><path d="m558.35 274-42.05 32.75" fill="none" stroke="#e6e6e6" stroke-miterlimit="10"/><path d="m510.77 311.05 3.38-7.06 4.3 5.52z" fill="#e6e6e6"/><path d="m510.77 311.05 3.38-7.06 4.3 5.52z" fill="none" stroke="#e6e6e6" stroke-miterlimit="10"/></g><g transform="matrix(2.9991 0 0 2.9991 1.4995 1.4995)"><path d="m566.8 229c-5.52 0-10.81 2.11-14.71 5.86-3.9 3.75-6.09 8.84-6.09 14.14s2.19 10.39 6.09 14.14c3.9 3.75 9.19 5.86 14.71 5.86 7.88-0.01 15.08-4.31 18.59-11.1h7.86l6.61-5.62 5.13 4.36 4.97-4.36 4.85 4.36 5.18-4.36 5.14 4.36 8.61-7.34c1.1-1.02 1.15-1.82 0-2.93l-7.3-6.14h-40.97c-3.48-6.87-10.73-11.22-18.67-11.23zm-9.13 14.93c2.91 0 5.28 2.27 5.28 5.07 0 2.81-2.37 5.08-5.28 5.08-1.4 0-2.75-0.53-3.74-1.49-0.98999-0.95-1.54-2.24-1.54-3.59 0-2.8 2.36-5.07 5.28-5.07z" fill="#a9d0fc"/></g><g transform="scale(2.9991)"><text transform="translate(554.7 224)" fill="#e6e6e6" font-family="Helvetica" font-size="14px" font-weight="bold"><tspan x="0 9.3378906 17.889648 26.441406 30.331055 34.220703 42.006836 45.896484 56.006836 63.792969" y="0">Public Key</tspan></text><path d="m676 84v30.76" fill="none" stroke="#e6e6e6" stroke-miterlimit="10"/><path d="m676 121.76-3.5-7h7z" fill="#e6e6e6"/><path d="m676 121.76-3.5-7h7z" fill="none" stroke="#e6e6e6" stroke-miterlimit="10"/></g><g transform="matrix(2.9991 0 0 2.9991 1.4995 1.4995)"><path d="m706 49c0 0.98254-0.0482 1.9627-0.14453 2.9405-0.0962 0.97781-0.2403 1.9485-0.43201 2.9122-0.19165 0.96366-0.43005 1.9156-0.71527 2.8558-0.28522 0.94023-0.61584 1.8642-0.99188 2.772-0.37592 0.90775-0.79547 1.7949-1.2587 2.6614-0.46319 0.86652-0.96771 1.7083-1.5136 2.5252-0.54584 0.81696-1.1304 1.6052-1.7537 2.3647-0.62323 0.75951-1.2823 1.4866-1.9771 2.1814-0.69477 0.69476-1.4219 1.3538-2.1815 1.9771-0.75946 0.62331-1.5477 1.2079-2.3647 1.7538-0.81695 0.54587-1.6586 1.0504-2.5251 1.5135-0.86652 0.46317-1.7537 0.88275-2.6615 1.2588-0.90766 0.376-1.8317 0.70661-2.7719 0.99183-0.94019 0.28522-1.8922 0.52367-2.8558 0.71535-0.96356 0.19169-1.9343 0.33568-2.9121 0.43198-0.97784 0.096306-1.958 0.14446-2.9406 0.14446-0.98248 0-1.9626-0.04816-2.9405-0.14446-0.97784-0.09631-1.9486-0.2403-2.9123-0.43198-0.96369-0.19168-1.9156-0.43013-2.8558-0.71535-0.94018-0.28522-1.8642-0.61583-2.772-0.99183-0.90772-0.376-1.7948-0.79558-2.6613-1.2587-0.86651-0.46317-1.7082-0.96769-2.5253-1.5136-0.81689-0.54586-1.6051-1.1305-2.3646-1.7538s-1.4866-1.2824-2.1815-1.9771c-0.69476-0.69476-1.3538-1.4219-1.9771-2.1814-0.62329-0.75951-1.2079-1.5477-1.7537-2.3647-0.5459-0.81695-1.0504-1.6587-1.5136-2.5252-0.4632-0.86652-0.88281-1.7537-1.2588-2.6614-0.37598-0.90774-0.7066-1.8317-0.99182-2.772-0.28522-0.94023-0.52368-1.8922-0.7154-2.8558-0.19158-0.96365-0.33557-1.9344-0.43188-2.9122-0.09625-0.97781-0.14441-1.958-0.14447-2.9405 6e-5 -0.98254 0.0482-1.9627 0.14447-2.9405 0.0963-0.97781 0.2403-1.9485 0.43188-2.9122 0.19172-0.96366 0.43018-1.9156 0.7154-2.8558 0.28522-0.94024 0.61584-1.8642 0.99182-2.772 0.37604-0.90774 0.79565-1.7949 1.2588-2.6614 0.46313-0.86652 0.96765-1.7083 1.5136-2.5252 0.54584-0.81695 1.1304-1.6052 1.7538-2.3647s1.2824-1.4866 1.9771-2.1814c0.69483-0.69476 1.422-1.3538 2.1815-1.9771 0.75946-0.62331 1.5477-1.2079 2.3646-1.7538 0.81702-0.54587 1.6588-1.0504 2.5253-1.5135 0.86652-0.46316 1.7536-0.88275 2.6613-1.2588 0.90778-0.376 1.8318-0.70661 2.772-0.99182 0.94025-0.28522 1.8922-0.52367 2.8558-0.71535 0.96368-0.19168 1.9344-0.33568 2.9123-0.43198 0.97784-0.096308 1.958-0.14446 2.9405-0.14446 0.98254 0 1.9627 0.04815 2.9406 0.14446 0.97785 0.0963 1.9486 0.2403 2.9121 0.43198 0.96369 0.19168 1.9156 0.43013 2.8558 0.71535 0.94024 0.28522 1.8642 0.61582 2.7719 0.99182 0.90777 0.376 1.795 0.79559 2.6615 1.2588 0.86651 0.46316 1.7082 0.96768 2.5251 1.5135 0.81702 0.54587 1.6053 1.1305 2.3648 1.7538 0.75952 0.62332 1.4867 1.2824 2.1815 1.9771 0.69482 0.69476 1.3539 1.4219 1.9772 2.1814s1.2078 1.5477 1.7537 2.3647c0.5459 0.81695 1.0504 1.6587 1.5136 2.5252 0.4632 0.86652 0.88275 1.7537 1.2587 2.6614 0.37604 0.90774 0.70666 1.8317 0.99188 2.772 0.28522 0.94023 0.52362 1.8922 0.71527 2.8558 0.19171 0.96366 0.33576 1.9344 0.43201 2.9122 0.09637 0.97781 0.14453 1.958 0.14453 2.9405z" fill="#a9d0fc"/><path d="m706 49c0 0.98254-0.0482 1.9627-0.14453 2.9405-0.0962 0.97781-0.2403 1.9485-0.43201 2.9122-0.19165 0.96366-0.43005 1.9156-0.71527 2.8558-0.28522 0.94023-0.61584 1.8642-0.99188 2.772-0.37592 0.90775-0.79547 1.7949-1.2587 2.6614-0.46319 0.86652-0.96771 1.7083-1.5136 2.5252-0.54584 0.81696-1.1304 1.6052-1.7537 2.3647-0.62323 0.75951-1.2823 1.4866-1.9771 2.1814-0.69477 0.69476-1.4219 1.3538-2.1815 1.9771-0.75946 0.62331-1.5477 1.2079-2.3647 1.7538-0.81695 0.54587-1.6586 1.0504-2.5251 1.5135-0.86652 0.46317-1.7537 0.88275-2.6615 1.2588-0.90766 0.376-1.8317 0.70661-2.7719 0.99183-0.94019 0.28522-1.8922 0.52367-2.8558 0.71535-0.96356 0.19169-1.9343 0.33568-2.9121 0.43198-0.97784 0.096306-1.958 0.14446-2.9406 0.14446-0.98248 0-1.9626-0.04816-2.9405-0.14446-0.97784-0.09631-1.9486-0.2403-2.9123-0.43198-0.96369-0.19168-1.9156-0.43013-2.8558-0.71535-0.94018-0.28522-1.8642-0.61583-2.772-0.99183-0.90772-0.376-1.7948-0.79558-2.6613-1.2587-0.86651-0.46317-1.7082-0.96769-2.5253-1.5136-0.81689-0.54586-1.6051-1.1305-2.3646-1.7538s-1.4866-1.2824-2.1815-1.9771c-0.69476-0.69476-1.3538-1.4219-1.9771-2.1814-0.62329-0.75951-1.2079-1.5477-1.7537-2.3647-0.5459-0.81695-1.0504-1.6587-1.5136-2.5252-0.4632-0.86652-0.88281-1.7537-1.2588-2.6614-0.37598-0.90774-0.7066-1.8317-0.99182-2.772-0.28522-0.94023-0.52368-1.8922-0.7154-2.8558-0.19158-0.96365-0.33557-1.9344-0.43188-2.9122-0.09625-0.97781-0.14441-1.958-0.14447-2.9405 6e-5 -0.98254 0.0482-1.9627 0.14447-2.9405 0.0963-0.97781 0.2403-1.9485 0.43188-2.9122 0.19172-0.96366 0.43018-1.9156 0.7154-2.8558 0.28522-0.94024 0.61584-1.8642 0.99182-2.772 0.37604-0.90774 0.79565-1.7949 1.2588-2.6614 0.46313-0.86652 0.96765-1.7083 1.5136-2.5252 0.54584-0.81695 1.1304-1.6052 1.7538-2.3647s1.2824-1.4866 1.9771-2.1814c0.69483-0.69476 1.422-1.3538 2.1815-1.9771 0.75946-0.62331 1.5477-1.2079 2.3646-1.7538 0.81702-0.54587 1.6588-1.0504 2.5253-1.5135 0.86652-0.46316 1.7536-0.88275 2.6613-1.2588 0.90778-0.376 1.8318-0.70661 2.772-0.99182 0.94025-0.28522 1.8922-0.52367 2.8558-0.71535 0.96368-0.19168 1.9344-0.33568 2.9123-0.43198 0.97784-0.096308 1.958-0.14446 2.9405-0.14446 0.98254 0 1.9627 0.04815 2.9406 0.14446 0.97785 0.0963 1.9486 0.2403 2.9121 0.43198 0.96369 0.19168 1.9156 0.43013 2.8558 0.71535 0.94024 0.28522 1.8642 0.61582 2.7719 0.99182 0.90777 0.376 1.795 0.79559 2.6615 1.2588 0.86651 0.46316 1.7082 0.96768 2.5251 1.5135 0.81702 0.54587 1.6053 1.1305 2.3648 1.7538 0.75952 0.62332 1.4867 1.2824 2.1815 1.9771 0.69482 0.69476 1.3539 1.4219 1.9772 2.1814s1.2078 1.5477 1.7537 2.3647c0.5459 0.81695 1.0504 1.6587 1.5136 2.5252 0.4632 0.86652 0.88275 1.7537 1.2587 2.6614 0.37604 0.90774 0.70666 1.8317 0.99188 2.772 0.28522 0.94023 0.52362 1.8922 0.71527 2.8558 0.19171 0.96366 0.33576 1.9344 0.43201 2.9122 0.09637 0.97781 0.14453 1.958 0.14453 2.9405z" fill="none" stroke="#87a6c9" stroke-miterlimit="10"/></g></g><g clip-path="url(#m)"><g transform="matrix(.067129 0 0 -.065242 2003.4 167.84)"><path d="m231 637c-18 0-28.667 0.33331-32 1s-5 4.3333-5 11c0 18 3.6667 29 11 33 0.66667 0.66669 44 1 130 1 172.67 0 263.67-0.66669 273-2 42-6.6667 77-21.667 105-45s42.333-54 43-92c0-42.667-19.333-81-58-115s-83-57-133-69l-10-3c42.667-6 77.667-21.333 105-46s41.333-55.333 42-92c0-48.667-24-95.667-72-141-48-45.333-107-71-177-77-4.6667-0.66667-75-1-211-1-133.33 0-201 0.66667-203 2-2.6667 2-4 4.6667-4 8 0 4.6667 0.66667 9.3333 2 14 3.3333 12.667 6.6667 19.667 10 21 2.6667 0.66667 7.6667 1 15 1h6c18 0 38 1 60 3 9.3333 2 15.667 6 19 12 2 2.6667 26 95.333 72 278 46 182.67 69 279 69 289 0 4.6667-19 7.6667-57 9zm418-93c0 20-5 38.667-15 56s-26.333 28.667-49 34c-4.6667 1.3333-35.333 2.3333-92 3h-42c-14.667 0-26.333-0.33331-35-1h-13c-10-0.66669-16.333-4-19-10-1.3333-2.6667-12-42.667-32-120 0-2-0.33334-4-1-6l-31-126h81c54 0 85 0.66666 93 2 40 6.6667 75.667 26 107 58s47.333 68.667 48 110zm-54-315c0 29.333-7.6667 53.667-23 73s-35.333 30.667-60 34c-4 0.66666-31.667 1-83 1-78.667 0-118.33-0.33334-119-1 0-1.3333-5.6667-25.667-17-73s-23-94.333-35-141l-18-70c0-2.6667 4-4 12-4s35-0.66667 81-2c59.333 0 91.333 0.33333 96 1 41.333 4.6667 79.333 24 114 58 34.667 34 52 75.333 52 124z" fill="#68809c"/><path d="m231 637c-18 0-28.667 0.33331-32 1s-5 4.3333-5 11c0 18 3.6667 29 11 33 0.66667 0.66669 44 1 130 1 172.67 0 263.67-0.66669 273-2 42-6.6667 77-21.667 105-45s42.333-54 43-92c0-42.667-19.333-81-58-115s-83-57-133-69l-10-3c42.667-6 77.667-21.333 105-46s41.333-55.333 42-92c0-48.667-24-95.667-72-141-48-45.333-107-71-177-77-4.6667-0.66667-75-1-211-1-133.33 0-201 0.66667-203 2-2.6667 2-4 4.6667-4 8 0 4.6667 0.66667 9.3333 2 14 3.3333 12.667 6.6667 19.667 10 21 2.6667 0.66667 7.6667 1 15 1h6c18 0 38 1 60 3 9.3333 2 15.667 6 19 12 2 2.6667 26 95.333 72 278 46 182.67 69 279 69 289 0 4.6667-19 7.6667-57 9zm418-93c0 20-5 38.667-15 56s-26.333 28.667-49 34c-4.6667 1.3333-35.333 2.3333-92 3h-42c-14.667 0-26.333-0.33331-35-1h-13c-10-0.66669-16.333-4-19-10-1.3333-2.6667-12-42.667-32-120 0-2-0.33334-4-1-6l-31-126h81c54 0 85 0.66666 93 2 40 6.6667 75.667 26 107 58s47.333 68.667 48 110zm-54-315c0 29.333-7.6667 53.667-23 73s-35.333 30.667-60 34c-4 0.66666-31.667 1-83 1-78.667 0-118.33-0.33334-119-1 0-1.3333-5.6667-25.667-17-73s-23-94.333-35-141l-18-70c0-2.6667 4-4 12-4s35-0.66667 81-2c59.333 0 91.333 0.33333 96 1 41.333 4.6667 79.333 24 114 58 34.667 34 52 75.333 52 124z" fill="none" stroke="#68809c" stroke-miterlimit="10" stroke-opacity=".0667"/></g></g><g clip-path="url(#l)"><g transform="scale(2.9991)"><path d="m676 194v100.76" fill="none" stroke="#e6e6e6" stroke-miterlimit="10"/><path d="m676 301.76-3.5-7h7z" fill="#e6e6e6"/><path d="m676 301.76-3.5-7h7z" fill="none" stroke="#e6e6e6" stroke-miterlimit="10"/></g><g transform="matrix(2.9991 0 0 2.9991 1.4995 1.4995)"><path d="m651 129h50l25 30-25 30h-50l-25-30z" fill="none" stroke="#e6e6e6" stroke-miterlimit="10"/></g><g transform="scale(2.9991)"><text transform="translate(640.97 165)" fill="#e6e6e6" font-family="Helvetica" font-size="14px" font-weight="bold"><tspan x="0 7.7861328 15.572266 23.358398 27.248047 35.03418 40.482422 52.930664 61.482422 65.37207" y="0">scalarmult</tspan></text><path d="m306 144v60.76" fill="none" stroke="#e6e6e6" stroke-miterlimit="10"/><path d="m306 211.76-3.5-7h7z" fill="#e6e6e6"/><path d="m306 211.76-3.5-7h7z" fill="none" stroke="#e6e6e6" stroke-miterlimit="10"/></g><g transform="matrix(2.9991 0 0 2.9991 1.4995 1.4995)"><path d="m281 79h50l25 30-25 30h-50l-25-30z" fill="none" stroke="#e6e6e6" stroke-miterlimit="10"/></g><g transform="scale(2.9991)"><text transform="translate(277.2 115)" fill="#e6e6e6" font-family="Helvetica" font-size="14px" font-weight="bold"><tspan x="0 9.3378906 19.448242 29.558594 34.220703 42.006836 49.792969" y="0">SHA-512</tspan></text><path d="m641 339h-101.87" fill="none" stroke="#e6e6e6" stroke-miterlimit="10"/><path d="m532.13 339 7-3.5v7z" fill="#e6e6e6"/><path d="m532.13 339 7-3.5v7z" fill="none" stroke="#e6e6e6" stroke-miterlimit="10"/></g><g transform="matrix(2.9991 0 0 2.9991 1.4995 1.4995)"><path d="m706 339c0 0.98254-0.0482 1.9627-0.14453 2.9405-0.0962 0.97778-0.2403 1.9485-0.43201 2.9121-0.19165 0.96365-0.43005 1.9156-0.71527 2.8559-0.28522 0.94021-0.61584 1.8642-0.99188 2.7719-0.37592 0.90774-0.79547 1.7949-1.2587 2.6614-0.46319 0.86654-0.96771 1.7083-1.5136 2.5252-0.54584 0.81696-1.1304 1.6052-1.7537 2.3647-0.62323 0.75952-1.2823 1.4867-1.9771 2.1814-0.69477 0.69476-1.4219 1.3538-2.1815 1.9771-0.75946 0.62332-1.5477 1.2079-2.3647 1.7537-0.81695 0.54587-1.6586 1.0504-2.5251 1.5136-0.86652 0.46317-1.7537 0.88275-2.6615 1.2588-0.90766 0.37601-1.8317 0.70663-2.7719 0.99188-0.94019 0.28519-1.8922 0.52362-2.8558 0.7153-0.96356 0.19171-1.9343 0.33573-2.9121 0.43204-0.97784 0.09628-1.958 0.14444-2.9406 0.14444-0.98248 0-1.9626-0.0482-2.9405-0.14444-0.97784-0.0963-1.9486-0.24033-2.9123-0.43204-0.96369-0.19168-1.9156-0.43014-2.8558-0.71536-0.94018-0.28522-1.8642-0.61584-2.772-0.99185-0.90772-0.37598-1.7948-0.79556-2.6613-1.2587-0.86651-0.46316-1.7082-0.96771-2.5253-1.5136-0.81689-0.54584-1.6051-1.1304-2.3646-1.7537s-1.4866-1.2824-2.1815-1.9771c-0.69476-0.69474-1.3538-1.4219-1.9771-2.1814-0.62329-0.75952-1.2079-1.5478-1.7537-2.3647-0.5459-0.81692-1.0504-1.6587-1.5136-2.5252-0.4632-0.86652-0.88281-1.7537-1.2588-2.6614-0.37598-0.90775-0.7066-1.8317-0.99182-2.7719-0.28522-0.94025-0.52368-1.8922-0.7154-2.8559-0.19158-0.96365-0.33557-1.9344-0.43188-2.9121-0.09625-0.97781-0.14441-1.958-0.14447-2.9405 6e-5 -0.98254 0.0482-1.9627 0.14447-2.9405 0.0963-0.97781 0.2403-1.9486 0.43188-2.9122 0.19172-0.96366 0.43018-1.9156 0.7154-2.8558 0.28522-0.94024 0.61584-1.8642 0.99182-2.772 0.37604-0.90775 0.79565-1.7949 1.2588-2.6614 0.46313-0.86654 0.96765-1.7083 1.5136-2.5252 0.54584-0.81693 1.1304-1.6052 1.7538-2.3647 0.62335-0.75949 1.2824-1.4866 1.9771-2.1814 0.69483-0.69473 1.422-1.3538 2.1815-1.9771s1.5477-1.2079 2.3646-1.7538c0.81702-0.54587 1.6588-1.0504 2.5253-1.5136 0.86652-0.46317 1.7536-0.88272 2.6613-1.2587 0.90778-0.37601 1.8318-0.7066 2.772-0.99179 0.94025-0.28522 1.8922-0.52368 2.8558-0.71536 0.96368-0.19168 1.9344-0.33567 2.9123-0.43198 0.97784-0.0963 1.958-0.14444 2.9405-0.14447 0.98254 3e-5 1.9627 0.0482 2.9406 0.14447 0.97785 0.0963 1.9486 0.2403 2.9121 0.43198 0.96369 0.19168 1.9156 0.43014 2.8558 0.71536 0.94024 0.28519 1.8642 0.61578 2.7719 0.99179 0.90777 0.37601 1.795 0.79559 2.6615 1.2588 0.86651 0.46316 1.7082 0.96765 2.5251 1.5135 0.81702 0.54587 1.6053 1.1305 2.3648 1.7538 0.75952 0.62332 1.4867 1.2824 2.1815 1.9771 0.69482 0.69477 1.3539 1.4219 1.9772 2.1814 0.62329 0.75949 1.2078 1.5477 1.7537 2.3647 0.5459 0.81692 1.0504 1.6587 1.5136 2.5252 0.4632 0.86649 0.88275 1.7536 1.2587 2.6614 0.37604 0.90775 0.70666 1.8318 0.99188 2.772 0.28522 0.94022 0.52362 1.8921 0.71527 2.8558 0.19171 0.96368 0.33576 1.9344 0.43201 2.9122 0.09637 0.97781 0.14453 1.958 0.14453 2.9405z" fill="#d5e8d4"/><path d="m706 339c0 0.98254-0.0482 1.9627-0.14453 2.9405-0.0962 0.97778-0.2403 1.9485-0.43201 2.9121-0.19165 0.96365-0.43005 1.9156-0.71527 2.8559-0.28522 0.94021-0.61584 1.8642-0.99188 2.7719-0.37592 0.90774-0.79547 1.7949-1.2587 2.6614-0.46319 0.86654-0.96771 1.7083-1.5136 2.5252-0.54584 0.81696-1.1304 1.6052-1.7537 2.3647-0.62323 0.75952-1.2823 1.4867-1.9771 2.1814-0.69477 0.69476-1.4219 1.3538-2.1815 1.9771-0.75946 0.62332-1.5477 1.2079-2.3647 1.7537-0.81695 0.54587-1.6586 1.0504-2.5251 1.5136-0.86652 0.46317-1.7537 0.88275-2.6615 1.2588-0.90766 0.37601-1.8317 0.70663-2.7719 0.99188-0.94019 0.28519-1.8922 0.52362-2.8558 0.7153-0.96356 0.19171-1.9343 0.33573-2.9121 0.43204-0.97784 0.09628-1.958 0.14444-2.9406 0.14444-0.98248 0-1.9626-0.0482-2.9405-0.14444-0.97784-0.0963-1.9486-0.24033-2.9123-0.43204-0.96369-0.19168-1.9156-0.43014-2.8558-0.71536-0.94018-0.28522-1.8642-0.61584-2.772-0.99185-0.90772-0.37598-1.7948-0.79556-2.6613-1.2587-0.86651-0.46316-1.7082-0.96771-2.5253-1.5136-0.81689-0.54584-1.6051-1.1304-2.3646-1.7537s-1.4866-1.2824-2.1815-1.9771c-0.69476-0.69474-1.3538-1.4219-1.9771-2.1814-0.62329-0.75952-1.2079-1.5478-1.7537-2.3647-0.5459-0.81692-1.0504-1.6587-1.5136-2.5252-0.4632-0.86652-0.88281-1.7537-1.2588-2.6614-0.37598-0.90775-0.7066-1.8317-0.99182-2.7719-0.28522-0.94025-0.52368-1.8922-0.7154-2.8559-0.19158-0.96365-0.33557-1.9344-0.43188-2.9121-0.09625-0.97781-0.14441-1.958-0.14447-2.9405 6e-5 -0.98254 0.0482-1.9627 0.14447-2.9405 0.0963-0.97781 0.2403-1.9486 0.43188-2.9122 0.19172-0.96366 0.43018-1.9156 0.7154-2.8558 0.28522-0.94024 0.61584-1.8642 0.99182-2.772 0.37604-0.90775 0.79565-1.7949 1.2588-2.6614 0.46313-0.86654 0.96765-1.7083 1.5136-2.5252 0.54584-0.81693 1.1304-1.6052 1.7538-2.3647 0.62335-0.75949 1.2824-1.4866 1.9771-2.1814 0.69483-0.69473 1.422-1.3538 2.1815-1.9771s1.5477-1.2079 2.3646-1.7538c0.81702-0.54587 1.6588-1.0504 2.5253-1.5136 0.86652-0.46317 1.7536-0.88272 2.6613-1.2587 0.90778-0.37601 1.8318-0.7066 2.772-0.99179 0.94025-0.28522 1.8922-0.52368 2.8558-0.71536 0.96368-0.19168 1.9344-0.33567 2.9123-0.43198 0.97784-0.0963 1.958-0.14444 2.9405-0.14447 0.98254 3e-5 1.9627 0.0482 2.9406 0.14447 0.97785 0.0963 1.9486 0.2403 2.9121 0.43198 0.96369 0.19168 1.9156 0.43014 2.8558 0.71536 0.94024 0.28519 1.8642 0.61578 2.7719 0.99179 0.90777 0.37601 1.795 0.79559 2.6615 1.2588 0.86651 0.46316 1.7082 0.96765 2.5251 1.5135 0.81702 0.54587 1.6053 1.1305 2.3648 1.7538 0.75952 0.62332 1.4867 1.2824 2.1815 1.9771 0.69482 0.69477 1.3539 1.4219 1.9772 2.1814 0.62329 0.75949 1.2078 1.5477 1.7537 2.3647 0.5459 0.81692 1.0504 1.6587 1.5136 2.5252 0.4632 0.86649 0.88275 1.7536 1.2587 2.6614 0.37604 0.90775 0.70666 1.8318 0.99188 2.772 0.28522 0.94022 0.52362 1.8921 0.71527 2.8558 0.19171 0.96368 0.33576 1.9344 0.43201 2.9122 0.09637 0.97781 0.14453 1.958 0.14453 2.9405z" fill="none" stroke="#82b366" stroke-miterlimit="10"/></g></g><g clip-path="url(#j)"><g transform="matrix(.06318 0 0 -.065242 2003.4 1037.6)"><path d="m230 637c-18 0-28.667 0.33331-32 1s-5 4.3333-5 11c0 18 3.6667 29 11 33 1.3333 0.66669 59.333 1 174 1 114.67-0.66669 176.67-1.6667 186-3 37.333-5.3333 68.667-14.667 94-28s43.333-28.667 54-46 17.667-31.667 21-43 5.3333-22.667 6-34c0-30-9.6667-58-29-84s-41.667-46-67-60-47.667-25.333-67-34-32-13-38-13l7-5c44.667-25.333 67-62 67-110 0-7.3333-1.6667-27.667-5-61s-5-60.667-5-82v-9c0-12 0.33331-21.333 1-28s4.3333-12.667 11-18 15.333-8.3333 26-9c18.667 0 34 7.3333 46 22s20.667 30.333 26 47c3.3333 9.3333 6 15 8 17s7 3 15 3c13.333 0 20-4 20-12 0-12-8-31-24-57-25.333-38-55.333-57-90-57h-9c-40.667 0-74.333 8.3333-101 25-26.667 16.667-41.333 42.667-44 78 0 18 5 46 15 84s15 62.333 15 73c0 34-14.333 58.667-43 74-10 4.6667-18.333 7.3333-25 8s-30.333 1.3333-71 2h-69l-32-130c-22-88-33-132.67-33-134 0-2.6667 0.33333-4.3333 1-5s3-2 7-4 9.6667-2.6667 17-2 18.333 0 33-2h31c4-5.3333 6-8.3333 6-9s-1-6.6667-3-18c-2.6667-8.6667-6-15-10-19h-15c-24 1.3333-67.667 2-131 2h-63-46c-11.333 0-18.333-0.33333-21-1-11.333 0-17 3-17 9 0 1.3333 1 6 3 14 3.3333 12.667 6.6667 19.667 10 21 2.6667 0.66667 7.6667 1 15 1h6c18 0 38 1 60 3 9.3333 2 15.667 6 19 12 2 2.6667 26 95.333 72 278 46 182.67 69 279 69 289 0 4.6667-19 7.6667-57 9zm400-83c0 21.333-7 39.333-21 54s-42.667 24-86 28h-23c-14 0-26.667 0.33331-38 1h-22c-31.333 0-49.333-3.3333-54-10-0.66666-2-12-46.333-34-133s-33-131-33-133c0-0.66666 23-1 69-1 52 0.66666 86.667 3 104 7 42.667 6.6667 76 26.333 100 59 10.667 15.333 19.667 35.333 27 60s11 47.333 11 68z" fill="#648a4e"/><path d="m230 637c-18 0-28.667 0.33331-32 1s-5 4.3333-5 11c0 18 3.6667 29 11 33 1.3333 0.66669 59.333 1 174 1 114.67-0.66669 176.67-1.6667 186-3 37.333-5.3333 68.667-14.667 94-28s43.333-28.667 54-46 17.667-31.667 21-43 5.3333-22.667 6-34c0-30-9.6667-58-29-84s-41.667-46-67-60-47.667-25.333-67-34-32-13-38-13l7-5c44.667-25.333 67-62 67-110 0-7.3333-1.6667-27.667-5-61s-5-60.667-5-82v-9c0-12 0.33331-21.333 1-28s4.3333-12.667 11-18 15.333-8.3333 26-9c18.667 0 34 7.3333 46 22s20.667 30.333 26 47c3.3333 9.3333 6 15 8 17s7 3 15 3c13.333 0 20-4 20-12 0-12-8-31-24-57-25.333-38-55.333-57-90-57h-9c-40.667 0-74.333 8.3333-101 25-26.667 16.667-41.333 42.667-44 78 0 18 5 46 15 84s15 62.333 15 73c0 34-14.333 58.667-43 74-10 4.6667-18.333 7.3333-25 8s-30.333 1.3333-71 2h-69l-32-130c-22-88-33-132.67-33-134 0-2.6667 0.33333-4.3333 1-5s3-2 7-4 9.6667-2.6667 17-2 18.333 0 33-2h31c4-5.3333 6-8.3333 6-9s-1-6.6667-3-18c-2.6667-8.6667-6-15-10-19h-15c-24 1.3333-67.667 2-131 2h-63-46c-11.333 0-18.333-0.33333-21-1-11.333 0-17 3-17 9 0 1.3333 1 6 3 14 3.3333 12.667 6.6667 19.667 10 21 2.6667 0.66667 7.6667 1 15 1h6c18 0 38 1 60 3 9.3333 2 15.667 6 19 12 2 2.6667 26 95.333 72 278 46 182.67 69 279 69 289 0 4.6667-19 7.6667-57 9zm400-83c0 21.333-7 39.333-21 54s-42.667 24-86 28h-23c-14 0-26.667 0.33331-38 1h-22c-31.333 0-49.333-3.3333-54-10-0.66666-2-12-46.333-34-133s-33-131-33-133c0-0.66666 23-1 69-1 52 0.66666 86.667 3 104 7 42.667 6.6667 76 26.333 100 59 10.667 15.333 19.667 35.333 27 60s11 47.333 11 68z" fill="none" stroke="#648a4e" stroke-miterlimit="10" stroke-opacity=".0627"/></g></g><g clip-path="url(#i)"><g transform="scale(2.9991)"><path d="m419.89 339h-74.65" fill="none" stroke="#e6e6e6" stroke-miterlimit="10"/><path d="m338.24 339 7-3.5v7z" fill="#e6e6e6"/><path d="m338.24 339 7-3.5v7z" fill="none" stroke="#e6e6e6" stroke-miterlimit="10"/></g><g transform="matrix(2.9991 0 0 2.9991 1.4995 1.4995)"><path d="m449.89 309h50l25 30-25 30h-50l-25-30z" fill="none" stroke="#e6e6e6" stroke-miterlimit="10"/></g><g transform="scale(2.9991)"><text transform="translate(446.2 345)" fill="#e6e6e6" font-family="Helvetica" font-size="14px" font-weight="bold"><tspan x="0 9.3378906 19.448242 29.558594 34.220703 42.006836 49.792969" y="0">SHA-512</tspan></text></g><g transform="matrix(2.9991 0 0 2.9991 1.4995 1.4995)"><path d="m33.5 314h35c0.49246 0 0.98018 0.048 1.4632 0.1441s0.95198 0.23835 1.4069 0.42679c0.45496 0.18845 0.88718 0.41944 1.2967 0.69303 0.40946 0.27359 0.7883 0.5845 1.1365 0.93274 0.34821 0.3482 0.65912 0.72705 0.93272 1.1365 0.27359 0.40946 0.50462 0.84168 0.69308 1.2967 0.18845 0.45499 0.33072 0.92395 0.4268 1.407 0.09608 0.48301 0.14411 0.97074 0.14412 1.4632v35c-8e-6 0.49243-0.04804 0.98013-0.14412 1.4631-0.09608 0.48301-0.23834 0.95197-0.4268 1.4069-0.18846 0.45495-0.41949 0.88717-0.69308 1.2967-0.2736 0.40945-0.5845 0.7883-0.93272 1.1365-0.34822 0.34824-0.72706 0.65912-1.1365 0.93271-0.40947 0.27359-0.84169 0.50461-1.2967 0.69309-0.45496 0.18844-0.92395 0.33072-1.4069 0.42682-0.48299 0.09606-0.97072 0.1441-1.4632 0.14413h-35c-0.49246-3e-5 -0.98018-0.0481-1.4632-0.14413-0.483-0.0961-0.95198-0.23841-1.407-0.42685-0.45497-0.18845-0.88719-0.41947-1.2966-0.69306-0.40946-0.27359-0.7883-0.58447-1.1365-0.93271-0.34822-0.34823-0.65913-0.72708-0.93272-1.1365-0.2736-0.40949-0.50462-0.84171-0.69308-1.2967-0.18846-0.45496-0.33072-0.92392-0.42679-1.4069-0.096073-0.483-0.14411-0.9707-0.14411-1.4631v-35c-2e-6 -0.49246 0.04803-0.98019 0.14411-1.4632 0.09607-0.483 0.23834-0.95196 0.42679-1.407 0.18846-0.45498 0.41948-0.8872 0.69308-1.2967 0.2736-0.40948 0.5845-0.78833 0.93272-1.1365 0.34822-0.34824 0.72706-0.65915 1.1365-0.93274 0.40946-0.27359 0.84168-0.50458 1.2967-0.69303 0.45497-0.18844 0.92395-0.33072 1.407-0.42679 0.483-0.09607 0.97072-0.1441 1.4632-0.1441z" fill="#d5e8d4"/><path d="m33.5 314h35c0.49246 0 0.98018 0.048 1.4632 0.1441s0.95198 0.23835 1.4069 0.42679c0.45496 0.18845 0.88718 0.41944 1.2967 0.69303 0.40946 0.27359 0.7883 0.5845 1.1365 0.93274 0.34821 0.3482 0.65912 0.72705 0.93272 1.1365 0.27359 0.40946 0.50462 0.84168 0.69308 1.2967 0.18845 0.45499 0.33072 0.92395 0.4268 1.407 0.09608 0.48301 0.14411 0.97074 0.14412 1.4632v35c-8e-6 0.49243-0.04804 0.98013-0.14412 1.4631-0.09608 0.48301-0.23834 0.95197-0.4268 1.4069-0.18846 0.45495-0.41949 0.88717-0.69308 1.2967-0.2736 0.40945-0.5845 0.7883-0.93272 1.1365-0.34822 0.34824-0.72706 0.65912-1.1365 0.93271-0.40947 0.27359-0.84169 0.50461-1.2967 0.69309-0.45496 0.18844-0.92395 0.33072-1.4069 0.42682-0.48299 0.09606-0.97072 0.1441-1.4632 0.14413h-35c-0.49246-3e-5 -0.98018-0.0481-1.4632-0.14413-0.483-0.0961-0.95198-0.23841-1.407-0.42685-0.45497-0.18845-0.88719-0.41947-1.2966-0.69306-0.40946-0.27359-0.7883-0.58447-1.1365-0.93271-0.34822-0.34823-0.65913-0.72708-0.93272-1.1365-0.2736-0.40949-0.50462-0.84171-0.69308-1.2967-0.18846-0.45496-0.33072-0.92392-0.42679-1.4069-0.096073-0.483-0.14411-0.9707-0.14411-1.4631v-35c-2e-6 -0.49246 0.04803-0.98019 0.14411-1.4632 0.09607-0.483 0.23834-0.95196 0.42679-1.407 0.18846-0.45498 0.41948-0.8872 0.69308-1.2967 0.2736-0.40948 0.5845-0.78833 0.93272-1.1365 0.34822-0.34824 0.72706-0.65915 1.1365-0.93274 0.40946-0.27359 0.84168-0.50458 1.2967-0.69303 0.45497-0.18844 0.92395-0.33072 1.407-0.42679 0.483-0.09607 0.97072-0.1441 1.4632-0.1441z" fill="none" stroke="#82b366" stroke-miterlimit="10"/></g></g><g clip-path="url(#h)"><g transform="matrix(.065046 0 0 -.065286 131.96 1037.6)"><path d="m308 24c39.333 0 75.333 17.333 108 52 32.667 34.667 49.333 75 50 121 0 42-17.333 71-52 87-70.667 18-116 30.333-136 37s-34 13.333-42 20c-40 28-60 68.333-60 121 0 40.667 10.667 77.667 32 111s43 58.333 65 75c19.333 16.667 42.667 30 70 40s48.667 15.333 64 16h18c64 0 110.33-21.333 139-64 0.66669 0 5 4.3333 13 13s16.667 18.333 26 29 16 18 20 22h4c2 0 3.6667 0.33331 5 1 8.6667 0 13-2.3333 13-7s-9.3333-45-28-121-29.333-115.33-32-118-8-3.6667-16-3c-13.333 0-20 3-20 9 0 4 0.33331 7.3333 1 10 0 2 0.33331 8.3333 1 19s1.3333 19.333 2 26c0 22.667-3 42.333-9 59s-12 29-18 37-14.333 16.333-25 25c-24 14-51.333 21-82 21-38 0-73.333-15.333-106-46s-49.333-66-50-106c0-20 5-37.333 15-52s23.667-25 41-31c2.6667-1.3333 26-7.6667 70-19s66.333-17.333 67-18c22.667-7.3333 44.667-23.333 66-48 21.333-24.667 32-58 32-100 0-17.333-2.6667-36-8-56-3.3333-14.667-9.3333-31-18-49s-20.667-37.667-36-59-37.333-41.333-66-60c-28.667-18.667-60-31.333-94-38-8-1.3333-19.333-2-34-2-66 0-117.33 18.333-154 55l-10 11-28-31c-15.333-18-24.667-28.333-28-31-3.3333-2.6667-7.6667-4-13-4-8.6667 0-13 2.6667-13 8 0 2 19.333 80.333 58 235 1.3333 4 8 6 20 6h13c4-4 6-7.6667 6-11 0-1.3333-0.33333-4.3333-1-9s-2-11.667-4-21-2.6667-20.333-2-33c1.3333-26 7.3333-48 18-66s25-31.333 43-40 35.333-14.667 52-18c16.667-3.3333 34.333-5 53-5z" fill="#648a4e"/><path d="m308 24c39.333 0 75.333 17.333 108 52 32.667 34.667 49.333 75 50 121 0 42-17.333 71-52 87-70.667 18-116 30.333-136 37s-34 13.333-42 20c-40 28-60 68.333-60 121 0 40.667 10.667 77.667 32 111s43 58.333 65 75c19.333 16.667 42.667 30 70 40s48.667 15.333 64 16h18c64 0 110.33-21.333 139-64 0.66669 0 5 4.3333 13 13s16.667 18.333 26 29 16 18 20 22h4c2 0 3.6667 0.33331 5 1 8.6667 0 13-2.3333 13-7s-9.3333-45-28-121-29.333-115.33-32-118-8-3.6667-16-3c-13.333 0-20 3-20 9 0 4 0.33331 7.3333 1 10 0 2 0.33331 8.3333 1 19s1.3333 19.333 2 26c0 22.667-3 42.333-9 59s-12 29-18 37-14.333 16.333-25 25c-24 14-51.333 21-82 21-38 0-73.333-15.333-106-46s-49.333-66-50-106c0-20 5-37.333 15-52s23.667-25 41-31c2.6667-1.3333 26-7.6667 70-19s66.333-17.333 67-18c22.667-7.3333 44.667-23.333 66-48 21.333-24.667 32-58 32-100 0-17.333-2.6667-36-8-56-3.3333-14.667-9.3333-31-18-49s-20.667-37.667-36-59-37.333-41.333-66-60c-28.667-18.667-60-31.333-94-38-8-1.3333-19.333-2-34-2-66 0-117.33 18.333-154 55l-10 11-28-31c-15.333-18-24.667-28.333-28-31-3.3333-2.6667-7.6667-4-13-4-8.6667 0-13 2.6667-13 8 0 2 19.333 80.333 58 235 1.3333 4 8 6 20 6h13c4-4 6-7.6667 6-11 0-1.3333-0.33333-4.3333-1-9s-2-11.667-4-21-2.6667-20.333-2-33c1.3333-26 7.3333-48 18-66s25-31.333 43-40 35.333-14.667 52-18c16.667-3.3333 34.333-5 53-5z" fill="none" stroke="#648a4e" stroke-miterlimit="10" stroke-opacity=".0667"/></g></g><g clip-path="url(#g)"><g transform="scale(2.9991)"><path d="m336 237.11 133.04-30.57m11.7-2.68 139.67-32.09" fill="none" stroke="#e6e6e6" stroke-miterlimit="10"/><path d="m627.23 170.2-6.04 4.98-1.57-6.82z" fill="#e6e6e6"/><path d="m627.23 170.2-6.04 4.98-1.57-6.82z" fill="none" stroke="#e6e6e6" stroke-miterlimit="10"/><path d="m276 255.18-186.35 69.42" fill="none" stroke="#e6e6e6" stroke-miterlimit="10"/><path d="m83.1 327.04 5.33-5.72 2.45 6.56z" fill="#e6e6e6"/><path d="m83.1 327.04 5.33-5.72 2.45 6.56z" fill="none" stroke="#e6e6e6" stroke-miterlimit="10"/></g><g transform="matrix(2.9991 0 0 2.9991 1.4995 1.4995)"><path d="m288.5 219h35c0.49246 0 0.98016 0.048 1.4631 0.14412 0.48301 0.0961 0.95197 0.23831 1.407 0.42677 0.45498 0.18846 0.8872 0.41948 1.2967 0.69306 0.40945 0.2736 0.7883 0.58451 1.1365 0.93274 0.34821 0.3482 0.65912 0.72705 0.93271 1.1365 0.27359 0.40945 0.50461 0.84167 0.69309 1.2966 0.18844 0.45497 0.33069 0.92395 0.42679 1.407 0.0961 0.48301 0.1441 0.97074 0.14413 1.4632v35c-3e-5 0.49243-0.0481 0.98013-0.14413 1.4631-0.0961 0.48301-0.23835 0.95197-0.42679 1.407-0.18848 0.45498-0.4195 0.88717-0.69309 1.2966-0.27359 0.40951-0.5845 0.78836-0.93271 1.1366-0.34823 0.34824-0.72708 0.65912-1.1365 0.93271-0.40946 0.27359-0.84168 0.50464-1.2967 0.69309-0.45499 0.18844-0.92395 0.33072-1.407 0.42679-0.48297 0.0961-0.97067 0.14413-1.4631 0.14413h-35c-0.49246 0-0.98019-0.048-1.4632-0.14413-0.483-0.096-0.95196-0.23832-1.407-0.42676-0.45495-0.18845-0.88717-0.4195-1.2966-0.69312-0.40945-0.27359-0.7883-0.58447-1.1365-0.93271-0.34821-0.3482-0.65912-0.72705-0.93271-1.1365-0.27359-0.40946-0.50464-0.84168-0.69309-1.2967-0.18844-0.45499-0.33072-0.92395-0.42679-1.407-0.096-0.483-0.14407-0.9707-0.1441-1.4631v-35c3e-5 -0.49246 0.0481-0.98019 0.1441-1.4632 0.0961-0.48302 0.23835-0.952 0.42679-1.407 0.18845-0.45497 0.41947-0.88719 0.69306-1.2966 0.27362-0.40947 0.58453-0.78832 0.93274-1.1365 0.34823-0.34823 0.72708-0.65914 1.1365-0.93271 0.40946-0.27361 0.84168-0.50463 1.2966-0.69309 0.45499-0.18846 0.92395-0.33072 1.407-0.42679 0.48301-0.09607 0.97074-0.1441 1.4632-0.1441z" fill="none" stroke="#e6e6e6" stroke-miterlimit="10"/></g></g><g clip-path="url(#f)"><g transform="matrix(.066425 0 0 -.0651 902.72 752.67)"><path d="m21 287c0.66667 2 1.3333 4.6667 2 8s2.3333 10.667 5 22 6 21.667 10 31 9 20.333 15 33 12.667 22.667 20 30 16 14.667 26 22 21 10.333 33 9c19.333 0 36.333-4 51-12s25-15.333 31-22 9.6667-13.333 11-20c1.3333-4 2.3333-6 3-6s3.3333 2.3333 8 7c32 34.667 69 52 111 52h3c32 0 56-13.667 72-41 5.3333-12.667 8-25 8-37 0-20-4.3333-36-13-48s-17.333-19.667-26-23-17-4.6667-25-4c-13.333 0-24 3.6667-32 11s-12 17-12 29c0 32 18.667 53.333 56 64-14.667 8.6667-26.667 13-36 13-37.333 0-71.667-24.667-103-74-6.6667-10.667-11.667-21.667-15-33s-14.667-55.667-34-133c-22.667-93.333-35.667-143-39-149-8.6667-18-23-27-43-27-8.6667 0-15.667 2-21 6s-9 8-11 12-2.6667 7.3333-2 10c0 8.6667 13.333 66 40 172 26.667 106 40 165 40 177 0 26-8.6667 39-26 39-14 0-26-9.3333-36-28s-18-39-24-61-9.6667-34-11-36c-1.3333-1.3333-6.6667-2-16-2h-14c-4 4-6 7-6 9z" fill="#e6e6e6"/><path d="m21 287c0.66667 2 1.3333 4.6667 2 8s2.3333 10.667 5 22 6 21.667 10 31 9 20.333 15 33 12.667 22.667 20 30 16 14.667 26 22 21 10.333 33 9c19.333 0 36.333-4 51-12s25-15.333 31-22 9.6667-13.333 11-20c1.3333-4 2.3333-6 3-6s3.3333 2.3333 8 7c32 34.667 69 52 111 52h3c32 0 56-13.667 72-41 5.3333-12.667 8-25 8-37 0-20-4.3333-36-13-48s-17.333-19.667-26-23-17-4.6667-25-4c-13.333 0-24 3.6667-32 11s-12 17-12 29c0 32 18.667 53.333 56 64-14.667 8.6667-26.667 13-36 13-37.333 0-71.667-24.667-103-74-6.6667-10.667-11.667-21.667-15-33s-14.667-55.667-34-133c-22.667-93.333-35.667-143-39-149-8.6667-18-23-27-43-27-8.6667 0-15.667 2-21 6s-9 8-11 12-2.6667 7.3333-2 10c0 8.6667 13.333 66 40 172 26.667 106 40 165 40 177 0 26-8.6667 39-26 39-14 0-26-9.3333-36-28s-18-39-24-61-9.6667-34-11-36c-1.3333-1.3333-6.6667-2-16-2h-14c-4 4-6 7-6 9z" fill="none" stroke="#e6e6e6" stroke-miterlimit="10" stroke-opacity=".0667"/></g></g><g clip-path="url(#e)"><g transform="scale(2.9991)"><path d="m276 339h-185.76" fill="none" stroke="#e6e6e6" stroke-miterlimit="10"/><path d="m83.24 339 7-3.5v7z" fill="#e6e6e6"/><path d="m83.24 339 7-3.5v7z" fill="none" stroke="#e6e6e6" stroke-miterlimit="10"/></g><g transform="matrix(2.9991 0 0 2.9991 1.4995 1.4995)"><path d="m288.5 314h35c0.49246 0 0.98016 0.048 1.4631 0.1441 0.48301 0.0961 0.95197 0.23835 1.407 0.42679 0.45498 0.18845 0.8872 0.41944 1.2967 0.69303 0.40945 0.27359 0.7883 0.5845 1.1365 0.93274 0.34821 0.3482 0.65912 0.72705 0.93271 1.1365 0.27359 0.40946 0.50461 0.84168 0.69309 1.2967 0.18844 0.45499 0.33069 0.92395 0.42679 1.407 0.0961 0.48301 0.1441 0.97074 0.14413 1.4632v35c-3e-5 0.49243-0.0481 0.98013-0.14413 1.4631-0.0961 0.48301-0.23835 0.95197-0.42679 1.4069-0.18848 0.45495-0.4195 0.88717-0.69309 1.2967-0.27359 0.40945-0.5845 0.7883-0.93271 1.1365-0.34823 0.34824-0.72708 0.65912-1.1365 0.93271-0.40946 0.27359-0.84168 0.50461-1.2967 0.69309-0.45499 0.18844-0.92395 0.33072-1.407 0.42682-0.48297 0.0961-0.97067 0.1441-1.4631 0.14413h-35c-0.49246-3e-5 -0.98019-0.0481-1.4632-0.14413-0.483-0.0961-0.95196-0.23841-1.407-0.42685-0.45495-0.18845-0.88717-0.41947-1.2966-0.69306-0.40945-0.27359-0.7883-0.58447-1.1365-0.93271-0.34821-0.34823-0.65912-0.72708-0.93271-1.1365-0.27359-0.40949-0.50464-0.84171-0.69309-1.2967-0.18844-0.45496-0.33072-0.92392-0.42679-1.4069-0.096-0.483-0.14407-0.9707-0.1441-1.4631v-35c3e-5 -0.49246 0.0481-0.98019 0.1441-1.4632 0.0961-0.483 0.23835-0.95196 0.42679-1.407 0.18845-0.45498 0.41947-0.8872 0.69306-1.2967 0.27362-0.40948 0.58453-0.78833 0.93274-1.1365 0.34823-0.34824 0.72708-0.65915 1.1365-0.93274 0.40946-0.27359 0.84168-0.50458 1.2966-0.69303 0.45499-0.18844 0.92395-0.33072 1.407-0.42679 0.48301-0.09607 0.97074-0.1441 1.4632-0.1441z" fill="none" stroke="#e6e6e6" stroke-miterlimit="10"/></g></g><g clip-path="url(#d)"><g transform="matrix(.069011 0 0 -.065238 899.73 1037.6)"><path d="m121 647c0 6.6667 1.3333 14.333 4 23s6.6667 13 12 13c0.66667 0 24.667 1.6667 72 5s71.667 5.3333 73 6c8 0 12-2.6667 12-8 0-4.6667-16.667-74.333-50-209-33.333-132-50-200.33-50-205 12.667 6.6667 22.333 13 29 19 16 12 39 33 69 63s53.333 50.333 70 61c26.667 18 52 27 76 27 20 0 35.667-6.3333 47-19s17.333-30.667 18-54c0-16.667-2.3333-30.667-7-42s-11-19.667-19-25-15-9-21-11-12-3-18-3c-13.333 0-24 3.6667-32 11s-12 17-12 29c0 16.667 5.3333 30.333 16 41s21.333 17.667 32 21l16 3c-8 8-16 12-24 12h-4c-21.333-2-42.333-10.333-63-25s-45-36-73-64-50-48.333-66-61c1.3333-0.66667 6.3333-1.6667 15-3s16.667-3.3333 24-6 16-5.3333 26-8 19-7.3333 27-14 15.333-12.667 22-18 12.333-14 17-26 6.6667-23 6-33c0-11.333-1.6667-25-5-41s-5.3333-29.333-6-40c0-26.667 9-40 27-40 32 0 58 39.667 78 119 1.3333 5.3333 8 8 20 8h4c10.667 0 16-3 16-9 0-3.3333-1-8-3-14-27.333-94-66.667-141-118-141-30 0-54.333 8.6667-73 26-18.667 17.333-28 42.333-28 75 0 12 1 22.333 3 31 2 8.6667 3 16.667 3 24 0 14.667-4.6667 27.333-14 38s-21 18.333-35 23-25.333 8.3333-34 11-14.667 3.6667-18 3h-2c-8-28-15-55-21-81s-10.667-45.333-14-58-6.3333-25-9-37-5-20-7-24-4.3333-8.3333-7-13-6.3333-7.6667-11-9c-8.6667-6-18-9-28-9-11.333 0-20 3.3333-26 10s-9 12.333-9 17c0 6.6667 12.333 60 37 160 24.667 100 49 198.33 73 295l37 145c0.66667 8.6667-1.6667 14-7 16s-18.333 3.6667-39 5h-5-13c-2 0-4.3333 1-7 3s-3.6667 4.3333-3 7z" fill="#e6e6e6"/><path d="m121 647c0 6.6667 1.3333 14.333 4 23s6.6667 13 12 13c0.66667 0 24.667 1.6667 72 5s71.667 5.3333 73 6c8 0 12-2.6667 12-8 0-4.6667-16.667-74.333-50-209-33.333-132-50-200.33-50-205 12.667 6.6667 22.333 13 29 19 16 12 39 33 69 63s53.333 50.333 70 61c26.667 18 52 27 76 27 20 0 35.667-6.3333 47-19s17.333-30.667 18-54c0-16.667-2.3333-30.667-7-42s-11-19.667-19-25-15-9-21-11-12-3-18-3c-13.333 0-24 3.6667-32 11s-12 17-12 29c0 16.667 5.3333 30.333 16 41s21.333 17.667 32 21l16 3c-8 8-16 12-24 12h-4c-21.333-2-42.333-10.333-63-25s-45-36-73-64-50-48.333-66-61c1.3333-0.66667 6.3333-1.6667 15-3s16.667-3.3333 24-6 16-5.3333 26-8 19-7.3333 27-14 15.333-12.667 22-18 12.333-14 17-26 6.6667-23 6-33c0-11.333-1.6667-25-5-41s-5.3333-29.333-6-40c0-26.667 9-40 27-40 32 0 58 39.667 78 119 1.3333 5.3333 8 8 20 8h4c10.667 0 16-3 16-9 0-3.3333-1-8-3-14-27.333-94-66.667-141-118-141-30 0-54.333 8.6667-73 26-18.667 17.333-28 42.333-28 75 0 12 1 22.333 3 31 2 8.6667 3 16.667 3 24 0 14.667-4.6667 27.333-14 38s-21 18.333-35 23-25.333 8.3333-34 11-14.667 3.6667-18 3h-2c-8-28-15-55-21-81s-10.667-45.333-14-58-6.3333-25-9-37-5-20-7-24-4.3333-8.3333-7-13-6.3333-7.6667-11-9c-8.6667-6-18-9-28-9-11.333 0-20 3.3333-26 10s-9 12.333-9 17c0 6.6667 12.333 60 37 160 24.667 100 49 198.33 73 295l37 145c0.66667 8.6667-1.6667 14-7 16s-18.333 3.6667-39 5h-5-13c-2 0-4.3333 1-7 3s-3.6667 4.3333-3 7z" fill="none" stroke="#e6e6e6" stroke-miterlimit="10" stroke-opacity=".0667"/></g></g><g clip-path="url(#c)"><g transform="matrix(2.9991 0 0 2.9991 1.4995 1.4995)" fill="none" stroke="#e6e6e6" stroke-miterlimit="10"><path d="m1 219h200v20h-200z"/><path d="m1 219h100v20h-100z"/></g></g><g clip-path="url(#b)"><g transform="matrix(.063878 0 0 -.057813 137.96 701.69)"><path d="m131 289c0 21.333 5.3333 43 16 65s29.333 42.333 56 61 59 27.667 97 27c41.333 0 71.333-9 90-27s28.333-38 29-60c0-21.333-5.6667-37-17-47s-24-15.333-38-16c-8.6667 0-16.667 2.6667-24 8s-11.333 14-12 26c0 10.667 3 20 9 28s11.667 14 17 18 9.6667 6 13 6c0.66666 0 1 0.33334 1 1 0 2-2.3333 5-7 9s-13 7.6667-25 11-25 5.3333-39 6c-32 0-55.333-8.6667-70-26s-22.333-35-23-53c0-16.667 6.3333-28.333 19-35s31-12.333 55-17 41.333-9.6667 52-15c44-19.333 66-51.333 66-96 0-18.667-3.6667-37.333-11-56-7.3333-18.667-18.333-37.333-33-56-14.667-18.667-35.667-33.333-63-44-27.333-10.667-58.667-16.333-94-17-51.333 0-87.667 9.6667-109 29-21.333 19.333-32.333 42-33 68 0 26 7 44.667 21 56s28.667 17 44 17c10 0 19.333-3 28-9s13.333-16.333 14-31c0-17.333-6-32-18-44s-22.333-18-31-18c-1.3333-0.66667-2.3333-1-3-1s-1-0.66667-1-2c0.66666-2 3.3333-4.6667 8-8s15-7.6667 31-13c16-5.3333 34.333-7.6667 55-7 24 0 44.667 3.6667 62 11 17.333 7.3333 30 16.667 38 28s13.667 21.667 17 31c3.3333 9.3333 5 17.667 5 25 0 18.667-7 32.667-21 42s-30 15-48 17-37.667 7-59 15-37 19.667-47 35c-11.333 16.667-17 36-17 58z" fill="#e6e6e6"/><path d="m131 289c0 21.333 5.3333 43 16 65s29.333 42.333 56 61 59 27.667 97 27c41.333 0 71.333-9 90-27s28.333-38 29-60c0-21.333-5.6667-37-17-47s-24-15.333-38-16c-8.6667 0-16.667 2.6667-24 8s-11.333 14-12 26c0 10.667 3 20 9 28s11.667 14 17 18 9.6667 6 13 6c0.66666 0 1 0.33334 1 1 0 2-2.3333 5-7 9s-13 7.6667-25 11-25 5.3333-39 6c-32 0-55.333-8.6667-70-26s-22.333-35-23-53c0-16.667 6.3333-28.333 19-35s31-12.333 55-17 41.333-9.6667 52-15c44-19.333 66-51.333 66-96 0-18.667-3.6667-37.333-11-56-7.3333-18.667-18.333-37.333-33-56-14.667-18.667-35.667-33.333-63-44-27.333-10.667-58.667-16.333-94-17-51.333 0-87.667 9.6667-109 29-21.333 19.333-32.333 42-33 68 0 26 7 44.667 21 56s28.667 17 44 17c10 0 19.333-3 28-9s13.333-16.333 14-31c0-17.333-6-32-18-44s-22.333-18-31-18c-1.3333-0.66667-2.3333-1-3-1s-1-0.66667-1-2c0.66666-2 3.3333-4.6667 8-8s15-7.6667 31-13c16-5.3333 34.333-7.6667 55-7 24 0 44.667 3.6667 62 11 17.333 7.3333 30 16.667 38 28s13.667 21.667 17 31c3.3333 9.3333 5 17.667 5 25 0 18.667-7 32.667-21 42s-30 15-48 17-37.667 7-59 15-37 19.667-47 35c-11.333 16.667-17 36-17 58z" fill="none" stroke="#e6e6e6" stroke-miterlimit="10" stroke-opacity=".0588"/></g></g><g clip-path="url(#a)"><g transform="matrix(2.9991 0 0 2.9991 1.4995 1.4995)"><path d="m101 219h100v20h-100z" fill="none" stroke="#e6e6e6" stroke-miterlimit="10"/></g><g transform="scale(2.9991)"><text transform="translate(136.33 234)" fill="#e6e6e6" font-family="Helvetica" font-size="12px"><tspan x="0 6.6738281 10.669922 17.34375 23.34375" y="0">preﬁx</tspan></text></g></g></g></svg>
